GeoramaExtraCondensed-ExtraLight.ufo
<glyph name="exclam" format="2">
  <advance width="121.74"/>
  <unicode hex="0021"/>
  <outline>
    <contour>
      <point x="44.84" y="263.55" type="line"/>
      <point x="76.72" y="263.55" type="line"/>
      <point x="78.16" y="740.0" type="line"/>
      <point x="43.67" y="740.0" type="line"/>
    </contour>
    <contour>
      <point x="39.76" y="25.1" type="curve" smooth="yes"/>
      <point x="39.76" y="3.52"/>
      <point x="43.19" y="-0.8999999999999999"/>
      <point x="60.87" y="-0.8999999999999999" type="curve" smooth="yes"/>
      <point x="79.46" y="-0.8999999999999999"/>
      <point x="81.98" y="3.52"/>
      <point x="81.98" y="25.1" type="curve" smooth="yes"/>
      <point x="81.98" y="46.769999999999996"/>
      <point x="79.46" y="51.19"/>
      <point x="60.87" y="51.19" type="curve" smooth="yes"/>
      <point x="42.28" y="51.19"/>
      <point x="39.76" y="46.769999999999996"/>
    </contour>
  </outline>
</glyph>
<glyph name="numbersign" format="2">
  <advance width="265.3"/>
  <unicode hex="0023"/>
  <outline>
    <contour>
      <point x="32.36" y="474.54" type="line"/>
      <point x="82.1" y="474.54" type="line"/>
      <point x="52.62" y="225.29" type="line"/>
      <point x="8.71" y="225.29" type="line"/>
      <point x="8.71" y="192.78" type="line"/>
      <point x="50.08" y="192.78" type="line"/>
      <point x="27.61" y="0.0" type="line"/>
      <point x="57.06" y="0.0" type="line"/>
      <point x="79.53" y="192.78" type="line"/>
      <point x="151.3" y="192.78" type="line"/>
      <point x="128.83" y="0.0" type="line"/>
      <point x="158.28" y="0.0" type="line"/>
      <point x="180.75" y="192.78" type="line"/>
      <point x="232.94" y="192.78" type="line"/>
      <point x="232.94" y="225.29" type="line"/>
      <point x="183.29" y="225.29" type="line"/>
      <point x="212.77" y="474.54" type="line"/>
      <point x="256.59" y="474.54" type="line"/>
      <point x="256.59" y="507.23" type="line"/>
      <point x="216.22" y="507.23" type="line"/>
      <point x="238.78" y="700.0" type="line"/>
      <point x="209.33" y="700.0" type="line"/>
      <point x="186.77" y="507.23" type="line"/>
      <point x="115.0" y="507.23" type="line"/>
      <point x="137.56" y="700.0" type="line"/>
      <point x="108.11" y="700.0" type="line"/>
      <point x="85.55" y="507.23" type="line"/>
      <point x="32.36" y="507.23" type="line"/>
    </contour>
    <contour>
      <point x="111.55" y="474.54" type="line"/>
      <point x="183.32" y="474.54" type="line"/>
      <point x="153.84" y="225.29" type="line"/>
      <point x="82.07" y="225.29" type="line"/>
    </contour>
  </outline>
</glyph>
<glyph name="dollar" format="2">
  <advance width="265.3"/>
  <unicode hex="0024"/>
  <outline>
    <contour>
      <point x="110.29" y="-10.0" type="curve" smooth="yes"/>
      <point x="176.07" y="-10.0"/>
      <point x="223.91" y="43.46"/>
      <point x="223.91" y="131.38" type="curve" smooth="yes"/>
      <point x="223.91" y="227.44"/>
      <point x="185.58" y="293.73"/>
      <point x="148.33" y="359.85" type="curve" smooth="yes"/>
      <point x="113.61" y="423.16"/>
      <point x="79.43" y="486.93"/>
      <point x="79.43" y="570.25" type="curve" smooth="yes"/>
      <point x="79.43" y="636.2"/>
      <point x="104.53" y="677.96"/>
      <point x="145.53" y="677.96" type="curve" smooth="yes"/>
      <point x="166.88" y="677.96"/>
      <point x="181.95" y="672.78"/>
      <point x="196.02" y="665.15" type="curve"/>
      <point x="206.36" y="694.02" type="line"/>
      <point x="189.65" y="704.01"/>
      <point x="166.15" y="710.0"/>
      <point x="142.38" y="710.0" type="curve" smooth="yes"/>
      <point x="83.35" y="710.0"/>
      <point x="45.66" y="655.3"/>
      <point x="45.66" y="570.25" type="curve" smooth="yes"/>
      <point x="45.66" y="475.45"/>
      <point x="83.55" y="405.62"/>
      <point x="120.35" y="338.41" type="curve" smooth="yes"/>
      <point x="155.97" y="273.2"/>
      <point x="190.5" y="210.34"/>
      <point x="190.5" y="128.02" type="curve" smooth="yes"/>
      <point x="190.5" y="65.62"/>
      <point x="159.49" y="22.41"/>
      <point x="114.12" y="22.41" type="curve" smooth="yes"/>
      <point x="90.31" y="22.41"/>
      <point x="70.33" y="26.95"/>
      <point x="50.73" y="37.03" type="curve"/>
      <point x="41.39" y="6.609999999999999" type="line"/>
      <point x="59.82" y="-3.74"/>
      <point x="85.05" y="-10.0"/>
    </contour>
    <contour>
      <point x="120.45" y="-105.0" type="line"/>
      <point x="153.14" y="-105.0" type="line"/>
      <point x="153.14" y="3.07" type="line"/>
      <point x="120.45" y="-2.56" type="line"/>
    </contour>
    <contour>
      <point x="120.45" y="700.3" type="line"/>
      <point x="153.14" y="703.56" type="line"/>
      <point x="153.14" y="804.82" type="line"/>
      <point x="120.45" y="804.82" type="line"/>
    </contour>
  </outline>
</glyph>
<glyph name="ampersand" format="2">
  <advance width="355.84"/>
  <unicode hex="0026"/>
  <outline>
    <contour>
      <point x="316.16" y="-14.56" type="line"/>
      <point x="348.92" y="-4.64" type="line"/>
      <point x="125.96" y="405.24" type="line" smooth="yes"/>
      <point x="95.22" y="462.54"/>
      <point x="86.03999999999999" y="509.38"/>
      <point x="86.03999999999999" y="554.5" type="curve" smooth="yes"/>
      <point x="86.03999999999999" y="636.38"/>
      <point x="112.06" y="676.32"/>
      <point x="156.0" y="676.32" type="curve" smooth="yes"/>
      <point x="200.12" y="676.32"/>
      <point x="220.5" y="633.38"/>
      <point x="220.5" y="562.24" type="curve" smooth="yes"/>
      <point x="220.5" y="511.02"/>
      <point x="213.4" y="468.26"/>
      <point x="188.02" y="436.6" type="curve"/>
      <point x="207.62" y="418.5" type="line"/>
      <point x="240.14" y="457.42"/>
      <point x="251.84" y="507.78"/>
      <point x="251.84" y="567.66" type="curve" smooth="yes"/>
      <point x="251.84" y="658.0"/>
      <point x="218.96" y="710.0"/>
      <point x="155.82" y="710.0" type="curve" smooth="yes"/>
      <point x="89.06" y="710.0"/>
      <point x="52.36" y="658.84"/>
      <point x="52.36" y="555.22" type="curve" smooth="yes"/>
      <point x="52.36" y="504.14"/>
      <point x="66.62" y="446.14"/>
      <point x="101.44" y="381.4" type="curve" smooth="yes"/>
    </contour>
    <contour>
      <point x="153.5" y="-10.0" type="curve" smooth="yes"/>
      <point x="209.76" y="-10.0"/>
      <point x="246.94" y="22.74"/>
      <point x="271.02" y="86.22" type="curve"/>
      <point x="255.44" y="115.22" type="line"/>
      <point x="232.88" y="53.9"/>
      <point x="208.96" y="22.06"/>
      <point x="155.48" y="22.06" type="curve" smooth="yes"/>
      <point x="92.72" y="22.06"/>
      <point x="54.980000000000004" y="88.92"/>
      <point x="54.980000000000004" y="176.88" type="curve" smooth="yes"/>
      <point x="54.980000000000004" y="264.12"/>
      <point x="74.26" y="313.88"/>
      <point x="122.38" y="372.56" type="curve"/>
      <point x="109.26" y="397.82" type="line"/>
      <point x="47.92" y="339.36"/>
      <point x="22.38" y="273.82"/>
      <point x="22.38" y="175.08" type="curve" smooth="yes"/>
      <point x="22.38" y="67.82"/>
      <point x="70.44" y="-10.0"/>
    </contour>
    <contour>
      <point x="283.32" y="103.42" type="line"/>
      <point x="303.22" y="160.88"/>
      <point x="315.48" y="235.36"/>
      <point x="315.48" y="315.2" type="curve" smooth="yes"/>
      <point x="315.48" y="338.84"/>
      <point x="314.48" y="356.2"/>
      <point x="311.48" y="374.38" type="curve"/>
      <point x="282.4" y="371.74" type="line"/>
      <point x="285.22" y="354.46"/>
      <point x="286.22" y="339.0"/>
      <point x="286.22" y="317.72" type="curve" smooth="yes"/>
      <point x="286.22" y="245.48"/>
      <point x="278.4" y="181.7"/>
      <point x="265.48" y="137.94" type="curve"/>
    </contour>
  </outline>
</glyph>
<glyph name="quotesingle" format="2">
  <advance width="119.65"/>
  <unicode hex="0027"/>
  <outline>
    <contour>
      <point x="47.48" y="427.0" type="line"/>
      <point x="71.9" y="427.0" type="line"/>
      <point x="77.26" y="700.0" type="line"/>
      <point x="42.39" y="700.0" type="line"/>
    </contour>
  </outline>
</glyph>
<glyph name="parenleft" format="2">
  <advance width="177.12"/>
  <unicode hex="0028"/>
  <outline>
    <contour>
      <point x="46.76" y="265.0" type="curve" smooth="yes"/>
      <point x="46.76" y="-12.72"/>
      <point x="94.93" y="-195.18"/>
      <point x="171.85" y="-220.91" type="curve"/>
      <point x="171.85" y="-183.94" type="line"/>
      <point x="115.21" y="-150.12"/>
      <point x="79.38" y="2.71"/>
      <point x="79.38" y="265.0" type="curve" smooth="yes"/>
      <point x="79.38" y="527.29"/>
      <point x="115.21" y="680.12"/>
      <point x="171.85" y="713.94" type="curve"/>
      <point x="171.85" y="750.91" type="line"/>
      <point x="94.93" y="725.18"/>
      <point x="46.76" y="542.72"/>
    </contour>
  </outline>
</glyph>
<glyph name="parenright" format="2">
  <advance width="177.12"/>
  <unicode hex="0029"/>
  <outline>
    <contour>
      <point x="5.27" y="-183.94" type="curve"/>
      <point x="5.27" y="-220.91" type="line"/>
      <point x="82.19" y="-195.18"/>
      <point x="130.36" y="-12.72"/>
      <point x="130.36" y="265.0" type="curve" smooth="yes"/>
      <point x="130.36" y="542.72"/>
      <point x="82.19" y="725.18"/>
      <point x="5.27" y="750.91" type="curve"/>
      <point x="5.27" y="713.94" type="line"/>
      <point x="61.91" y="680.12"/>
      <point x="97.74" y="527.29"/>
      <point x="97.74" y="265.0" type="curve" smooth="yes"/>
      <point x="97.74" y="2.71"/>
      <point x="61.91" y="-150.12"/>
    </contour>
  </outline>
</glyph>
<glyph name="asterisk" format="2">
  <advance width="196.22"/>
  <unicode hex="002A"/>
  <outline>
    <contour>
      <point x="48.94" y="400.7" type="line"/>
      <point x="98.11" y="485.72" type="line"/>
      <point x="147.28" y="400.7" type="line"/>
      <point x="166.87" y="413.94" type="line"/>
      <point x="117.59" y="503.77" type="line"/>
      <point x="195.68" y="546.41" type="line"/>
      <point x="187.06" y="567.9" type="line"/>
      <point x="110.98" y="529.15" type="line"/>
      <point x="109.99" y="638.99" type="line"/>
      <point x="86.23" y="638.99" type="line"/>
      <point x="85.24" y="529.15" type="line"/>
      <point x="9.16" y="567.9" type="line"/>
      <point x="0.54" y="546.41" type="line"/>
      <point x="78.63" y="503.77" type="line"/>
      <point x="29.35" y="413.94" type="line"/>
    </contour>
  </outline>
</glyph>
<glyph name="plus" format="2">
  <advance width="374.5"/>
  <unicode hex="002B"/>
  <outline>
    <contour>
      <point x="170.95" y="80.19" type="line"/>
      <point x="203.55" y="80.19" type="line"/>
      <point x="203.55" y="276.48" type="line"/>
      <point x="335.23" y="276.48" type="line"/>
      <point x="335.23" y="309.08" type="line"/>
      <point x="203.55" y="309.08" type="line"/>
      <point x="203.55" y="505.37" type="line"/>
      <point x="170.95" y="505.37" type="line"/>
      <point x="170.95" y="309.08" type="line"/>
      <point x="39.27" y="309.08" type="line"/>
      <point x="39.27" y="276.48" type="line"/>
      <point x="170.95" y="276.48" type="line"/>
    </contour>
  </outline>
</glyph>
<glyph name="comma" format="2">
  <advance width="99.9"/>
  <unicode hex="002C"/>
  <outline>
    <contour>
      <point x="30.47" y="40.93" type="line"/>
      <point x="37.38" y="19.04"/>
      <point x="41.02" y="-4.95"/>
      <point x="41.02" y="-21.59" type="curve" smooth="yes"/>
      <point x="41.02" y="-82.24"/>
      <point x="23.93" y="-149.34"/>
      <point x="-18.36" y="-183.77" type="curve"/>
      <point x="3.4399999999999995" y="-201.57" type="line"/>
      <point x="57.26" y="-159.06"/>
      <point x="73.98" y="-78.67"/>
      <point x="73.98" y="-21.14" type="curve" smooth="yes"/>
      <point x="73.98" y="1.2999999999999998"/>
      <point x="70.71" y="24.57"/>
      <point x="63.89" y="47.39" type="curve"/>
    </contour>
  </outline>
</glyph>
<glyph name="hyphen" format="2">
  <advance width="192.33"/>
  <unicode hex="002D"/>
  <outline>
    <contour>
      <point x="15.71" y="253.11" type="line"/>
      <point x="176.62" y="253.11" type="line"/>
      <point x="176.62" y="286.97" type="line"/>
      <point x="15.71" y="286.97" type="line"/>
    </contour>
  </outline>
</glyph>
<glyph name="period" format="2">
  <advance width="99.9"/>
  <unicode hex="002E"/>
  <outline>
    <contour>
      <point x="28.84" y="25.369999999999997" type="curve" smooth="yes"/>
      <point x="28.84" y="3.79"/>
      <point x="32.27" y="-0.63"/>
      <point x="49.95" y="-0.63" type="curve" smooth="yes"/>
      <point x="68.53999999999999" y="-0.63"/>
      <point x="71.06" y="3.79"/>
      <point x="71.06" y="25.369999999999997" type="curve" smooth="yes"/>
      <point x="71.06" y="47.04"/>
      <point x="68.53999999999999" y="51.46"/>
      <point x="49.95" y="51.46" type="curve" smooth="yes"/>
      <point x="31.36" y="51.46"/>
      <point x="28.84" y="47.04"/>
    </contour>
  </outline>
</glyph>
<glyph name="slash" format="2">
  <advance width="208.0"/>
  <unicode hex="002F"/>
  <outline>
    <contour>
      <point x="0.9199999999999999" y="-210.0" type="line"/>
      <point x="31.619999999999997" y="-210.0" type="line"/>
      <point x="207.07999999999998" y="740.0" type="line"/>
      <point x="176.29" y="740.0" type="line"/>
    </contour>
  </outline>
</glyph>
<glyph name="zero" format="2">
  <advance width="265.3"/>
  <unicode hex="0030"/>
  <outline>
    <contour>
      <point x="15.0" y="350.0" type="curve" smooth="yes"/>
      <point x="15.0" y="71.26"/>
      <point x="49.35" y="-10.0"/>
      <point x="132.65" y="-10.0" type="curve" smooth="yes"/>
      <point x="215.68" y="-10.0"/>
      <point x="250.3" y="71.62"/>
      <point x="250.3" y="350.0" type="curve" smooth="yes"/>
      <point x="250.3" y="629.38"/>
      <point x="217.03" y="710.0"/>
      <point x="132.65" y="710.0" type="curve" smooth="yes"/>
      <point x="49.08" y="710.0"/>
      <point x="15.0" y="630.1"/>
    </contour>
    <contour>
      <point x="49.129999999999995" y="348.83" type="curve" smooth="yes"/>
      <point x="49.129999999999995" y="608.61"/>
      <point x="73.97" y="676.86"/>
      <point x="132.65" y="676.86" type="curve" smooth="yes"/>
      <point x="191.33" y="676.86"/>
      <point x="216.17" y="608.7"/>
      <point x="216.17" y="348.83" type="curve" smooth="yes"/>
      <point x="216.17" y="92.84"/>
      <point x="191.6" y="23.14"/>
      <point x="132.65" y="23.14" type="curve" smooth="yes"/>
      <point x="73.7" y="23.14"/>
      <point x="49.129999999999995" y="92.75"/>
    </contour>
  </outline>
</glyph>
<glyph name="one" format="2">
  <advance width="265.3"/>
  <unicode hex="0031"/>
  <outline>
    <contour>
      <point x="19.96" y="0.0" type="line"/>
      <point x="255.05" y="0.0" type="line"/>
      <point x="255.05" y="32.6" type="line"/>
      <point x="159.57" y="32.6" type="line"/>
      <point x="159.57" y="700.0" type="line"/>
      <point x="140.64" y="700.0" type="line"/>
      <point x="5.6" y="586.3" type="line"/>
      <point x="18.95" y="556.91" type="line"/>
      <point x="125.53" y="648.35" type="line"/>
      <point x="125.53" y="32.6" type="line"/>
      <point x="19.96" y="32.6" type="line"/>
    </contour>
  </outline>
</glyph>
<glyph name="two" format="2">
  <advance width="265.3"/>
  <unicode hex="0032"/>
  <outline>
    <contour>
      <point x="26.8" y="28.52" type="curve"/>
      <point x="31.35" y="0.0" type="line"/>
      <point x="246.41" y="0.0" type="line"/>
      <point x="246.41" y="32.6" type="line"/>
      <point x="64.37" y="32.6" type="line"/>
      <point x="177.47" y="300.63"/>
      <point x="218.39" y="429.05"/>
      <point x="218.39" y="534.94" type="curve" smooth="yes"/>
      <point x="218.39" y="661.57"/>
      <point x="179.41" y="710.0"/>
      <point x="115.19" y="710.0" type="curve" smooth="yes"/>
      <point x="78.13" y="710.0"/>
      <point x="48.43" y="696.37"/>
      <point x="17.18" y="656.37" type="curve"/>
      <point x="34.68" y="628.89" type="line"/>
      <point x="58.769999999999996" y="661.36"/>
      <point x="80.5" y="672.91"/>
      <point x="110.96" y="672.91" type="curve" smooth="yes"/>
      <point x="155.43" y="672.91"/>
      <point x="185.17" y="638.44"/>
      <point x="185.17" y="532.1" type="curve" smooth="yes"/>
      <point x="185.17" y="435.15"/>
      <point x="145.65" y="300.13"/>
    </contour>
  </outline>
</glyph>
<glyph name="three" format="2">
  <advance width="265.3"/>
  <unicode hex="0033"/>
  <outline>
    <contour>
      <point x="5.08" y="33.45" type="line"/>
      <point x="29.77" y="3.82"/>
      <point x="60.67" y="-10.0"/>
      <point x="101.83" y="-10.0" type="curve" smooth="yes"/>
      <point x="182.42" y="-10.0"/>
      <point x="229.3" y="67.36"/>
      <point x="229.3" y="198.72" type="curve" smooth="yes"/>
      <point x="229.3" y="286.28"/>
      <point x="205.49" y="346.37"/>
      <point x="158.5" y="370.45" type="curve"/>
      <point x="195.76" y="395.16"/>
      <point x="215.84" y="456.25"/>
      <point x="215.84" y="534.27" type="curve" smooth="yes"/>
      <point x="215.84" y="641.18"/>
      <point x="179.24" y="710.0"/>
      <point x="102.37" y="710.0" type="curve" smooth="yes"/>
      <point x="68.13" y="710.0"/>
      <point x="36.25" y="697.28"/>
      <point x="15.64" y="674.66" type="curve"/>
      <point x="31.69" y="648.88" type="line"/>
      <point x="48.78" y="666.16"/>
      <point x="70.68" y="674.16"/>
      <point x="98.32" y="674.16" type="curve" smooth="yes"/>
      <point x="156.34" y="674.16"/>
      <point x="181.98" y="617.12"/>
      <point x="181.98" y="528.15" type="curve" smooth="yes"/>
      <point x="181.98" y="443.09"/>
      <point x="156.7" y="383.23"/>
      <point x="120.06" y="383.23" type="curve" smooth="yes"/>
      <point x="65.87" y="383.23" type="line"/>
      <point x="65.87" y="351.44" type="line"/>
      <point x="104.68" y="351.44" type="line" smooth="yes"/>
      <point x="164.34" y="351.44"/>
      <point x="195.35" y="299.68"/>
      <point x="195.35" y="200.16" type="curve" smooth="yes"/>
      <point x="195.35" y="90.17"/>
      <point x="159.7" y="24.759999999999998"/>
      <point x="100.22" y="24.759999999999998" type="curve" smooth="yes"/>
      <point x="66.12" y="24.759999999999998"/>
      <point x="44.39" y="35.31"/>
      <point x="24.31" y="58.59" type="curve"/>
    </contour>
  </outline>
</glyph>
<glyph name="four" format="2">
  <advance width="265.3"/>
  <unicode hex="0034"/>
  <outline>
    <contour>
      <point x="18.18" y="181.56" type="line"/>
      <point x="165.52" y="181.56" type="line"/>
      <point x="165.52" y="0.0" type="line"/>
      <point x="199.02" y="0.0" type="line"/>
      <point x="199.02" y="181.56" type="line"/>
      <point x="256.12" y="181.56" type="line"/>
      <point x="256.12" y="214.16" type="line"/>
      <point x="199.02" y="214.16" type="line"/>
      <point x="199.02" y="699.0" type="line"/>
      <point x="166.2" y="703.64" type="line"/>
      <point x="11.9" y="212.24" type="line"/>
    </contour>
    <contour>
      <point x="42.9" y="214.16" type="line"/>
      <point x="166.42" y="611.4" type="line"/>
      <point x="166.42" y="214.16" type="line"/>
    </contour>
  </outline>
</glyph>
<glyph name="five" format="2">
  <advance width="265.3"/>
  <unicode hex="0035"/>
  <outline>
    <contour>
      <point x="20.72" y="37.19" type="line"/>
      <point x="44.88" y="6.64"/>
      <point x="76.78" y="-10.0"/>
      <point x="113.3" y="-10.0" type="curve" smooth="yes"/>
      <point x="193.25" y="-10.0"/>
      <point x="244.39" y="65.26"/>
      <point x="244.39" y="196.14" type="curve" smooth="yes"/>
      <point x="244.39" y="316.68"/>
      <point x="201.04" y="383.23"/>
      <point x="121.41" y="383.86" type="curve" smooth="yes"/>
      <point x="77.48" y="384.04" type="line"/>
      <point x="90.03" y="666.77" type="line"/>
      <point x="224.93" y="666.77" type="line"/>
      <point x="224.93" y="700.0" type="line"/>
      <point x="60.05" y="700.0" type="line"/>
      <point x="43.8" y="363.7" type="line"/>
      <point x="53.62" y="352.52" type="line"/>
      <point x="110.96" y="352.52" type="line" smooth="yes"/>
      <point x="175.34" y="352.52"/>
      <point x="210.17" y="296.48"/>
      <point x="210.17" y="195.42" type="curve" smooth="yes"/>
      <point x="210.17" y="86.98"/>
      <point x="173.15" y="24.58"/>
      <point x="111.05" y="24.58" type="curve" smooth="yes"/>
      <point x="77.51" y="24.58"/>
      <point x="54.97" y="42.59"/>
      <point x="38.25" y="62.69" type="curve"/>
    </contour>
  </outline>
</glyph>
<glyph name="six" format="2">
  <advance width="265.3"/>
  <unicode hex="0036"/>
  <outline>
    <contour>
      <point x="136.65" y="-10.0" type="curve" smooth="yes"/>
      <point x="204.22" y="-10.0"/>
      <point x="248.11" y="73.0"/>
      <point x="248.11" y="205.32" type="curve" smooth="yes"/>
      <point x="248.11" y="329.4"/>
      <point x="209.03" y="402.21"/>
      <point x="143.23" y="402.21" type="curve" smooth="yes"/>
      <point x="95.31" y="402.21"/>
      <point x="52.93" y="356.9"/>
      <point x="44.129999999999995" y="293.95" type="curve"/>
      <point x="48.96" y="255.05" type="line"/>
      <point x="60.96" y="328.29"/>
      <point x="94.53" y="371.96"/>
      <point x="136.65" y="371.96" type="curve" smooth="yes"/>
      <point x="185.14" y="371.96"/>
      <point x="214.07" y="309.65"/>
      <point x="214.07" y="202.05" type="curve" smooth="yes"/>
      <point x="214.07" y="91.1"/>
      <point x="181.68" y="20.869999999999997"/>
      <point x="136.1" y="20.869999999999997" type="curve" smooth="yes"/>
      <point x="77.42" y="20.869999999999997"/>
      <point x="51.85" y="99.3"/>
      <point x="51.85" y="327.6" type="curve" smooth="yes"/>
      <point x="51.85" y="569.46"/>
      <point x="81.43" y="678.05"/>
      <point x="158.87" y="678.05" type="curve" smooth="yes"/>
      <point x="184.69" y="678.05"/>
      <point x="198.95" y="667.23"/>
      <point x="217.59" y="649.68" type="curve"/>
      <point x="234.28" y="676.37" type="line"/>
      <point x="212.56" y="698.37"/>
      <point x="189.06" y="710.0"/>
      <point x="157.81" y="710.0" type="curve" smooth="yes"/>
      <point x="61.05" y="710.0"/>
      <point x="17.09" y="607.76"/>
      <point x="17.09" y="326.82" type="curve" smooth="yes"/>
      <point x="17.09" y="75.98"/>
      <point x="50.88" y="-10.0"/>
    </contour>
  </outline>
</glyph>
<glyph name="seven" format="2">
  <advance width="265.3"/>
  <unicode hex="0037"/>
  <outline>
    <contour>
      <point x="93.47" y="0.0" type="curve"/>
      <point x="128.68" y="0.0" type="line"/>
      <point x="129.59" y="140.84"/>
      <point x="144.5" y="256.06"/>
      <point x="172.94" y="370.94" type="curve" smooth="yes"/>
      <point x="247.49" y="673.01" type="line"/>
      <point x="247.49" y="700.0" type="line"/>
      <point x="16.81" y="700.0" type="line"/>
      <point x="16.81" y="666.95" type="line"/>
      <point x="210.91" y="666.95" type="line"/>
      <point x="150.1" y="422.88" type="line" smooth="yes"/>
      <point x="109.56" y="257.65"/>
      <point x="93.47" y="138.82"/>
    </contour>
  </outline>
</glyph>
<glyph name="eight" format="2">
  <advance width="265.3"/>
  <unicode hex="0038"/>
  <outline>
    <contour>
      <point x="129.11" y="367.13" type="curve"/>
      <point x="148.68" y="351.73" type="line"/>
      <point x="216.95" y="404.27"/>
      <point x="240.03" y="467.0"/>
      <point x="240.03" y="546.92" type="curve" smooth="yes"/>
      <point x="240.03" y="650.28"/>
      <point x="200.33" y="710.0"/>
      <point x="134.1" y="710.0" type="curve" smooth="yes"/>
      <point x="66.52" y="710.0"/>
      <point x="26.73" y="650.1"/>
      <point x="26.73" y="544.94" type="curve" smooth="yes"/>
      <point x="26.73" y="331.3"/>
      <point x="217.89" y="376.72"/>
      <point x="217.89" y="163.89" type="curve" smooth="yes"/>
      <point x="217.89" y="73.46"/>
      <point x="187.05" y="22.240000000000002"/>
      <point x="133.83" y="22.240000000000002" type="curve" smooth="yes"/>
      <point x="78.52" y="22.240000000000002"/>
      <point x="48.41" y="75.55"/>
      <point x="48.41" y="173.16" type="curve" smooth="yes"/>
      <point x="48.41" y="260.57"/>
      <point x="74.97" y="324.16"/>
      <point x="133.55" y="366.99" type="curve"/>
      <point x="112.17" y="385.2" type="line"/>
      <point x="42.9" y="331.01"/>
      <point x="15.09" y="259.09"/>
      <point x="15.09" y="169.35" type="curve" smooth="yes"/>
      <point x="15.09" y="54.54"/>
      <point x="56.88" y="-10.0"/>
      <point x="132.38" y="-10.0" type="curve" smooth="yes"/>
      <point x="207.6" y="-10.0"/>
      <point x="251.21" y="53.63"/>
      <point x="251.21" y="163.61" type="curve" smooth="yes"/>
      <point x="251.21" y="397.98"/>
      <point x="59.69" y="353.31"/>
      <point x="59.69" y="548.76" type="curve" smooth="yes"/>
      <point x="59.69" y="630.55"/>
      <point x="87.8" y="678.31"/>
      <point x="133.47" y="678.31" type="curve" smooth="yes"/>
      <point x="180.59" y="678.31"/>
      <point x="207.79" y="630.55"/>
      <point x="207.79" y="543.22" type="curve" smooth="yes"/>
      <point x="207.79" y="468.64"/>
      <point x="190.69" y="414.06"/>
    </contour>
  </outline>
</glyph>
<glyph name="nine" format="2">
  <advance width="265.3"/>
  <unicode hex="0039"/>
  <outline>
    <contour>
      <point x="111.03" y="-10.0" type="curve" smooth="yes"/>
      <point x="207.79" y="-10.0"/>
      <point x="248.11" y="92.24"/>
      <point x="248.11" y="373.18" type="curve" smooth="yes"/>
      <point x="248.11" y="624.02"/>
      <point x="214.32" y="710.0"/>
      <point x="128.55" y="710.0" type="curve" smooth="yes"/>
      <point x="60.98" y="710.0"/>
      <point x="17.09" y="627.0"/>
      <point x="17.09" y="494.68" type="curve" smooth="yes"/>
      <point x="17.09" y="370.6"/>
      <point x="56.17" y="297.79"/>
      <point x="121.97" y="297.79" type="curve" smooth="yes"/>
      <point x="169.89" y="297.79"/>
      <point x="212.27" y="344.92"/>
      <point x="221.07" y="407.87" type="curve"/>
      <point x="221.7" y="455.87" type="line"/>
      <point x="206.97" y="370.8"/>
      <point x="170.67" y="328.04"/>
      <point x="128.55" y="328.04" type="curve" smooth="yes"/>
      <point x="80.06" y="328.04"/>
      <point x="51.129999999999995" y="390.35"/>
      <point x="51.129999999999995" y="497.95" type="curve" smooth="yes"/>
      <point x="51.129999999999995" y="608.9"/>
      <point x="83.52" y="679.13"/>
      <point x="129.28" y="679.13" type="curve" smooth="yes"/>
      <point x="187.78" y="679.13"/>
      <point x="213.35" y="600.7"/>
      <point x="213.35" y="372.4" type="curve" smooth="yes"/>
      <point x="213.35" y="130.54"/>
      <point x="187.41" y="21.95"/>
      <point x="109.97" y="21.95" type="curve" smooth="yes"/>
      <point x="84.15" y="21.95"/>
      <point x="66.25" y="32.769999999999996"/>
      <point x="47.61" y="50.32" type="curve"/>
      <point x="30.92" y="23.63" type="line"/>
      <point x="52.64" y="1.63"/>
      <point x="79.78" y="-10.0"/>
    </contour>
  </outline>
</glyph>
<glyph name="less" format="2">
  <advance width="374.5"/>
  <unicode hex="003C"/>
  <outline>
    <contour>
      <point x="336.21" y="90.71" type="line"/>
      <point x="336.21" y="125.33" type="line"/>
      <point x="71.25" y="291.98" type="line"/>
      <point x="336.21" y="459.63" type="line"/>
      <point x="336.21" y="492.34" type="line"/>
      <point x="38.29" y="308.19" type="line"/>
      <point x="38.29" y="275.77" type="line"/>
    </contour>
  </outline>
</glyph>
<glyph name="equal" format="2">
  <advance width="372.7"/>
  <unicode hex="003D"/>
  <outline>
    <contour>
      <point x="333.43" y="204.56" type="line"/>
      <point x="39.27" y="204.56" type="line"/>
      <point x="39.27" y="171.96" type="line"/>
      <point x="333.43" y="171.96" type="line"/>
    </contour>
    <contour>
      <point x="333.43" y="413.0" type="line"/>
      <point x="39.27" y="413.0" type="line"/>
      <point x="39.27" y="380.4" type="line"/>
      <point x="333.43" y="380.4" type="line"/>
    </contour>
  </outline>
</glyph>
<glyph name="greater" format="2">
  <advance width="374.5"/>
  <unicode hex="003E"/>
  <outline>
    <contour>
      <point x="336.21" y="274.86" type="line"/>
      <point x="336.21" y="307.28" type="line"/>
      <point x="38.29" y="492.34" type="line"/>
      <point x="38.29" y="457.81" type="line"/>
      <point x="303.25" y="291.07" type="line"/>
      <point x="38.29" y="123.51" type="line"/>
      <point x="38.29" y="90.71" type="line"/>
    </contour>
  </outline>
</glyph>
<glyph name="question" format="2">
  <advance width="241.88"/>
  <unicode hex="003F"/>
  <outline>
    <contour>
      <point x="92.91" y="263.55" type="line"/>
      <point x="124.88" y="263.55" type="line"/>
      <point x="124.88" y="341.1" type="line"/>
      <point x="193.69" y="418.23"/>
      <point x="228.33" y="465.01"/>
      <point x="228.33" y="575.39" type="curve" smooth="yes"/>
      <point x="228.33" y="694.29"/>
      <point x="173.98" y="749.91"/>
      <point x="108.41" y="749.91" type="curve" smooth="yes"/>
      <point x="70.43" y="749.91"/>
      <point x="34.72" y="729.0"/>
      <point x="7.82" y="697.36" type="curve"/>
      <point x="24.41" y="670.59" type="line"/>
      <point x="53.23" y="702.42"/>
      <point x="80.7" y="715.16"/>
      <point x="105.8" y="715.16" type="curve" smooth="yes"/>
      <point x="156.0" y="715.16"/>
      <point x="192.84" y="659.67"/>
      <point x="192.84" y="573.79" type="curve" smooth="yes"/>
      <point x="192.84" y="487.55"/>
      <point x="169.92" y="433.99"/>
      <point x="92.55" y="356.31" type="curve"/>
    </contour>
    <contour>
      <point x="86.92" y="25.1" type="curve" smooth="yes"/>
      <point x="86.92" y="3.52"/>
      <point x="92.08" y="-0.8999999999999999"/>
      <point x="108.94" y="-0.8999999999999999" type="curve" smooth="yes"/>
      <point x="126.53" y="-0.8999999999999999"/>
      <point x="130.05" y="3.52"/>
      <point x="130.05" y="25.1" type="curve" smooth="yes"/>
      <point x="130.05" y="46.769999999999996"/>
      <point x="126.53" y="51.19"/>
      <point x="108.94" y="51.19" type="curve" smooth="yes"/>
      <point x="90.26" y="51.19"/>
      <point x="86.92" y="46.769999999999996"/>
    </contour>
  </outline>
</glyph>
<glyph name="at" format="2">
  <advance width="410.78"/>
  <unicode hex="0040"/>
  <outline>
    <contour>
      <point x="218.44" y="-123.18" type="curve" smooth="yes"/>
      <point x="274.08" y="-123.18"/>
      <point x="321.5" y="-91.98"/>
      <point x="338.84" y="-60.88" type="curve"/>
      <point x="324.12" y="-46.3" type="line"/>
      <point x="303.24" y="-75.86"/>
      <point x="266.62" y="-99.42"/>
      <point x="218.44" y="-99.42" type="curve" smooth="yes"/>
      <point x="98.12" y="-99.42"/>
      <point x="45.2" y="-14.96"/>
      <point x="45.2" y="267.46" type="curve" smooth="yes"/>
      <point x="45.2" y="511.12"/>
      <point x="75.94" y="687.6"/>
      <point x="215.44" y="687.6" type="curve" smooth="yes"/>
      <point x="346.82" y="687.6"/>
      <point x="366.48" y="579.16"/>
      <point x="366.48" y="352.02" type="curve" smooth="yes"/>
      <point x="366.48" y="208.8"/>
      <point x="360.7" y="82.92"/>
      <point x="318.42" y="82.92" type="curve" smooth="yes"/>
      <point x="299.16" y="82.92"/>
      <point x="273.7" y="101.28"/>
      <point x="280.7" y="246.72" type="curve" smooth="yes"/>
      <point x="294.78" y="521.26" type="line"/>
      <point x="266.72" y="533.7"/>
      <point x="243.38" y="541.06"/>
      <point x="221.16" y="541.06" type="curve" smooth="yes"/>
      <point x="136.5" y="541.06"/>
      <point x="115.64" y="411.52"/>
      <point x="115.64" y="268.92" type="curve" smooth="yes"/>
      <point x="115.64" y="105.82"/>
      <point x="140.06" y="57.46"/>
      <point x="185.86" y="57.46" type="curve" smooth="yes"/>
      <point x="238.5" y="57.46"/>
      <point x="244.74" y="114.04"/>
      <point x="254.62" y="191.42" type="curve"/>
      <point x="256.24" y="75.26"/>
      <point x="277.04" y="54.1"/>
      <point x="315.18" y="54.1" type="curve" smooth="yes"/>
      <point x="380.76" y="54.1"/>
      <point x="392.6" y="193.94"/>
      <point x="392.6" y="353.64" type="curve" smooth="yes"/>
      <point x="392.6" y="605.3"/>
      <point x="359.46" y="710.0"/>
      <point x="216.88" y="710.0" type="curve" smooth="yes"/>
      <point x="58.8" y="710.0"/>
      <point x="18.36" y="524.9"/>
      <point x="18.36" y="268.72" type="curve" smooth="yes"/>
      <point x="18.36" y="-28.58"/>
      <point x="81.9" y="-123.18"/>
    </contour>
    <contour>
      <point x="194.16" y="90.96" type="curve" smooth="yes"/>
      <point x="168.96" y="90.96"/>
      <point x="149.86" y="128.26"/>
      <point x="149.86" y="268.02" type="curve" smooth="yes"/>
      <point x="149.86" y="384.5"/>
      <point x="166.22" y="512.88"/>
      <point x="220.52" y="512.88" type="curve" smooth="yes"/>
      <point x="232.8" y="512.88"/>
      <point x="245.26" y="508.88"/>
      <point x="261.82" y="500.6" type="curve"/>
      <point x="255.56" y="405.9" type="line" smooth="yes"/>
      <point x="237.64" y="116.34"/>
      <point x="228.0" y="90.96"/>
    </contour>
  </outline>
</glyph>
<glyph name="A" format="2">
  <advance width="298.13"/>
  <unicode hex="0041"/>
  <anchor x="279.75" y="0.0" name="ogonek"/>
  <anchor x="149.84" y="0.0" name="bottom"/>
  <anchor x="149.84" y="700.0" name="top"/>
  <outline>
    <contour>
      <point x="18.38" y="0.0" type="line"/>
      <point x="52.42" y="0.0" type="line"/>
      <point x="84.9" y="209.3" type="line"/>
      <point x="213.78" y="209.3" type="line"/>
      <point x="245.53" y="0.0" type="line"/>
      <point x="279.75" y="0.0" type="line"/>
      <point x="168.55" y="709.1" type="line"/>
      <point x="130.95" y="709.1" type="line"/>
    </contour>
    <contour>
      <point x="88.98" y="243.69" type="line"/>
      <point x="149.84" y="647.98" type="line"/>
      <point x="209.7" y="243.69" type="line"/>
    </contour>
  </outline>
</glyph>
<glyph name="B" format="2">
  <advance width="285.04"/>
  <unicode hex="0042"/>
  <anchor x="130.28" y="700.0" name="top"/>
  <anchor x="130.28" y="0.0" name="bottom"/>
  <outline>
    <contour>
      <point x="41.11" y="-5.01" type="line"/>
      <point x="71.3" y="-8.91"/>
      <point x="88.86" y="-10.0"/>
      <point x="116.53999999999999" y="-10.0" type="curve" smooth="yes"/>
      <point x="216.86" y="-10.0"/>
      <point x="263.57" y="51.63"/>
      <point x="263.57" y="183.88" type="curve" smooth="yes"/>
      <point x="263.57" y="276.99"/>
      <point x="230.02" y="341.17"/>
      <point x="171.92" y="359.97" type="curve"/>
      <point x="171.92" y="361.06" type="line"/>
      <point x="217.02" y="383.14"/>
      <point x="247.03" y="451.43"/>
      <point x="247.03" y="534.18" type="curve" smooth="yes"/>
      <point x="247.03" y="654.82"/>
      <point x="206.05" y="710.0"/>
      <point x="116.53999999999999" y="710.0" type="curve" smooth="yes"/>
      <point x="94.84" y="710.0"/>
      <point x="69.97" y="707.73"/>
      <point x="41.11" y="703.19" type="curve"/>
    </contour>
    <contour>
      <point x="75.15" y="369.4" type="line"/>
      <point x="75.15" y="674.23" type="line"/>
      <point x="87.52" y="677.23"/>
      <point x="100.8" y="678.23"/>
      <point x="117.81" y="678.23" type="curve" smooth="yes"/>
      <point x="183.13" y="678.23"/>
      <point x="214.88" y="629.11"/>
      <point x="214.88" y="528.87" type="curve" smooth="yes"/>
      <point x="214.88" y="438.09"/>
      <point x="179.58" y="369.4"/>
      <point x="124.91" y="369.4" type="curve" smooth="yes"/>
    </contour>
    <contour>
      <point x="75.15" y="25.59" type="curve"/>
      <point x="75.15" y="337.97" type="line"/>
      <point x="127.37" y="337.97" type="line" smooth="yes"/>
      <point x="192.5" y="337.97"/>
      <point x="229.8" y="277.29"/>
      <point x="229.8" y="185.24" type="curve" smooth="yes"/>
      <point x="229.8" y="70.62"/>
      <point x="196.23" y="22.59"/>
      <point x="115.17" y="22.59" type="curve" smooth="yes"/>
      <point x="105.44" y="22.59"/>
      <point x="95.8" y="23.59"/>
    </contour>
  </outline>
</glyph>
<glyph name="C" format="2">
  <advance width="251.52"/>
  <unicode hex="0043"/>
  <anchor x="157.49" y="700.0" name="top"/>
  <anchor x="157.39" y="0.0" name="bottom"/>
  <outline>
    <contour>
      <point x="26.29" y="337.26" type="curve" smooth="yes"/>
      <point x="26.29" y="57.24"/>
      <point x="80.83" y="-10.0"/>
      <point x="166.76" y="-10.0" type="curve" smooth="yes"/>
      <point x="186.82" y="-10.0"/>
      <point x="219.08" y="-7.37"/>
      <point x="238.88" y="-0.20000000000000018" type="curve"/>
      <point x="232.54" y="32.12" type="line"/>
      <point x="218.0" y="26.759999999999998"/>
      <point x="184.54" y="22.490000000000002"/>
      <point x="170.82" y="22.490000000000002" type="curve" smooth="yes"/>
      <point x="103.63" y="22.490000000000002"/>
      <point x="60.42" y="86.7"/>
      <point x="60.42" y="336.81" type="curve" smooth="yes"/>
      <point x="60.42" y="612.12"/>
      <point x="103.81" y="676.69"/>
      <point x="174.19" y="676.69" type="curve" smooth="yes"/>
      <point x="191.0" y="676.69"/>
      <point x="207.27" y="674.42"/>
      <point x="227.08" y="667.97" type="curve"/>
      <point x="233.87" y="699.2" type="line"/>
      <point x="212.06" y="707.19"/>
      <point x="190.09" y="710.0"/>
      <point x="170.85" y="710.0" type="curve" smooth="yes"/>
      <point x="73.91" y="710.0"/>
      <point x="26.29" y="620.83"/>
    </contour>
  </outline>
</glyph>
<glyph name="D" format="2">
  <advance width="300.32"/>
  <unicode hex="0044"/>
  <anchor x="136.74" y="700.0" name="top"/>
  <outline>
    <contour>
      <point x="123.66" y="-10.0" type="curve" smooth="yes"/>
      <point x="234.42" y="-10.0"/>
      <point x="274.03" y="90.27"/>
      <point x="274.03" y="350.36" type="curve" smooth="yes"/>
      <point x="274.03" y="610.46"/>
      <point x="235.68" y="710.0"/>
      <point x="124.93" y="710.0" type="curve" smooth="yes"/>
      <point x="98.79" y="710.0"/>
      <point x="71.54" y="707.91"/>
      <point x="41.11" y="703.46" type="curve"/>
      <point x="41.11" y="-5.46" type="line"/>
      <point x="63.54" y="-8.82"/>
      <point x="92.42" y="-10.0"/>
    </contour>
    <contour>
      <point x="114.9" y="21.59" type="curve" smooth="yes"/>
      <point x="103.08" y="21.59"/>
      <point x="90.98" y="22.59"/>
      <point x="75.06" y="24.5" type="curve"/>
      <point x="75.06" y="674.32" type="line"/>
      <point x="89.16" y="676.32"/>
      <point x="105.26" y="677.32"/>
      <point x="117.63" y="677.32" type="curve" smooth="yes"/>
      <point x="209.06" y="677.32"/>
      <point x="238.54" y="599.54"/>
      <point x="238.54" y="350.0" type="curve" smooth="yes"/>
      <point x="238.54" y="101.45"/>
      <point x="210.7" y="21.59"/>
    </contour>
  </outline>
</glyph>
<glyph name="E" format="2">
  <advance width="250.07"/>
  <unicode hex="0045"/>
  <anchor x="238.98" y="0.0" name="ogonek"/>
  <anchor x="140.41" y="0.0" name="bottom"/>
  <anchor x="135.86" y="700.0" name="top"/>
  <outline>
    <contour>
      <point x="41.11" y="0.0" type="line"/>
      <point x="238.98" y="0.0" type="line"/>
      <point x="238.98" y="34.22" type="line"/>
      <point x="75.15" y="34.22" type="line"/>
      <point x="75.15" y="345.9" type="line"/>
      <point x="213.17" y="345.9" type="line"/>
      <point x="213.17" y="378.31" type="line"/>
      <point x="75.15" y="378.31" type="line"/>
      <point x="75.15" y="665.33" type="line"/>
      <point x="228.89" y="665.33" type="line"/>
      <point x="228.89" y="700.0" type="line"/>
      <point x="41.11" y="700.0" type="line"/>
    </contour>
  </outline>
</glyph>
<glyph name="F" format="2">
  <advance width="233.52"/>
  <unicode hex="0046"/>
  <outline>
    <contour>
      <point x="41.11" y="0.0" type="line"/>
      <point x="75.24" y="0.0" type="line"/>
      <point x="75.24" y="337.22" type="line"/>
      <point x="195.88" y="337.22" type="line"/>
      <point x="195.88" y="370.98" type="line"/>
      <point x="75.06" y="370.98" type="line"/>
      <point x="75.06" y="665.33" type="line"/>
      <point x="228.8" y="665.33" type="line"/>
      <point x="228.8" y="700.0" type="line"/>
      <point x="41.11" y="700.0" type="line"/>
    </contour>
  </outline>
</glyph>
<glyph name="G" format="2">
  <advance width="275.13"/>
  <unicode hex="0047"/>
  <anchor x="157.94" y="700.0" name="top"/>
  <anchor x="159.76" y="0.0" name="bottom"/>
  <outline>
    <contour>
      <point x="26.29" y="337.44" type="curve" smooth="yes"/>
      <point x="26.29" y="95.63"/>
      <point x="65.54" y="-10.0"/>
      <point x="165.32" y="-10.0" type="curve" smooth="yes"/>
      <point x="197.64" y="-10.0"/>
      <point x="228.43" y="-5.65"/>
      <point x="243.57" y="2.5" type="curve"/>
      <point x="243.57" y="345.84" type="line"/>
      <point x="138.02" y="345.84" type="line"/>
      <point x="138.02" y="313.16" type="line"/>
      <point x="210.88" y="313.16" type="line"/>
      <point x="210.88" y="25.95" type="line"/>
      <point x="200.42" y="22.77"/>
      <point x="186.78" y="21.59"/>
      <point x="166.68" y="21.59" type="curve" smooth="yes"/>
      <point x="91.81" y="21.59"/>
      <point x="60.24" y="116.1"/>
      <point x="60.24" y="336.18" type="curve" smooth="yes"/>
      <point x="60.24" y="580.83"/>
      <point x="92.98" y="676.87"/>
      <point x="174.01" y="676.87" type="curve" smooth="yes"/>
      <point x="191.27" y="676.87"/>
      <point x="209.7" y="674.24"/>
      <point x="229.06" y="667.88" type="curve"/>
      <point x="235.49" y="699.29" type="line"/>
      <point x="216.41" y="706.1"/>
      <point x="192.64" y="710.0"/>
      <point x="171.12" y="710.0" type="curve" smooth="yes"/>
      <point x="67.9" y="710.0"/>
      <point x="26.29" y="602.46"/>
    </contour>
  </outline>
</glyph>
<glyph name="H" format="2">
  <advance width="319.25"/>
  <unicode hex="0048"/>
  <anchor x="159.67" y="700.0" name="top"/>
  <outline>
    <contour>
      <point x="41.11" y="0.0" type="line"/>
      <point x="75.06" y="0.0" type="line"/>
      <point x="75.06" y="285.33" type="line"/>
      <point x="244.19" y="285.33" type="line"/>
      <point x="244.19" y="0.0" type="line"/>
      <point x="278.14" y="0.0" type="line"/>
      <point x="278.14" y="700.0" type="line"/>
      <point x="244.19" y="700.0" type="line"/>
      <point x="244.19" y="319.27" type="line"/>
      <point x="75.06" y="319.27" type="line"/>
      <point x="75.06" y="700.0" type="line"/>
      <point x="41.11" y="700.0" type="line"/>
    </contour>
  </outline>
</glyph>
<glyph name="I" format="2">
  <advance width="116.17"/>
  <unicode hex="0049"/>
  <anchor x="75.06" y="0.0" name="ogonek"/>
  <anchor x="58.13" y="0.0" name="bottom"/>
  <anchor x="58.13" y="700.0" name="top"/>
  <outline>
    <contour>
      <point x="41.11" y="0.0" type="line"/>
      <point x="75.06" y="0.0" type="line"/>
      <point x="75.06" y="700.0" type="line"/>
      <point x="41.11" y="700.0" type="line"/>
    </contour>
  </outline>
</glyph>
<glyph name="J" format="2">
  <advance width="211.81"/>
  <unicode hex="004A"/>
  <anchor x="101.75" y="700.0" name="top"/>
  <outline>
    <contour>
      <point x="4.55" y="-0.5700000000000003" type="line"/>
      <point x="24.72" y="-6.74"/>
      <point x="46.88" y="-10.0"/>
      <point x="66.11" y="-10.0" type="curve" smooth="yes"/>
      <point x="156.56" y="-10.0"/>
      <point x="175.43" y="44.53"/>
      <point x="175.43" y="115.83" type="curve" smooth="yes"/>
      <point x="175.43" y="700.0" type="line"/>
      <point x="17.43" y="700.0" type="line"/>
      <point x="17.43" y="666.33" type="line"/>
      <point x="141.48" y="666.33" type="line"/>
      <point x="141.48" y="119.67" type="line" smooth="yes"/>
      <point x="141.48" y="48.14"/>
      <point x="115.65" y="23.13"/>
      <point x="59.9" y="23.13" type="curve" smooth="yes"/>
      <point x="45.35" y="23.13"/>
      <point x="28.35" y="24.490000000000002"/>
      <point x="11.71" y="29.490000000000002" type="curve"/>
    </contour>
  </outline>
</glyph>
<glyph name="K" format="2">
  <advance width="272.82"/>
  <unicode hex="004B"/>
  <anchor x="137.54" y="700.0" name="top"/>
  <anchor x="151.36" y="0.0" name="bottom"/>
  <outline>
    <contour>
      <point x="260.86" y="-10.0" type="curve" smooth="yes"/>
      <point x="264.4" y="-10.0"/>
      <point x="268.76" y="-10.0"/>
      <point x="275.3" y="-8.0" type="curve"/>
      <point x="275.3" y="31.54" type="line"/>
      <point x="273.12" y="30.72"/>
      <point x="270.12" y="30.72"/>
      <point x="267.94" y="30.72" type="curve" smooth="yes"/>
      <point x="254.12" y="30.72"/>
      <point x="244.32" y="39.18"/>
      <point x="204.14" y="128.84" type="curve" smooth="yes"/>
      <point x="75.24" y="416.82" type="line"/>
      <point x="75.24" y="700.0" type="line"/>
      <point x="41.2" y="700.0" type="line"/>
      <point x="41.2" y="0.0" type="line"/>
      <point x="75.24" y="0.0" type="line"/>
      <point x="75.24" y="345.08" type="line"/>
      <point x="183.54" y="99.32" type="line" smooth="yes"/>
      <point x="216.82" y="23.92"/>
      <point x="234.16" y="-10.0"/>
    </contour>
    <contour>
      <point x="116.1" y="294.94" type="line"/>
      <point x="164.14" y="374.54"/>
      <point x="224.7" y="507.64"/>
      <point x="252.98" y="694.94" type="curve"/>
      <point x="221.74" y="701.82" type="line"/>
      <point x="194.18" y="522.4"/>
      <point x="141.18" y="401.76"/>
      <point x="98.72" y="327.1" type="curve"/>
    </contour>
  </outline>
</glyph>
<glyph name="L" format="2">
  <advance width="220.33"/>
  <unicode hex="004C"/>
  <anchor x="110.21" y="350.0" name="center"/>
  <anchor x="58.13" y="700.0" name="top"/>
  <anchor x="151.29" y="700.0" name="topright"/>
  <anchor x="130.68" y="0.0" name="bottom"/>
  <outline>
    <contour>
      <point x="41.11" y="0.0" type="line"/>
      <point x="215.79" y="0.0" type="line"/>
      <point x="215.79" y="33.31" type="line"/>
      <point x="75.15" y="33.31" type="line"/>
      <point x="75.15" y="700.0" type="line"/>
      <point x="41.11" y="700.0" type="line"/>
    </contour>
  </outline>
</glyph>
<glyph name="M" format="2">
  <advance width="342.71"/>
  <unicode hex="004D"/>
  <outline>
    <contour>
      <point x="41.11" y="0.0" type="line"/>
      <point x="73.44" y="0.0" type="line"/>
      <point x="73.44" y="613.24" type="line"/>
      <point x="160.39" y="263.77" type="line"/>
      <point x="181.23" y="263.77" type="line"/>
      <point x="269.27" y="612.33" type="line"/>
      <point x="269.27" y="0.0" type="line"/>
      <point x="301.6" y="0.0" type="line"/>
      <point x="301.6" y="700.0" type="line"/>
      <point x="266.02" y="700.0" type="line"/>
      <point x="172.08" y="333.01" type="line"/>
      <point x="78.14" y="700.0" type="line"/>
      <point x="41.11" y="700.0" type="line"/>
    </contour>
  </outline>
</glyph>
<glyph name="N" format="2">
  <advance width="316.41"/>
  <unicode hex="004E"/>
  <anchor x="158.66" y="700.0" name="top"/>
  <anchor x="158.66" y="0.0" name="bottom"/>
  <outline>
    <contour>
      <point x="41.11" y="0.0" type="line"/>
      <point x="73.17" y="0.0" type="line"/>
      <point x="73.17" y="602.69" type="line"/>
      <point x="239.72" y="0.0" type="line"/>
      <point x="275.3" y="0.0" type="line"/>
      <point x="275.3" y="700.0" type="line"/>
      <point x="243.24" y="700.0" type="line"/>
      <point x="243.24" y="90.97" type="line"/>
      <point x="76.78" y="700.0" type="line"/>
      <point x="41.11" y="700.0" type="line"/>
    </contour>
  </outline>
</glyph>
<glyph name="O" format="2">
  <advance width="310.16"/>
  <unicode hex="004F"/>
  <anchor x="184.88" y="1.08" name="ogonek"/>
  <anchor x="154.58" y="700.0" name="top"/>
  <anchor x="220.8" y="690.9" name="topright"/>
  <anchor x="154.58" y="0.0" name="bottom"/>
  <outline>
    <contour>
      <point x="154.58" y="21.86" type="curve" smooth="yes"/>
      <point x="88.08" y="21.86"/>
      <point x="60.78" y="87.08"/>
      <point x="60.78" y="349.0" type="curve" smooth="yes"/>
      <point x="60.78" y="612.92"/>
      <point x="88.08" y="678.32"/>
      <point x="154.58" y="678.32" type="curve" smooth="yes"/>
      <point x="222.08" y="678.32"/>
      <point x="249.38" y="613.1"/>
      <point x="249.38" y="349.18" type="curve" smooth="yes"/>
      <point x="249.38" y="87.26"/>
      <point x="222.08" y="21.86"/>
    </contour>
    <contour>
      <point x="154.58" y="-10.0" type="curve" smooth="yes"/>
      <point x="245.44" y="-10.0"/>
      <point x="283.78" y="62.44"/>
      <point x="283.78" y="349.36" type="curve" smooth="yes"/>
      <point x="283.78" y="637.74"/>
      <point x="245.62" y="710.0"/>
      <point x="154.58" y="710.0" type="curve" smooth="yes"/>
      <point x="64.54" y="710.0"/>
      <point x="26.38" y="637.56"/>
      <point x="26.38" y="349.0" type="curve" smooth="yes"/>
      <point x="26.38" y="62.26"/>
      <point x="64.54" y="-10.0"/>
    </contour>
  </outline>
</glyph>
<glyph name="P" format="2">
  <advance width="264.92"/>
  <unicode hex="0050"/>
  <outline>
    <contour>
      <point x="41.11" y="0.0" type="line"/>
      <point x="75.15" y="0.0" type="line"/>
      <point x="75.15" y="282.58" type="line"/>
      <point x="86.77" y="281.31"/>
      <point x="100.78" y="281.31"/>
      <point x="117.32" y="281.31" type="curve" smooth="yes"/>
      <point x="204.74" y="281.31"/>
      <point x="249.55" y="346.28"/>
      <point x="249.55" y="505.34" type="curve" smooth="yes"/>
      <point x="249.55" y="659.13"/>
      <point x="217.39" y="710.0"/>
      <point x="116.45" y="710.0" type="curve" smooth="yes"/>
      <point x="96.91" y="710.0"/>
      <point x="71.95" y="708.09"/>
      <point x="41.11" y="703.82" type="curve"/>
    </contour>
    <contour>
      <point x="75.24" y="674.59" type="line"/>
      <point x="90.78999999999999" y="677.59"/>
      <point x="105.34" y="678.5"/>
      <point x="118.44" y="678.5" type="curve" smooth="yes"/>
      <point x="197.59" y="678.5"/>
      <point x="215.51" y="629.48"/>
      <point x="215.51" y="503.69" type="curve" smooth="yes"/>
      <point x="215.51" y="366.47"/>
      <point x="182.03" y="314.36"/>
      <point x="115.26" y="314.36" type="curve" smooth="yes"/>
      <point x="99.89" y="314.36"/>
      <point x="87.61" y="314.36"/>
      <point x="75.24" y="315.45" type="curve"/>
    </contour>
  </outline>
</glyph>
<glyph name="Q" format="2">
  <advance width="310.16"/>
  <unicode hex="0051"/>
  <outline>
    <contour>
      <point x="179.68" y="8.86" type="curve"/>
      <point x="151.96" y="1.26" type="line"/>
      <point x="167.78" y="-155.96"/>
      <point x="185.86" y="-205.5"/>
      <point x="232.64" y="-205.5" type="curve" smooth="yes"/>
      <point x="246.72" y="-205.5"/>
      <point x="263.62" y="-200.5"/>
      <point x="282.44" y="-193.5" type="curve"/>
      <point x="275.36" y="-161.92000000000002" type="line"/>
      <point x="261.26" y="-168.56"/>
      <point x="248.62" y="-172.56"/>
      <point x="238.8" y="-172.56" type="curve" smooth="yes"/>
      <point x="207.24" y="-172.56"/>
      <point x="194.96" y="-131.9"/>
    </contour>
    <component base="O"/>
  </outline>
</glyph>
<glyph name="R" format="2">
  <advance width="279.56"/>
  <unicode hex="0052"/>
  <anchor x="136.82" y="700.0" name="top"/>
  <anchor x="144.1" y="0.0" name="bottom"/>
  <outline>
    <contour>
      <point x="260.52" y="-10.0" type="curve" smooth="yes"/>
      <point x="268.5" y="-10.0"/>
      <point x="274.4" y="-7.0"/>
      <point x="278.3" y="-5.0" type="curve"/>
      <point x="274.48" y="28.38" type="line"/>
      <point x="271.84" y="27.56"/>
      <point x="266.3" y="26.74"/>
      <point x="264.48" y="26.74" type="curve" smooth="yes"/>
      <point x="247.68" y="26.74"/>
      <point x="234.96" y="41.56"/>
      <point x="171.46" y="308.14" type="curve"/>
      <point x="222.0" y="331.04"/>
      <point x="249.46" y="395.92"/>
      <point x="249.46" y="513.58" type="curve" smooth="yes"/>
      <point x="249.46" y="661.3"/>
      <point x="207.4" y="710.0"/>
      <point x="117.8" y="710.0" type="curve" smooth="yes"/>
      <point x="93.4" y="710.0"/>
      <point x="68.62" y="707.82"/>
      <point x="41.2" y="703.64" type="curve"/>
      <point x="41.2" y="0.0" type="line"/>
      <point x="74.88" y="0.0" type="line"/>
      <point x="74.88" y="295.46" type="line"/>
      <point x="83.98" y="294.46"/>
      <point x="97.9" y="294.46"/>
      <point x="112.46" y="294.46" type="curve" smooth="yes"/>
      <point x="122.38" y="294.46"/>
      <point x="131.84" y="295.46"/>
      <point x="140.94" y="297.28" type="curve"/>
      <point x="211.68" y="4.1"/>
      <point x="220.64" y="-10.0"/>
    </contour>
    <contour>
      <point x="114.9" y="327.24" type="curve" smooth="yes"/>
      <point x="99.62" y="327.24"/>
      <point x="87.34" y="327.42"/>
      <point x="74.88" y="328.42" type="curve"/>
      <point x="74.88" y="674.5" type="line"/>
      <point x="90.52" y="677.5"/>
      <point x="104.98" y="678.5"/>
      <point x="118.08" y="678.5" type="curve" smooth="yes"/>
      <point x="190.76" y="678.5"/>
      <point x="215.24" y="629.48"/>
      <point x="215.24" y="508.24" type="curve" smooth="yes"/>
      <point x="215.24" y="376.06"/>
      <point x="178.66" y="327.24"/>
    </contour>
  </outline>
</glyph>
<glyph name="S" format="2">
  <advance width="252.94"/>
  <unicode hex="0053"/>
  <anchor x="135.57" y="700.0" name="top"/>
  <anchor x="125.84" y="0.0" name="bottom"/>
  <outline>
    <contour>
      <point x="213.82999999999998" y="694.02" type="line"/>
      <point x="196.84" y="702.83"/>
      <point x="169.89" y="710.0"/>
      <point x="139.92" y="710.0" type="curve" smooth="yes"/>
      <point x="73.48" y="710.0"/>
      <point x="27.02" y="655.97"/>
      <point x="27.02" y="570.25" type="curve" smooth="yes"/>
      <point x="27.02" y="476.9"/>
      <point x="69.92" y="407.98"/>
      <point x="112.91" y="341.68" type="curve" smooth="yes"/>
      <point x="155.26" y="276.02"/>
      <point x="198.61" y="211.43"/>
      <point x="198.61" y="127.93" type="curve" smooth="yes"/>
      <point x="198.61" y="53.7"/>
      <point x="149.4" y="23.32"/>
      <point x="104.85" y="23.32" type="curve" smooth="yes"/>
      <point x="78.13" y="23.32"/>
      <point x="54.42" y="26.95"/>
      <point x="27.63" y="38.76" type="curve"/>
      <point x="17.29" y="8.34" type="line"/>
      <point x="37.52" y="-2.73"/>
      <point x="71.95" y="-10.0"/>
      <point x="105.66" y="-10.0" type="curve" smooth="yes"/>
      <point x="170.84" y="-10.0"/>
      <point x="232.29" y="36.769999999999996"/>
      <point x="232.29" y="131.29" type="curve" smooth="yes"/>
      <point x="232.29" y="226.27"/>
      <point x="186.85" y="293.74"/>
      <point x="143.5" y="360.68" type="curve" smooth="yes"/>
      <point x="101.69" y="425.44"/>
      <point x="61.06" y="486.3"/>
      <point x="61.06" y="569.8" type="curve" smooth="yes"/>
      <point x="61.06" y="637.02"/>
      <point x="93.71" y="677.96"/>
      <point x="141.81" y="677.96" type="curve" smooth="yes"/>
      <point x="168.9" y="677.96"/>
      <point x="183.97" y="673.96"/>
      <point x="203.4" y="665.15" type="curve"/>
    </contour>
  </outline>
</glyph>
<glyph name="T" format="2">
  <advance width="248.58"/>
  <unicode hex="0054"/>
  <anchor x="124.29" y="700.0" name="top"/>
  <anchor x="124.29" y="0.0" name="bottom"/>
  <outline>
    <contour>
      <point x="243.13" y="666.33" type="line"/>
      <point x="243.13" y="700.0" type="line"/>
      <point x="5.45" y="700.0" type="line"/>
      <point x="5.45" y="666.33" type="line"/>
      <point x="107.36" y="666.33" type="line"/>
      <point x="107.36" y="0.0" type="line"/>
      <point x="141.31" y="0.0" type="line"/>
      <point x="141.31" y="666.33" type="line"/>
    </contour>
  </outline>
</glyph>
<glyph name="U" format="2">
  <advance width="308.88"/>
  <unicode hex="0055"/>
  <anchor x="181.61" y="0.18" name="ogonek"/>
  <anchor x="154.94" y="700.0" name="top"/>
  <anchor x="272.5" y="700.0" name="topright"/>
  <anchor x="154.94" y="0.0" name="bottom"/>
  <outline>
    <contour>
      <point x="36.38" y="142.12" type="line"/>
      <point x="36.38" y="18.88"/>
      <point x="94.46" y="-10.0"/>
      <point x="154.76" y="-10.0" type="curve" smooth="yes"/>
      <point x="215.69" y="-10.0"/>
      <point x="272.5" y="18.88"/>
      <point x="272.5" y="142.12" type="curve" smooth="yes"/>
      <point x="272.5" y="700.0" type="line"/>
      <point x="238.37" y="700.0" type="line"/>
      <point x="238.37" y="139.87" type="line" smooth="yes"/>
      <point x="238.37" y="41.15"/>
      <point x="196.15" y="23.14"/>
      <point x="154.76" y="23.14" type="curve" smooth="yes"/>
      <point x="113.46" y="23.14"/>
      <point x="70.33" y="41.15"/>
      <point x="70.33" y="139.87" type="curve" smooth="yes"/>
      <point x="70.33" y="700.0" type="line"/>
      <point x="36.38" y="700.0" type="line"/>
    </contour>
  </outline>
</glyph>
<glyph name="V" format="2">
  <advance width="274.92"/>
  <unicode hex="0056"/>
  <outline>
    <contour>
      <point x="117.46" y="0.0" type="line"/>
      <point x="158.18" y="0.0" type="line"/>
      <point x="266.0" y="699.18" type="line"/>
      <point x="231.88" y="701.82" type="line"/>
      <point x="137.82" y="65.7" type="line"/>
      <point x="43.04" y="701.82" type="line"/>
      <point x="8.92" y="699.18" type="line"/>
    </contour>
  </outline>
</glyph>
<glyph name="W" format="2">
  <advance width="376.52"/>
  <unicode hex="0057"/>
  <anchor x="188.26" y="700.0" name="top"/>
  <anchor x="188.26" y="0.0" name="bottom"/>
  <outline>
    <contour>
      <point x="298.7" y="0.0" type="line"/>
      <point x="368.42" y="699.18" type="line"/>
      <point x="332.76" y="701.82" type="line"/>
      <point x="276.78" y="70.3" type="line"/>
      <point x="205.76" y="694.96" type="line"/>
      <point x="171.48" y="694.96" type="line"/>
      <point x="100.46" y="70.3" type="line"/>
      <point x="43.76" y="701.82" type="line"/>
      <point x="8.1" y="699.18" type="line"/>
      <point x="78.64" y="0.0" type="line"/>
      <point x="116.4" y="0.0" type="line"/>
      <point x="187.08" y="617.04" type="line"/>
      <point x="258.22" y="0.0" type="line"/>
    </contour>
  </outline>
</glyph>
<glyph name="X" format="2">
  <advance width="284.72"/>
  <unicode hex="0058"/>
  <outline>
    <contour>
      <point x="22.3" y="1.82" type="line"/>
      <point x="57.58" y="-3.64" type="line"/>
      <point x="140.63" y="322.81" type="line"/>
      <point x="226.14" y="-3.64" type="line"/>
      <point x="261.51" y="1.82" type="line"/>
      <point x="164.06" y="357.73" type="line"/>
      <point x="255.32999999999998" y="697.27" type="line"/>
      <point x="220.41" y="702.73" type="line"/>
      <point x="143.27" y="397.84" type="line"/>
      <point x="63.4" y="702.73" type="line"/>
      <point x="28.57" y="697.27" type="line"/>
      <point x="120.66" y="360.28" type="line"/>
    </contour>
  </outline>
</glyph>
<glyph name="Y" format="2">
  <advance width="267.64"/>
  <unicode hex="0059"/>
  <anchor x="134.73" y="700.0" name="top"/>
  <anchor x="133.82" y="0.0" name="bottom"/>
  <outline>
    <contour>
      <point x="117.71" y="0.0" type="line"/>
      <point x="151.66" y="0.0" type="line"/>
      <point x="151.66" y="305.37" type="line"/>
      <point x="255.99" y="697.27" type="line"/>
      <point x="221.52" y="702.73" type="line"/>
      <point x="134.73" y="343.1" type="line"/>
      <point x="42.48" y="702.73" type="line"/>
      <point x="8.01" y="697.27" type="line"/>
      <point x="117.71" y="305.37" type="line"/>
    </contour>
  </outline>
</glyph>
<glyph name="Z" format="2">
  <advance width="263.5"/>
  <unicode hex="005A"/>
  <anchor x="139.94" y="350.0" name="center"/>
  <anchor x="139.94" y="0.0" name="bottom"/>
  <anchor x="137.84" y="700.0" name="top"/>
  <outline>
    <contour>
      <point x="14.64" y="0.0" type="line"/>
      <point x="255.14" y="0.0" type="line"/>
      <point x="255.14" y="32.86" type="line"/>
      <point x="49.42" y="32.86" type="line"/>
      <point x="49.42" y="34.68" type="line"/>
      <point x="241.86" y="670.24" type="line"/>
      <point x="241.86" y="700.0" type="line"/>
      <point x="32.3" y="700.0" type="line"/>
      <point x="32.3" y="667.32" type="line"/>
      <point x="206.54" y="667.32" type="line"/>
      <point x="206.54" y="665.32" type="line"/>
      <point x="14.64" y="29.939999999999998" type="line"/>
    </contour>
  </outline>
</glyph>
<glyph name="bracketleft" format="2">
  <advance width="177.12"/>
  <unicode hex="005B"/>
  <outline>
    <contour>
      <point x="76.93" y="-178.48" type="line"/>
      <point x="76.93" y="708.48" type="line"/>
      <point x="170.94" y="708.48" type="line"/>
      <point x="170.94" y="740.0" type="line"/>
      <point x="46.76" y="740.0" type="line"/>
      <point x="46.76" y="-210.0" type="line"/>
      <point x="170.94" y="-210.0" type="line"/>
      <point x="170.94" y="-178.48" type="line"/>
    </contour>
  </outline>
</glyph>
<glyph name="backslash" format="2">
  <advance width="208.0"/>
  <unicode hex="005C"/>
  <outline>
    <contour>
      <point x="31.71" y="740.0" type="line"/>
      <point x="0.9199999999999999" y="740.0" type="line"/>
      <point x="176.38" y="-210.0" type="line"/>
      <point x="207.07999999999998" y="-210.0" type="line"/>
    </contour>
  </outline>
</glyph>
<glyph name="bracketright" format="2">
  <advance width="177.12"/>
  <unicode hex="005D"/>
  <outline>
    <contour>
      <point x="6.18" y="-178.48" type="line"/>
      <point x="6.18" y="-210.0" type="line"/>
      <point x="130.36" y="-210.0" type="line"/>
      <point x="130.36" y="740.0" type="line"/>
      <point x="6.18" y="740.0" type="line"/>
      <point x="6.18" y="708.48" type="line"/>
      <point x="100.19" y="708.48" type="line"/>
      <point x="100.19" y="-178.48" type="line"/>
    </contour>
  </outline>
</glyph>
<glyph name="asciicircum" format="2">
  <advance width="374.5"/>
  <unicode hex="005E"/>
  <outline>
    <contour>
      <point x="34.62" y="275.67" type="line"/>
      <point x="64.98" y="275.67" type="line"/>
      <point x="187.25" y="672.52" type="line"/>
      <point x="309.61" y="275.67" type="line"/>
      <point x="339.88" y="275.67" type="line"/>
      <point x="204.36" y="709.1" type="line"/>
      <point x="170.14" y="709.1" type="line"/>
    </contour>
  </outline>
</glyph>
<glyph name="underscore" format="2">
  <advance width="609.62"/>
  <unicode hex="005F"/>
  <outline>
    <contour>
      <point x="1.7999999999999998" y="-142.57" type="line"/>
      <point x="607.82" y="-142.57" type="line"/>
      <point x="607.82" y="-109.25" type="line"/>
      <point x="1.7999999999999998" y="-109.25" type="line"/>
    </contour>
  </outline>
</glyph>
<glyph name="a" format="2">
  <advance width="265.12"/>
  <unicode hex="0061"/>
  <anchor x="268.4" y="0.43999999999999995" name="ogonek"/>
  <anchor x="119.82" y="0.0" name="bottom"/>
  <anchor x="121.74" y="531.8" name="top"/>
  <outline>
    <contour>
      <point x="8.64" y="111.22" type="curve" smooth="yes"/>
      <point x="8.64" y="35.32"/>
      <point x="41.46" y="-10.0"/>
      <point x="98.06" y="-10.0" type="curve" smooth="yes"/>
      <point x="132.96" y="-10.0"/>
      <point x="160.06" y="9.1"/>
      <point x="183.6" y="35.28" type="curve"/>
      <point x="185.58" y="8.28"/>
      <point x="201.84" y="-10.0"/>
      <point x="228.54" y="-10.0" type="curve" smooth="yes"/>
      <point x="241.78" y="-10.0"/>
      <point x="254.04" y="-7.1"/>
      <point x="268.4" y="0.43999999999999995" type="curve"/>
      <point x="261.04" y="30.58" type="line"/>
      <point x="250.76" y="25.759999999999998"/>
      <point x="242.12" y="23.939999999999998"/>
      <point x="234.3" y="23.939999999999998" type="curve" smooth="yes"/>
      <point x="223.02" y="23.939999999999998"/>
      <point x="216.2" y="31.58"/>
      <point x="216.2" y="55.4" type="curve" smooth="yes"/>
      <point x="216.2" y="415.06" type="line" smooth="yes"/>
      <point x="216.2" y="495.1"/>
      <point x="187.86" y="541.8"/>
      <point x="116.94" y="541.8" type="curve" smooth="yes"/>
      <point x="93.78" y="541.8"/>
      <point x="64.82" y="536.9"/>
      <point x="33.56" y="524.18" type="curve"/>
      <point x="43.26" y="493.5" type="line"/>
      <point x="72.42" y="504.22"/>
      <point x="96.14" y="507.04"/>
      <point x="114.78" y="507.04" type="curve" smooth="yes"/>
      <point x="161.26" y="507.04"/>
      <point x="182.34" y="473.38"/>
      <point x="182.34" y="414.34" type="curve" smooth="yes"/>
      <point x="182.34" y="284.12" type="line"/>
      <point x="85.2" y="259.02"/>
      <point x="8.64" y="221.2"/>
    </contour>
    <contour>
      <point x="42.32" y="117.3" type="curve" smooth="yes"/>
      <point x="42.32" y="205.8"/>
      <point x="113.84" y="238.02"/>
      <point x="182.34" y="255.4" type="curve"/>
      <point x="182.34" y="71.48" type="line"/>
      <point x="167.42" y="48.28"/>
      <point x="139.76" y="20.7"/>
      <point x="105.64" y="20.7" type="curve" smooth="yes"/>
      <point x="66.52" y="20.7"/>
      <point x="42.32" y="55.36"/>
    </contour>
  </outline>
</glyph>
<glyph name="b" format="2">
  <advance width="270.31"/>
  <unicode hex="0062"/>
  <outline>
    <contour>
      <point x="41.75" y="5.35" type="line"/>
      <point x="73.46" y="-5.28"/>
      <point x="96.96" y="-10.0"/>
      <point x="118.84" y="-10.0" type="curve" smooth="yes"/>
      <point x="209.59" y="-10.0"/>
      <point x="243.02" y="67.36"/>
      <point x="243.02" y="277.62" type="curve" smooth="yes"/>
      <point x="243.02" y="449.88"/>
      <point x="209.12" y="541.8"/>
      <point x="143.88" y="541.8" type="curve" smooth="yes"/>
      <point x="121.06" y="541.8"/>
      <point x="91.88" y="532.62"/>
      <point x="75.7" y="521.35" type="curve"/>
      <point x="75.7" y="740.0" type="line"/>
      <point x="41.75" y="740.0" type="line"/>
    </contour>
    <contour>
      <point x="75.7" y="26.16" type="curve"/>
      <point x="75.7" y="489.56" type="line"/>
      <point x="98.81" y="505.39"/>
      <point x="112.73" y="510.12"/>
      <point x="134.02" y="510.12" type="curve" smooth="yes"/>
      <point x="182.42" y="510.12"/>
      <point x="208.08" y="429.33"/>
      <point x="208.08" y="275.73" type="curve" smooth="yes"/>
      <point x="208.08" y="81.38"/>
      <point x="185.15" y="18.61"/>
      <point x="115.73" y="18.61" type="curve" smooth="yes"/>
      <point x="104.53999999999999" y="18.61"/>
      <point x="96.08" y="20.52"/>
    </contour>
  </outline>
</glyph>
<glyph name="c" format="2">
  <advance width="218.32"/>
  <unicode hex="0063"/>
  <anchor x="135.28" y="531.8" name="top"/>
  <anchor x="136.82" y="0.0" name="bottom"/>
  <outline>
    <contour>
      <point x="27.38" y="261.44" type="curve" smooth="yes"/>
      <point x="27.38" y="68.62"/>
      <point x="63.26" y="-10.0"/>
      <point x="142.66" y="-10.0" type="curve" smooth="yes"/>
      <point x="162.54" y="-10.0"/>
      <point x="189.96" y="-6.28"/>
      <point x="204.22" y="-2.2" type="curve"/>
      <point x="197.16" y="28.58" type="line"/>
      <point x="184.44" y="26.22"/>
      <point x="160.16" y="23.22"/>
      <point x="146.8" y="23.22" type="curve" smooth="yes"/>
      <point x="90.42" y="23.22"/>
      <point x="61.96" y="89.64"/>
      <point x="61.96" y="256.52" type="curve" smooth="yes"/>
      <point x="61.96" y="438.42"/>
      <point x="87.96" y="508.58"/>
      <point x="150.98" y="508.58" type="curve" smooth="yes"/>
      <point x="166.34" y="508.58"/>
      <point x="178.7" y="506.58"/>
      <point x="192.7" y="502.58" type="curve"/>
      <point x="199.04" y="533.9" type="line"/>
      <point x="183.32" y="539.44"/>
      <point x="165.08" y="541.8"/>
      <point x="150.02" y="541.8" type="curve" smooth="yes"/>
      <point x="62.8" y="541.8"/>
      <point x="27.38" y="462.18"/>
    </contour>
  </outline>
</glyph>
<glyph name="d" format="2">
  <advance width="270.4"/>
  <unicode hex="0064"/>
  <anchor x="135.02" y="275.0" name="center"/>
  <anchor x="138.21" y="740.0" name="top"/>
  <anchor x="288.68" y="740.0" name="topright"/>
  <anchor x="135.02" y="0.0" name="bottom"/>
  <outline>
    <contour>
      <point x="199.78" y="0.0" type="line"/>
      <point x="228.65" y="0.0" type="line"/>
      <point x="228.65" y="740.0" type="line"/>
      <point x="194.61" y="740.0" type="line"/>
      <point x="194.61" y="534.07" type="line"/>
      <point x="176.42" y="539.8"/>
      <point x="162.24" y="541.8"/>
      <point x="147.6" y="541.8" type="curve" smooth="yes"/>
      <point x="61.08" y="541.8"/>
      <point x="27.29" y="462.28"/>
      <point x="27.29" y="254.99" type="curve" smooth="yes"/>
      <point x="27.29" y="80.18"/>
      <point x="62.28" y="-10.0"/>
      <point x="129.53" y="-10.0" type="curve" smooth="yes"/>
      <point x="153.16" y="-10.0"/>
      <point x="177.88" y="-2.64"/>
      <point x="195.06" y="10.63" type="curve"/>
    </contour>
    <contour>
      <point x="194.61" y="41.7" type="line"/>
      <point x="171.77" y="26.14"/>
      <point x="157.67" y="21.41"/>
      <point x="135.56" y="21.41" type="curve" smooth="yes"/>
      <point x="87.98" y="21.41"/>
      <point x="62.32" y="101.74"/>
      <point x="62.32" y="257.6" type="curve" smooth="yes"/>
      <point x="62.32" y="450.42"/>
      <point x="85.25" y="512.92"/>
      <point x="154.58" y="512.92" type="curve" smooth="yes"/>
      <point x="165.86" y="512.92"/>
      <point x="175.14" y="511.01"/>
      <point x="194.61" y="505.1" type="curve"/>
    </contour>
  </outline>
</glyph>
<glyph name="e" format="2">
  <advance width="257.76"/>
  <unicode hex="0065"/>
  <anchor x="203.22" y="1.08" name="ogonek"/>
  <anchor x="140.48" y="0.0" name="bottom"/>
  <anchor x="137.38" y="531.8" name="top"/>
  <outline>
    <contour>
      <point x="142.48" y="-10.0" type="curve" smooth="yes"/>
      <point x="168.16" y="-10.0"/>
      <point x="196.68" y="-4.46"/>
      <point x="225.56" y="7.98" type="curve"/>
      <point x="218.94" y="38.22" type="line"/>
      <point x="191.04" y="27.22"/>
      <point x="168.42" y="22.68"/>
      <point x="147.8" y="22.68" type="curve" smooth="yes"/>
      <point x="84.52" y="22.68"/>
      <point x="61.78" y="72.44"/>
      <point x="61.78" y="257.44" type="curve" smooth="yes"/>
      <point x="61.78" y="264.08"/>
      <point x="61.78" y="271.54"/>
      <point x="61.78" y="278.18" type="curve"/>
      <point x="141.0" y="278.36"/>
      <point x="199.22" y="287.72"/>
      <point x="234.84" y="293.9" type="curve"/>
      <point x="234.84" y="298.52"/>
      <point x="235.84" y="315.94"/>
      <point x="235.84" y="322.66" type="curve" smooth="yes"/>
      <point x="235.84" y="480.54"/>
      <point x="204.68" y="541.8"/>
      <point x="142.38" y="541.8" type="curve" smooth="yes"/>
      <point x="72.36" y="541.8"/>
      <point x="27.38" y="483.28"/>
      <point x="27.38" y="251.62" type="curve" smooth="yes"/>
      <point x="27.38" y="56.98"/>
      <point x="58.8" y="-10.0"/>
    </contour>
    <contour>
      <point x="61.78" y="306.26" type="curve"/>
      <point x="68.24" y="476.62"/>
      <point x="99.53999999999999" y="512.46"/>
      <point x="141.48" y="512.46" type="curve" smooth="yes"/>
      <point x="181.6" y="512.46"/>
      <point x="202.16" y="463.88"/>
      <point x="202.16" y="318.18" type="curve"/>
      <point x="182.06" y="312.72"/>
      <point x="116.1" y="306.26"/>
    </contour>
  </outline>
</glyph>
<glyph name="f" format="2">
  <advance width="197.83"/>
  <unicode hex="0066"/>
  <outline>
    <contour>
      <point x="68.93" y="0.0" type="line"/>
      <point x="102.52" y="0.0" type="line"/>
      <point x="102.52" y="457.26" type="line"/>
      <point x="184.83" y="457.26" type="line"/>
      <point x="184.83" y="488.05" type="line"/>
      <point x="102.61" y="488.05" type="line"/>
      <point x="102.61" y="517.43" type="line" smooth="yes"/>
      <point x="102.61" y="658.9"/>
      <point x="128.99" y="718.22"/>
      <point x="188.21" y="718.22" type="curve" smooth="yes"/>
      <point x="200.85" y="718.22"/>
      <point x="213.49" y="717.13"/>
      <point x="228.76" y="712.04" type="curve"/>
      <point x="234.83" y="741.02" type="line"/>
      <point x="215.76" y="747.46"/>
      <point x="199.14" y="750.0"/>
      <point x="183.62" y="750.0" type="curve" smooth="yes"/>
      <point x="105.46" y="750.0"/>
      <point x="68.93" y="679.64"/>
      <point x="68.93" y="517.61" type="curve" smooth="yes"/>
      <point x="68.93" y="488.05" type="line"/>
      <point x="10.46" y="481.96" type="line"/>
      <point x="10.46" y="457.26" type="line"/>
      <point x="68.93" y="457.26" type="line"/>
    </contour>
  </outline>
</glyph>
<glyph name="g" format="2">
  <advance width="270.02"/>
  <unicode hex="0067"/>
  <anchor x="139.68" y="531.8" name="top"/>
  <anchor x="144.3" y="-210.0" name="bottom"/>
  <outline>
    <contour>
      <point x="144.42" y="-220.0" type="curve" smooth="yes"/>
      <point x="219.88" y="-220.0"/>
      <point x="263.94" y="-164.02"/>
      <point x="263.94" y="-72.6" type="curve" smooth="yes"/>
      <point x="263.94" y="11.379999999999999"/>
      <point x="226.68" y="59.18"/>
      <point x="158.88" y="59.18" type="curve" smooth="yes"/>
      <point x="122.2" y="59.18" type="line" smooth="yes"/>
      <point x="78.9" y="59.18"/>
      <point x="66.82" y="85.3"/>
      <point x="66.82" y="119.68" type="curve" smooth="yes"/>
      <point x="66.82" y="156.52"/>
      <point x="80.74" y="186.74"/>
      <point x="107.84" y="210.48" type="curve"/>
      <point x="89.28" y="223.0" type="line"/>
      <point x="55.46" y="193.54"/>
      <point x="37.2" y="156.26"/>
      <point x="37.2" y="113.82" type="curve" smooth="yes"/>
      <point x="37.2" y="62.02"/>
      <point x="58.16" y="26.32"/>
      <point x="119.14" y="26.32" type="curve" smooth="yes"/>
      <point x="156.1" y="26.32" type="line" smooth="yes"/>
      <point x="203.68" y="26.32"/>
      <point x="231.34" y="-11.44"/>
      <point x="231.34" y="-74.4" type="curve" smooth="yes"/>
      <point x="231.34" y="-146.64"/>
      <point x="201.14" y="-188.4"/>
      <point x="145.68" y="-188.4" type="curve" smooth="yes"/>
      <point x="87.56" y="-188.4"/>
      <point x="57.46" y="-149.64"/>
      <point x="57.46" y="-74.22" type="curve" smooth="yes"/>
      <point x="57.46" y="-25.64"/>
      <point x="68.82" y="10.3"/>
      <point x="94.1" y="39.96" type="curve"/>
      <point x="71.82" y="49.66" type="line"/>
      <point x="39.92" y="15.46"/>
      <point x="26.48" y="-24.18"/>
      <point x="26.48" y="-78.54" type="curve" smooth="yes"/>
      <point x="26.48" y="-170.36"/>
      <point x="68.18" y="-220.0"/>
    </contour>
    <contour>
      <point x="136.48" y="199.22" type="curve" smooth="yes"/>
      <point x="198.88" y="199.22"/>
      <point x="230.76" y="256.3"/>
      <point x="230.76" y="370.1" type="curve" smooth="yes"/>
      <point x="230.76" y="483.9"/>
      <point x="198.88" y="541.8"/>
      <point x="136.48" y="541.8" type="curve" smooth="yes"/>
      <point x="73.9" y="541.8"/>
      <point x="42.02" y="483.9"/>
      <point x="42.02" y="370.1" type="curve" smooth="yes"/>
      <point x="42.02" y="256.3"/>
      <point x="73.9" y="199.22"/>
    </contour>
    <contour>
      <point x="136.48" y="229.74" type="curve" smooth="yes"/>
      <point x="94.72" y="229.74"/>
      <point x="75.34" y="273.14"/>
      <point x="75.34" y="370.1" type="curve" smooth="yes"/>
      <point x="75.34" y="467.88"/>
      <point x="94.72" y="511.28"/>
      <point x="136.48" y="511.28" type="curve" smooth="yes"/>
      <point x="178.24" y="511.28"/>
      <point x="197.44" y="467.88"/>
      <point x="197.44" y="370.1" type="curve" smooth="yes"/>
      <point x="197.44" y="273.14"/>
      <point x="178.24" y="229.74"/>
    </contour>
    <contour>
      <point x="210.22" y="471.26" type="line"/>
      <point x="224.5" y="501.0"/>
      <point x="237.32" y="513.64"/>
      <point x="252.96" y="513.64" type="curve" smooth="yes"/>
      <point x="258.5" y="513.64"/>
      <point x="260.04" y="513.46"/>
      <point x="261.76" y="512.46" type="curve"/>
      <point x="265.1" y="544.88" type="line"/>
      <point x="262.84" y="546.6"/>
      <point x="259.86" y="547.14"/>
      <point x="252.6" y="547.14" type="curve" smooth="yes"/>
      <point x="229.34" y="547.14"/>
      <point x="206.8" y="529.14"/>
      <point x="195.54" y="501.34" type="curve"/>
    </contour>
  </outline>
</glyph>
<glyph name="h" format="2">
  <advance width="274.95"/>
  <unicode hex="0068"/>
  <anchor x="137.93" y="395.0" name="center"/>
  <anchor x="137.93" y="0.0" name="bottom"/>
  <anchor x="142.11" y="740.0" name="top"/>
  <outline>
    <contour>
      <point x="41.75" y="0.0" type="line"/>
      <point x="75.7" y="0.0" type="line"/>
      <point x="75.7" y="485.56" type="line"/>
      <point x="92.62" y="499.66"/>
      <point x="123.01" y="509.85"/>
      <point x="141.84" y="509.85" type="curve" smooth="yes"/>
      <point x="180.42" y="509.85"/>
      <point x="199.34" y="485.1"/>
      <point x="199.34" y="439.25" type="curve" smooth="yes"/>
      <point x="199.34" y="0.0" type="line"/>
      <point x="233.38" y="0.0" type="line"/>
      <point x="233.38" y="443.75" type="line" smooth="yes"/>
      <point x="233.38" y="516.54"/>
      <point x="197.75" y="541.8"/>
      <point x="155.5" y="541.8" type="curve" smooth="yes"/>
      <point x="128.23" y="541.8"/>
      <point x="96.6" y="531.53"/>
      <point x="75.7" y="516.73" type="curve"/>
      <point x="75.7" y="740.0" type="line"/>
      <point x="41.75" y="740.0" type="line"/>
    </contour>
  </outline>
</glyph>
<glyph name="i" format="2">
  <advance width="117.45"/>
  <unicode hex="0069"/>
  <anchor x="75.7" y="0.0" name="ogonek"/>
  <anchor x="58.769999999999996" y="0.0" name="bottom"/>
  <outline>
    <contour>
      <point x="58.769999999999996" y="667.28" type="curve" smooth="yes"/>
      <point x="77.27" y="667.28"/>
      <point x="80.33" y="671.52"/>
      <point x="80.33" y="692.65" type="curve" smooth="yes"/>
      <point x="80.33" y="713.96"/>
      <point x="77.09" y="718.11"/>
      <point x="58.769999999999996" y="718.11" type="curve" smooth="yes"/>
      <point x="40.36" y="718.11"/>
      <point x="37.12" y="713.96"/>
      <point x="37.12" y="692.65" type="curve" smooth="yes"/>
      <point x="37.12" y="671.43"/>
      <point x="41.27" y="667.28"/>
    </contour>
    <contour>
      <point x="41.75" y="0.0" type="line"/>
      <point x="75.7" y="0.0" type="line"/>
      <point x="75.7" y="531.8" type="line"/>
      <point x="41.75" y="531.8" type="line"/>
    </contour>
  </outline>
</glyph>
<glyph name="j" format="2">
  <advance width="116.53999999999999"/>
  <unicode hex="006A"/>
  <outline>
    <contour>
      <point x="74.78999999999999" y="531.8" type="line"/>
      <point x="40.84" y="531.8" type="line"/>
      <point x="40.84" y="14.63" type="line" smooth="yes"/>
      <point x="40.84" y="-78.33"/>
      <point x="22.92" y="-137.65"/>
      <point x="-10.0" y="-166.77" type="curve" smooth="yes"/>
      <point x="-15.63" y="-171.32"/>
      <point x="-21.08" y="-174.69"/>
      <point x="-27.89" y="-176.97" type="curve"/>
      <point x="-22.13" y="-208.37" type="line"/>
      <point x="-11.61" y="-204.9"/>
      <point x="-2.36" y="-199.98"/>
      <point x="6.71" y="-194.52" type="curve" smooth="yes"/>
      <point x="52.54" y="-160.85"/>
      <point x="74.78999999999999" y="-95.04"/>
      <point x="74.78999999999999" y="13.19" type="curve" smooth="yes"/>
    </contour>
    <contour>
      <point x="57.86" y="667.28" type="curve" smooth="yes"/>
      <point x="75.45" y="667.28"/>
      <point x="79.42" y="671.52"/>
      <point x="79.42" y="692.65" type="curve" smooth="yes"/>
      <point x="79.42" y="713.96"/>
      <point x="75.27" y="718.11"/>
      <point x="57.86" y="718.11" type="curve" smooth="yes"/>
      <point x="39.45" y="718.11"/>
      <point x="36.21" y="713.96"/>
      <point x="36.21" y="692.65" type="curve" smooth="yes"/>
      <point x="36.21" y="671.43"/>
      <point x="40.36" y="667.28"/>
    </contour>
  </outline>
</glyph>
<glyph name="k" format="2">
  <advance width="254.4"/>
  <unicode hex="006B"/>
  <anchor x="58.32" y="740.0" name="top"/>
  <anchor x="147.76" y="0.0" name="bottom"/>
  <outline>
    <contour>
      <point x="247.72" y="-6.36" type="curve" smooth="yes"/>
      <point x="254.44" y="-6.36"/>
      <point x="261.16" y="-4.54"/>
      <point x="266.24" y="-2.36" type="curve"/>
      <point x="264.42" y="32.84" type="line"/>
      <point x="260.6" y="32.019999999999996"/>
      <point x="255.78" y="31.02"/>
      <point x="251.96" y="31.02" type="curve" smooth="yes"/>
      <point x="235.88" y="31.02"/>
      <point x="230.08" y="36.82"/>
      <point x="173.44" y="147.48" type="curve" smooth="yes"/>
      <point x="74.8" y="339.42" type="line"/>
      <point x="74.8" y="740.0" type="line"/>
      <point x="41.84" y="740.0" type="line"/>
      <point x="41.84" y="0.0" type="line"/>
      <point x="74.8" y="0.0" type="line"/>
      <point x="74.8" y="273.94" type="line"/>
      <point x="156.56" y="114.5" type="line" smooth="yes"/>
      <point x="214.22" y="3.7199999999999998"/>
      <point x="221.38" y="-6.36"/>
    </contour>
    <contour>
      <point x="113.66" y="233.84" type="line"/>
      <point x="161.36" y="310.26"/>
      <point x="219.64" y="408.5"/>
      <point x="240.2" y="533.62" type="curve"/>
      <point x="208.34" y="540.8" type="line"/>
      <point x="187.5" y="409.58"/>
      <point x="136.1" y="329.38"/>
      <point x="94.84" y="262.3" type="curve"/>
    </contour>
  </outline>
</glyph>
<glyph name="l" format="2">
  <advance width="142.36"/>
  <unicode hex="006C"/>
  <anchor x="71.68" y="395.0" name="center"/>
  <anchor x="58.769999999999996" y="740.0" name="top"/>
  <anchor x="135.73" y="740.0" name="topright"/>
  <anchor x="91.78" y="0.0" name="bottom"/>
  <outline>
    <contour>
      <point x="75.7" y="740.0" type="line"/>
      <point x="41.75" y="740.0" type="line"/>
      <point x="41.75" y="93.28" type="line" smooth="yes"/>
      <point x="41.75" y="9.51"/>
      <point x="61.0" y="-10.0"/>
      <point x="103.22" y="-10.0" type="curve" smooth="yes"/>
      <point x="114.56" y="-10.0"/>
      <point x="128.27" y="-6.92"/>
      <point x="140.63" y="-1.29" type="curve"/>
      <point x="136.09" y="29.77" type="line"/>
      <point x="121.99" y="25.13"/>
      <point x="114.17" y="24.13"/>
      <point x="108.35" y="24.13" type="curve" smooth="yes"/>
      <point x="87.34" y="24.13"/>
      <point x="75.7" y="35.68"/>
      <point x="75.7" y="95.71" type="curve" smooth="yes"/>
    </contour>
  </outline>
</glyph>
<glyph name="m" format="2">
  <advance width="421.8"/>
  <unicode hex="006D"/>
  <outline>
    <contour>
      <point x="41.75" y="0.0" type="line"/>
      <point x="75.78999999999999" y="0.0" type="line"/>
      <point x="75.78999999999999" y="489.2" type="line"/>
      <point x="92.62" y="501.39"/>
      <point x="119.46" y="509.85"/>
      <point x="136.47" y="509.85" type="curve" smooth="yes"/>
      <point x="175.05" y="509.85"/>
      <point x="193.97" y="485.1"/>
      <point x="193.97" y="439.25" type="curve" smooth="yes"/>
      <point x="193.97" y="0.0" type="line"/>
      <point x="228.01" y="0.0" type="line"/>
      <point x="228.01" y="439.97" type="line" smooth="yes"/>
      <point x="228.01" y="458.17"/>
      <point x="225.28" y="472.82"/>
      <point x="220.73" y="484.65" type="curve"/>
      <point x="243.02" y="501.39"/>
      <point x="269.86" y="509.85"/>
      <point x="288.69" y="509.85" type="curve" smooth="yes"/>
      <point x="327.27" y="509.85"/>
      <point x="346.19" y="485.1"/>
      <point x="346.19" y="439.25" type="curve" smooth="yes"/>
      <point x="346.19" y="0.0" type="line"/>
      <point x="380.23" y="0.0" type="line"/>
      <point x="380.23" y="444.2" type="line" smooth="yes"/>
      <point x="380.23" y="515.73"/>
      <point x="345.23" y="541.8"/>
      <point x="302.35" y="541.8" type="curve" smooth="yes"/>
      <point x="264.53" y="541.8"/>
      <point x="231.07999999999998" y="525.52"/>
      <point x="211.74" y="510.27" type="curve"/>
      <point x="197.47" y="532.08"/>
      <point x="174.84" y="541.8"/>
      <point x="150.13" y="541.8" type="curve" smooth="yes"/>
      <point x="124.14" y="541.8"/>
      <point x="96.15" y="532.8"/>
      <point x="74.26" y="519.46" type="curve"/>
      <point x="74.26" y="531.8" type="line"/>
      <point x="41.75" y="531.8" type="line"/>
    </contour>
  </outline>
</glyph>
<glyph name="n" format="2">
  <advance width="275.04"/>
  <unicode hex="006E"/>
  <anchor x="139.84" y="531.8" name="top"/>
  <anchor x="141.66" y="0.0" name="bottom"/>
  <outline>
    <contour>
      <point x="41.75" y="0.0" type="line"/>
      <point x="75.78999999999999" y="0.0" type="line"/>
      <point x="75.78999999999999" y="485.56" type="line"/>
      <point x="92.62" y="499.57"/>
      <point x="123.1" y="509.85"/>
      <point x="141.93" y="509.85" type="curve" smooth="yes"/>
      <point x="180.51" y="509.85"/>
      <point x="199.43" y="485.1"/>
      <point x="199.43" y="439.25" type="curve" smooth="yes"/>
      <point x="199.43" y="0.0" type="line"/>
      <point x="233.47" y="0.0" type="line"/>
      <point x="233.47" y="444.2" type="line" smooth="yes"/>
      <point x="233.47" y="515.73"/>
      <point x="198.47" y="541.8"/>
      <point x="155.59" y="541.8" type="curve" smooth="yes"/>
      <point x="127.78" y="541.8"/>
      <point x="96.15" y="531.89"/>
      <point x="74.26" y="516.73" type="curve"/>
      <point x="74.26" y="531.8" type="line"/>
      <point x="41.75" y="531.8" type="line"/>
    </contour>
  </outline>
</glyph>
<glyph name="o" format="2">
  <advance width="266.94"/>
  <unicode hex="006F"/>
  <anchor x="166.59" y="0.8999999999999999" name="ogonek"/>
  <anchor x="133.47" y="531.8" name="top"/>
  <anchor x="194.6" y="521.8" name="topright"/>
  <anchor x="133.47" y="0.0" name="bottom"/>
  <outline>
    <contour>
      <point x="27.29" y="265.99" type="curve" smooth="yes"/>
      <point x="27.29" y="50.75"/>
      <point x="55.65" y="-10.0"/>
      <point x="133.47" y="-10.0" type="curve" smooth="yes"/>
      <point x="211.29" y="-10.0"/>
      <point x="239.65" y="50.75"/>
      <point x="239.65" y="265.99" type="curve" smooth="yes"/>
      <point x="239.65" y="481.23"/>
      <point x="211.29" y="541.8"/>
      <point x="133.47" y="541.8" type="curve" smooth="yes"/>
      <point x="55.65" y="541.8"/>
      <point x="27.29" y="481.23"/>
    </contour>
    <contour>
      <point x="62.05" y="265.99" type="curve" smooth="yes"/>
      <point x="62.05" y="462.35"/>
      <point x="82.25" y="510.3"/>
      <point x="133.47" y="510.3" type="curve" smooth="yes"/>
      <point x="184.6" y="510.3"/>
      <point x="204.89" y="462.35"/>
      <point x="204.89" y="265.99" type="curve" smooth="yes"/>
      <point x="204.89" y="69.63"/>
      <point x="184.6" y="21.59"/>
      <point x="133.47" y="21.59" type="curve" smooth="yes"/>
      <point x="82.25" y="21.59"/>
      <point x="62.05" y="69.63"/>
    </contour>
  </outline>
</glyph>
<glyph name="p" format="2">
  <advance width="270.4"/>
  <unicode hex="0070"/>
  <outline>
    <contour>
      <point x="41.75" y="-210.0" type="line"/>
      <point x="75.78999999999999" y="-210.0" type="line"/>
      <point x="75.78999999999999" y="-2.27" type="line"/>
      <point x="94.16" y="-8.0"/>
      <point x="109.25" y="-10.0"/>
      <point x="122.8" y="-10.0" type="curve" smooth="yes"/>
      <point x="209.32" y="-10.0"/>
      <point x="243.11" y="69.61"/>
      <point x="243.11" y="276.9" type="curve" smooth="yes"/>
      <point x="243.11" y="448.98"/>
      <point x="209.03" y="541.8"/>
      <point x="144.51" y="541.8" type="curve" smooth="yes"/>
      <point x="120.7" y="541.8"/>
      <point x="92.15" y="532.89"/>
      <point x="75.34" y="521.17" type="curve"/>
      <point x="74.26" y="540.9" type="line"/>
      <point x="41.75" y="540.9" type="line"/>
    </contour>
    <contour>
      <point x="115.82" y="18.97" type="curve" smooth="yes"/>
      <point x="104.53999999999999" y="18.97"/>
      <point x="96.08" y="20.97"/>
      <point x="75.78999999999999" y="26.79" type="curve"/>
      <point x="75.78999999999999" y="490.19" type="line"/>
      <point x="98.72" y="505.84"/>
      <point x="112.73" y="510.48"/>
      <point x="133.93" y="510.48" type="curve" smooth="yes"/>
      <point x="182.42" y="510.48"/>
      <point x="208.08" y="429.51"/>
      <point x="208.08" y="274.29" type="curve" smooth="yes"/>
      <point x="208.08" y="81.56"/>
      <point x="185.15" y="18.97"/>
    </contour>
  </outline>
</glyph>
<glyph name="q" format="2">
  <advance width="270.49"/>
  <unicode hex="0071"/>
  <outline>
    <contour>
      <point x="228.74" y="527.72" type="line"/>
      <point x="195.02" y="538.17"/>
      <point x="174.16" y="541.8"/>
      <point x="151.65" y="541.8" type="curve" smooth="yes"/>
      <point x="61.8" y="541.8"/>
      <point x="27.29" y="463.81"/>
      <point x="27.29" y="256.7" type="curve" smooth="yes"/>
      <point x="27.29" y="83.28"/>
      <point x="62.01" y="-10.0"/>
      <point x="126.61" y="-10.0" type="curve" smooth="yes"/>
      <point x="149.61" y="-10.0"/>
      <point x="178.79" y="-0.8200000000000001"/>
      <point x="194.79" y="10.36" type="curve"/>
      <point x="194.79" y="-210.0" type="line"/>
      <point x="228.74" y="-210.0" type="line"/>
    </contour>
    <contour>
      <point x="194.7" y="504.55" type="curve"/>
      <point x="194.7" y="42.06" type="line"/>
      <point x="171.77" y="26.32"/>
      <point x="157.76" y="21.5"/>
      <point x="136.47" y="21.5" type="curve" smooth="yes"/>
      <point x="88.98" y="21.5"/>
      <point x="62.41" y="104.11"/>
      <point x="62.41" y="255.89" type="curve" smooth="yes"/>
      <point x="62.41" y="450.24"/>
      <point x="85.34" y="513.01"/>
      <point x="154.76" y="513.01" type="curve" smooth="yes"/>
      <point x="164.95" y="513.01"/>
      <point x="174.41" y="511.1"/>
    </contour>
  </outline>
</glyph>
<glyph name="r" format="2">
  <advance width="196.44"/>
  <unicode hex="0072"/>
  <anchor x="117.69" y="531.8" name="top"/>
  <anchor x="58.68" y="0.0" name="bottom"/>
  <outline>
    <contour>
      <point x="74.17" y="531.8" type="line"/>
      <point x="41.75" y="531.8" type="line"/>
      <point x="41.75" y="0.0" type="line"/>
      <point x="75.61" y="0.0" type="line"/>
      <point x="75.61" y="459.65" type="line"/>
      <point x="102.53" y="494.13"/>
      <point x="127.18" y="507.96"/>
      <point x="154.92" y="507.96" type="curve" smooth="yes"/>
      <point x="166.38" y="507.96"/>
      <point x="178.74" y="506.14"/>
      <point x="191.74" y="502.14" type="curve"/>
      <point x="199.08" y="534.62" type="line"/>
      <point x="184.63" y="539.89"/>
      <point x="170.81" y="541.8"/>
      <point x="157.26" y="541.8" type="curve" smooth="yes"/>
      <point x="124.63" y="541.8"/>
      <point x="94.07" y="524.98"/>
      <point x="74.17" y="497.72" type="curve"/>
    </contour>
  </outline>
</glyph>
<glyph name="s" format="2">
  <advance width="215.22"/>
  <unicode hex="0073"/>
  <anchor x="104.74" y="531.8" name="top"/>
  <anchor x="100.46" y="0.0" name="bottom"/>
  <outline>
    <contour>
      <point x="3.08" y="10.08" type="line"/>
      <point x="26.24" y="-3.64"/>
      <point x="58.32" y="-10.0"/>
      <point x="89.2" y="-10.0" type="curve" smooth="yes"/>
      <point x="155.32" y="-10.0"/>
      <point x="202.94" y="33.52"/>
      <point x="202.94" y="116.12" type="curve" smooth="yes"/>
      <point x="202.94" y="198.8"/>
      <point x="158.86" y="242.64"/>
      <point x="118.34" y="287.48" type="curve" smooth="yes"/>
      <point x="83.44" y="326.6"/>
      <point x="50.7" y="365.0"/>
      <point x="50.7" y="424.68" type="curve" smooth="yes"/>
      <point x="50.7" y="475.9"/>
      <point x="79.53999999999999" y="508.66"/>
      <point x="123.38" y="508.66" type="curve" smooth="yes"/>
      <point x="142.82" y="508.66"/>
      <point x="160.16" y="504.3"/>
      <point x="177.32" y="496.76" type="curve"/>
      <point x="186.76" y="527.36" type="line"/>
      <point x="168.32" y="537.08"/>
      <point x="145.54" y="541.8"/>
      <point x="122.84" y="541.8" type="curve" smooth="yes"/>
      <point x="56.62" y="541.8"/>
      <point x="17.74" y="493.28"/>
      <point x="17.74" y="422.7" type="curve" smooth="yes"/>
      <point x="17.74" y="350.9"/>
      <point x="54.56" y="303.16"/>
      <point x="95.26" y="259.96" type="curve" smooth="yes"/>
      <point x="133.16" y="218.84"/>
      <point x="169.98" y="179.44"/>
      <point x="169.98" y="115.4" type="curve" smooth="yes"/>
      <point x="169.98" y="55.62"/>
      <point x="134.5" y="22.96"/>
      <point x="88.48" y="22.96" type="curve" smooth="yes"/>
      <point x="63.22" y="22.96"/>
      <point x="33.52" y="28.32"/>
      <point x="13.62" y="39.32" type="curve"/>
    </contour>
  </outline>
</glyph>
<glyph name="t" format="2">
  <advance width="198.73"/>
  <unicode hex="0074"/>
  <anchor x="99.05" y="275.0" name="center"/>
  <anchor x="79.94" y="664.01" name="top"/>
  <anchor x="170.75" y="742.25" name="topright"/>
  <anchor x="124.6" y="0.0" name="bottom"/>
  <outline>
    <contour>
      <point x="150.16" y="-10.0" type="curve" smooth="yes"/>
      <point x="164.78" y="-10.0"/>
      <point x="182.57" y="-7.91"/>
      <point x="201.82" y="-1.3800000000000001" type="curve"/>
      <point x="195.84" y="28.229999999999997" type="line"/>
      <point x="181.47" y="23.5"/>
      <point x="168.74" y="22.5"/>
      <point x="156.28" y="22.5" type="curve" smooth="yes"/>
      <point x="110.52" y="22.5"/>
      <point x="93.15" y="49.519999999999996"/>
      <point x="93.15" y="117.0" type="curve" smooth="yes"/>
      <point x="93.15" y="501.01" type="line"/>
      <point x="195.38" y="501.01" type="line"/>
      <point x="195.38" y="531.8" type="line"/>
      <point x="93.15" y="531.8" type="line"/>
      <point x="93.15" y="664.01" type="line"/>
      <point x="65.82" y="664.01" type="line"/>
      <point x="59.2" y="531.8" type="line"/>
      <point x="7.73" y="525.8" type="line"/>
      <point x="7.73" y="501.1" type="line"/>
      <point x="59.2" y="501.1" type="line"/>
      <point x="59.2" y="115.02" type="line" smooth="yes"/>
      <point x="59.2" y="43.99"/>
      <point x="74.17" y="-10.0"/>
    </contour>
  </outline>
</glyph>
<glyph name="u" format="2">
  <advance width="283.76"/>
  <unicode hex="0075"/>
  <anchor x="285.4" y="0.43999999999999995" name="ogonek"/>
  <anchor x="136.93" y="531.8" name="top"/>
  <anchor x="233.2" y="531.8" name="topright"/>
  <anchor x="142.38" y="0.0" name="bottom"/>
  <outline>
    <contour>
      <point x="120.26" y="-10.0" type="curve" smooth="yes"/>
      <point x="148.61" y="-10.0"/>
      <point x="180.06" y="0.54"/>
      <point x="203.69" y="16.62" type="curve"/>
      <point x="208.31" y="0.8099999999999999"/>
      <point x="224.48" y="-10.0"/>
      <point x="244.64" y="-10.0" type="curve" smooth="yes"/>
      <point x="257.88" y="-10.0"/>
      <point x="270.5" y="-7.1"/>
      <point x="285.4" y="0.43999999999999995" type="curve"/>
      <point x="278.04" y="30.4" type="line"/>
      <point x="268.67" y="25.759999999999998"/>
      <point x="259.94" y="23.85"/>
      <point x="251.39" y="23.85" type="curve" smooth="yes"/>
      <point x="238.93" y="23.85"/>
      <point x="233.2" y="31.490000000000002"/>
      <point x="233.2" y="48.85" type="curve" smooth="yes"/>
      <point x="233.2" y="531.8" type="line"/>
      <point x="199.25" y="531.8" type="line"/>
      <point x="199.25" y="46.24" type="line"/>
      <point x="182.42" y="32.14"/>
      <point x="151.85" y="21.95"/>
      <point x="133.11" y="21.95" type="curve" smooth="yes"/>
      <point x="94.53" y="21.95"/>
      <point x="75.61" y="46.7"/>
      <point x="75.61" y="92.55" type="curve" smooth="yes"/>
      <point x="75.61" y="531.8" type="line"/>
      <point x="41.57" y="531.8" type="line"/>
      <point x="41.57" y="89.85" type="line" smooth="yes"/>
      <point x="41.57" y="15.26"/>
      <point x="78.01" y="-10.0"/>
    </contour>
  </outline>
</glyph>
<glyph name="v" format="2">
  <advance width="254.56"/>
  <unicode hex="0076"/>
  <outline>
    <contour>
      <point x="108.56" y="0.0" type="line"/>
      <point x="145.91" y="0.0" type="line"/>
      <point x="241.73" y="529.98" type="line"/>
      <point x="206.43" y="533.62" type="line"/>
      <point x="127.28" y="55.8" type="line"/>
      <point x="48.22" y="533.62" type="line"/>
      <point x="12.83" y="529.98" type="line"/>
    </contour>
  </outline>
</glyph>
<glyph name="w" format="2">
  <advance width="376.1"/>
  <unicode hex="0077"/>
  <anchor x="188.05" y="531.8" name="top"/>
  <anchor x="188.05" y="0.0" name="bottom"/>
  <outline>
    <contour>
      <point x="87.38" y="0.0" type="line"/>
      <point x="123.55" y="0.0" type="line"/>
      <point x="188.23" y="465.5" type="line"/>
      <point x="253.46" y="0.0" type="line"/>
      <point x="289.54" y="0.0" type="line"/>
      <point x="366.55" y="529.07" type="line"/>
      <point x="332.42" y="532.71" type="line"/>
      <point x="270.65" y="58.17" type="line"/>
      <point x="205.7" y="531.8" type="line"/>
      <point x="170.4" y="531.8" type="line"/>
      <point x="106.27" y="58.17" type="line"/>
      <point x="43.769999999999996" y="532.71" type="line"/>
      <point x="9.55" y="529.07" type="line"/>
    </contour>
  </outline>
</glyph>
<glyph name="x" format="2">
  <advance width="270.2"/>
  <unicode hex="0078"/>
  <outline>
    <contour>
      <point x="6.64" y="-5.46" type="line"/>
      <point x="41.21" y="-9.1" type="line"/>
      <point x="134.28" y="242.96" type="line"/>
      <point x="230.17" y="-9.1" type="line"/>
      <point x="264.65" y="-5.46" type="line"/>
      <point x="157.71" y="269.9" type="line"/>
      <point x="254.19" y="529.98" type="line"/>
      <point x="219.98" y="533.62" type="line"/>
      <point x="136.1" y="301.59" type="line"/>
      <point x="50.4" y="534.53" type="line"/>
      <point x="16.28" y="529.07" type="line"/>
      <point x="112.67" y="275.36" type="line"/>
    </contour>
  </outline>
</glyph>
<glyph name="y" format="2">
  <advance width="254.92"/>
  <unicode hex="0079"/>
  <anchor x="126.64" y="531.8" name="top"/>
  <anchor x="212.07999999999998" y="0.0" name="bottom"/>
  <outline>
    <contour>
      <point x="86.72" y="-208.18" type="line"/>
      <point x="123.02" y="-212.82" type="line"/>
      <point x="240.36" y="529.98" type="line"/>
      <point x="204.7" y="533.62" type="line"/>
      <point x="135.02" y="51.72" type="line"/>
      <point x="49.4" y="533.62" type="line"/>
      <point x="13.74" y="529.98" type="line"/>
      <point x="115.38" y="0.0" type="line"/>
      <point x="119.98" y="0.0" type="line"/>
    </contour>
  </outline>
</glyph>
<glyph name="z" format="2">
  <advance width="244.97"/>
  <unicode hex="007A"/>
  <anchor x="122.3" y="531.8" name="top"/>
  <outline>
    <contour>
      <point x="18.37" y="0.0" type="line"/>
      <point x="232.88" y="0.0" type="line"/>
      <point x="232.88" y="31.96" type="line"/>
      <point x="55.04" y="31.96" type="line"/>
      <point x="218.78" y="502.37" type="line"/>
      <point x="218.78" y="531.8" type="line"/>
      <point x="24.55" y="531.8" type="line"/>
      <point x="24.55" y="500.02" type="line"/>
      <point x="183.02" y="500.02" type="line"/>
      <point x="18.37" y="29.7" type="line"/>
    </contour>
  </outline>
</glyph>
<glyph name="braceleft" format="2">
  <advance width="198.05"/>
  <unicode hex="007B"/>
  <outline>
    <contour>
      <point x="65.13" y="-69.49" type="curve" smooth="yes"/>
      <point x="65.13" y="-147.62"/>
      <point x="90.91" y="-210.09"/>
      <point x="145.99" y="-210.09" type="curve" smooth="yes"/>
      <point x="170.94" y="-210.09" type="line"/>
      <point x="170.94" y="-178.57" type="line"/>
      <point x="149.95" y="-178.57" type="line" smooth="yes"/>
      <point x="111.57" y="-178.57"/>
      <point x="96.11" y="-127.72"/>
      <point x="96.11" y="-67.42" type="curve" smooth="yes"/>
      <point x="96.11" y="15.62"/>
      <point x="128.12" y="77.82"/>
      <point x="128.12" y="166.22" type="curve" smooth="yes"/>
      <point x="128.12" y="200.57"/>
      <point x="117.76" y="246.93"/>
      <point x="91.78" y="265.0" type="curve"/>
      <point x="117.76" y="287.35"/>
      <point x="128.12" y="329.34"/>
      <point x="128.12" y="363.69" type="curve" smooth="yes"/>
      <point x="128.12" y="445.72"/>
      <point x="96.11" y="507.92"/>
      <point x="96.11" y="597.33" type="curve" smooth="yes"/>
      <point x="96.11" y="657.63"/>
      <point x="111.57" y="708.48"/>
      <point x="149.95" y="708.48" type="curve" smooth="yes"/>
      <point x="170.94" y="708.48" type="line"/>
      <point x="170.94" y="740.0" type="line"/>
      <point x="145.99" y="740.0" type="line" smooth="yes"/>
      <point x="90.91" y="740.0"/>
      <point x="65.13" y="677.53"/>
      <point x="65.13" y="599.4" type="curve" smooth="yes"/>
      <point x="65.13" y="500.57"/>
      <point x="97.95" y="442.92"/>
      <point x="97.95" y="362.7" type="curve" smooth="yes"/>
      <point x="97.95" y="326.15"/>
      <point x="88.4" y="281.12"/>
      <point x="67.31" y="281.12" type="curve" smooth="yes"/>
      <point x="46.76" y="281.12" type="line"/>
      <point x="46.76" y="248.79" type="line"/>
      <point x="67.31" y="248.79" type="line" smooth="yes"/>
      <point x="88.4" y="248.79"/>
      <point x="97.95" y="204.67"/>
      <point x="97.95" y="167.21" type="curve" smooth="yes"/>
      <point x="97.95" y="84.26"/>
      <point x="65.13" y="22.97"/>
    </contour>
  </outline>
</glyph>
<glyph name="bar" format="2">
  <advance width="113.58"/>
  <unicode hex="007C"/>
  <outline>
    <contour>
      <point x="72.64" y="790.09" type="line"/>
      <point x="40.94" y="790.09" type="line"/>
      <point x="40.94" y="-210.0" type="line"/>
      <point x="72.64" y="-210.0" type="line"/>
    </contour>
  </outline>
</glyph>
<glyph name="braceright" format="2">
  <advance width="198.05"/>
  <unicode hex="007D"/>
  <outline>
    <contour>
      <point x="27.11" y="-178.57" type="line"/>
      <point x="27.11" y="-210.09" type="line"/>
      <point x="52.97" y="-210.09" type="line" smooth="yes"/>
      <point x="108.05" y="-210.09"/>
      <point x="133.83" y="-147.62"/>
      <point x="133.83" y="-69.49" type="curve" smooth="yes"/>
      <point x="133.83" y="22.97"/>
      <point x="101.01" y="84.26"/>
      <point x="101.01" y="167.21" type="curve" smooth="yes"/>
      <point x="101.01" y="204.67"/>
      <point x="110.56" y="248.79"/>
      <point x="131.65" y="248.79" type="curve" smooth="yes"/>
      <point x="151.29" y="248.79" type="line"/>
      <point x="151.29" y="281.12" type="line"/>
      <point x="131.65" y="281.12" type="line" smooth="yes"/>
      <point x="109.65" y="281.12"/>
      <point x="101.01" y="326.15"/>
      <point x="101.01" y="362.7" type="curve" smooth="yes"/>
      <point x="101.01" y="442.92"/>
      <point x="133.83" y="500.57"/>
      <point x="133.83" y="599.4" type="curve" smooth="yes"/>
      <point x="133.83" y="677.53"/>
      <point x="108.05" y="740.0"/>
      <point x="52.97" y="740.0" type="curve" smooth="yes"/>
      <point x="27.11" y="740.0" type="line"/>
      <point x="27.11" y="708.48" type="line"/>
      <point x="47.48" y="708.48" type="line" smooth="yes"/>
      <point x="84.95" y="708.48"/>
      <point x="101.32" y="657.63"/>
      <point x="101.32" y="597.33" type="curve" smooth="yes"/>
      <point x="101.32" y="507.92"/>
      <point x="69.31" y="445.72"/>
      <point x="69.31" y="363.69" type="curve" smooth="yes"/>
      <point x="69.31" y="329.34"/>
      <point x="78.76" y="287.35"/>
      <point x="105.65" y="265.0" type="curve"/>
      <point x="78.76" y="246.93"/>
      <point x="69.31" y="200.57"/>
      <point x="69.31" y="166.22" type="curve" smooth="yes"/>
      <point x="69.31" y="77.82"/>
      <point x="101.32" y="15.62"/>
      <point x="101.32" y="-67.42" type="curve" smooth="yes"/>
      <point x="101.32" y="-127.72"/>
      <point x="84.95" y="-178.57"/>
      <point x="47.48" y="-178.57" type="curve" smooth="yes"/>
    </contour>
  </outline>
</glyph>
<glyph name="asciitilde" format="2">
  <advance width="374.5"/>
  <unicode hex="007E"/>
  <outline>
    <contour>
      <point x="320.68" y="249.74" type="curve"/>
      <point x="320.68" y="286.53" type="line"/>
      <point x="302.87" y="260.71"/>
      <point x="288.7" y="249.98"/>
      <point x="267.16" y="249.98" type="curve" smooth="yes"/>
      <point x="207.53" y="249.98"/>
      <point x="174.06" y="365.85"/>
      <point x="109.79" y="365.85" type="curve" smooth="yes"/>
      <point x="84.17" y="365.85"/>
      <point x="68.83" y="355.41"/>
      <point x="54.73" y="333.85" type="curve"/>
      <point x="54.73" y="297.06" type="line"/>
      <point x="70.65" y="321.35"/>
      <point x="85.99" y="333.61"/>
      <point x="108.88" y="333.61" type="curve" smooth="yes"/>
      <point x="163.14" y="333.61"/>
      <point x="197.52" y="217.74"/>
      <point x="266.25" y="217.74" type="curve" smooth="yes"/>
      <point x="290.52" y="217.74"/>
      <point x="304.69" y="226.65"/>
    </contour>
  </outline>
</glyph>
<glyph name="exclamdown" format="2">
  <advance width="121.74"/>
  <unicode hex="00A1"/>
  <outline>
    <contour>
      <point x="76.9" y="268.25" type="line"/>
      <point x="45.02" y="268.25" type="line"/>
      <point x="43.58" y="-208.2" type="line"/>
      <point x="78.07" y="-208.2" type="line"/>
    </contour>
    <contour>
      <point x="81.98" y="506.7" type="curve" smooth="yes"/>
      <point x="81.98" y="528.28"/>
      <point x="79.46" y="532.7"/>
      <point x="60.87" y="532.7" type="curve" smooth="yes"/>
      <point x="43.19" y="532.7"/>
      <point x="39.76" y="528.28"/>
      <point x="39.76" y="506.7" type="curve" smooth="yes"/>
      <point x="39.76" y="485.03"/>
      <point x="42.28" y="480.61"/>
      <point x="60.87" y="480.61" type="curve" smooth="yes"/>
      <point x="79.46" y="480.61"/>
      <point x="81.98" y="485.03"/>
    </contour>
  </outline>
</glyph>
<glyph name="cent" format="2">
  <advance width="265.3"/>
  <unicode hex="00A2"/>
  <outline>
    <contour>
      <point x="161.19" y="-10.09" type="curve" smooth="yes"/>
      <point x="175.61" y="-10.09"/>
      <point x="190.21" y="-7.37"/>
      <point x="207.65" y="-1.29" type="curve"/>
      <point x="200.68" y="30.02" type="line"/>
      <point x="185.32" y="25.75"/>
      <point x="176.6" y="24.57"/>
      <point x="165.33" y="24.57" type="curve" smooth="yes"/>
      <point x="114.31" y="24.57"/>
      <point x="94.49" y="95.52"/>
      <point x="94.49" y="255.62" type="curve" smooth="yes"/>
      <point x="94.49" y="431.18"/>
      <point x="117.77" y="507.14"/>
      <point x="164.96" y="507.14" type="curve" smooth="yes"/>
      <point x="176.59" y="507.14"/>
      <point x="186.86" y="504.96"/>
      <point x="195.22" y="501.96" type="curve"/>
      <point x="202.56" y="533.9" type="line"/>
      <point x="189.84" y="538.99"/>
      <point x="174.06" y="541.98"/>
      <point x="160.19" y="541.98" type="curve" smooth="yes"/>
      <point x="86.54" y="541.98"/>
      <point x="59.55" y="445.84"/>
      <point x="59.55" y="255.08" type="curve" smooth="yes"/>
      <point x="59.55" y="73.72"/>
      <point x="87.7" y="-10.09"/>
    </contour>
    <contour>
      <point x="132.34" y="-105.09" type="line"/>
      <point x="165.03" y="-105.09" type="line"/>
      <point x="165.03" y="-3.29" type="line"/>
      <point x="132.34" y="0.25" type="line"/>
    </contour>
    <contour>
      <point x="132.34" y="530.46" type="line"/>
      <point x="165.03" y="535.36" type="line"/>
      <point x="165.03" y="636.71" type="line"/>
      <point x="132.34" y="636.71" type="line"/>
    </contour>
  </outline>
</glyph>
<glyph name="sterling" format="2">
  <advance width="265.3"/>
  <unicode hex="00A3"/>
  <outline>
    <contour>
      <point x="51.82" y="0.0" type="line"/>
      <point x="232.68" y="0.0" type="line"/>
      <point x="232.68" y="32.6" type="line"/>
      <point x="86.94" y="32.6" type="line"/>
      <point x="123.86" y="107.56"/>
      <point x="148.94" y="156.94"/>
      <point x="148.94" y="245.06" type="curve" smooth="yes"/>
      <point x="148.94" y="346.64"/>
      <point x="94.56" y="411.46"/>
      <point x="94.56" y="524.52" type="curve" smooth="yes"/>
      <point x="94.56" y="636.76"/>
      <point x="133.76" y="675.78"/>
      <point x="178.96" y="675.78" type="curve" smooth="yes"/>
      <point x="193.14" y="675.78"/>
      <point x="202.32" y="672.78"/>
      <point x="214.14" y="667.78" type="curve"/>
      <point x="222.12" y="696.2" type="line"/>
      <point x="207.68" y="705.46"/>
      <point x="190.98" y="710.0"/>
      <point x="175.0" y="710.0" type="curve" smooth="yes"/>
      <point x="98.5" y="710.0"/>
      <point x="59.8" y="634.82"/>
      <point x="59.8" y="530.1" type="curve" smooth="yes"/>
      <point x="59.8" y="400.0"/>
      <point x="115.98" y="347.16"/>
      <point x="115.98" y="242.9" type="curve" smooth="yes"/>
      <point x="115.98" y="156.94"/>
      <point x="93.44" y="116.96"/>
      <point x="51.82" y="28.82" type="curve"/>
    </contour>
    <contour>
      <point x="31.62" y="359.16" type="line"/>
      <point x="205.84" y="359.16" type="line"/>
      <point x="205.84" y="387.44" type="line"/>
      <point x="31.62" y="387.44" type="line"/>
    </contour>
  </outline>
</glyph>
<glyph name="currency" format="2">
  <advance width="415.45"/>
  <unicode hex="00A4"/>
  <outline>
    <contour>
      <point x="30.65" y="443.8" type="line"/>
      <point x="101.95" y="371.5" type="line"/>
      <point x="84.48" y="349.58"/>
      <point x="73.47" y="321.29"/>
      <point x="73.47" y="289.36" type="curve" smooth="yes"/>
      <point x="73.47" y="257.34"/>
      <point x="84.48" y="228.87"/>
      <point x="102.95" y="206.86" type="curve"/>
      <point x="30.65" y="134.56" type="line"/>
      <point x="53.56" y="111.65" type="line"/>
      <point x="126.49" y="184.58" type="line"/>
      <point x="148.23" y="166.2"/>
      <point x="176.52" y="156.19"/>
      <point x="207.54" y="156.19" type="curve" smooth="yes"/>
      <point x="238.38" y="156.19"/>
      <point x="267.31" y="166.2"/>
      <point x="288.96" y="184.49" type="curve"/>
      <point x="361.89" y="111.65" type="line"/>
      <point x="384.8" y="134.56" type="line"/>
      <point x="312.86" y="206.41" type="line"/>
      <point x="331.42" y="228.6"/>
      <point x="342.52" y="257.16"/>
      <point x="342.52" y="289.36" type="curve" smooth="yes"/>
      <point x="342.52" y="321.38"/>
      <point x="331.42" y="349.85"/>
      <point x="312.95" y="371.95" type="curve"/>
      <point x="384.8" y="443.8" type="line"/>
      <point x="361.89" y="466.71" type="line"/>
      <point x="289.32" y="394.14" type="line"/>
      <point x="267.58" y="412.43"/>
      <point x="239.38" y="423.44"/>
      <point x="207.54" y="423.44" type="curve" smooth="yes"/>
      <point x="175.43" y="423.44"/>
      <point x="147.14" y="412.34"/>
      <point x="125.22" y="394.05" type="curve"/>
      <point x="53.56" y="466.71" type="line"/>
    </contour>
    <contour>
      <point x="207.54" y="184.74" type="curve" smooth="yes"/>
      <point x="149.41" y="184.74"/>
      <point x="103.01" y="231.14"/>
      <point x="103.01" y="289.27" type="curve" smooth="yes"/>
      <point x="103.01" y="348.13"/>
      <point x="149.41" y="394.8"/>
      <point x="207.54" y="394.8" type="curve" smooth="yes"/>
      <point x="266.58" y="394.8"/>
      <point x="312.98" y="348.13"/>
      <point x="312.98" y="289.27" type="curve" smooth="yes"/>
      <point x="312.98" y="231.14"/>
      <point x="266.58" y="184.74"/>
    </contour>
  </outline>
</glyph>
<glyph name="yen" format="2">
  <advance width="265.3"/>
  <unicode hex="00A5"/>
  <outline>
    <contour>
      <point x="46.56" y="357.0" type="line"/>
      <point x="118.36" y="357.0" type="line"/>
      <point x="118.36" y="233.04" type="line"/>
      <point x="46.56" y="233.04" type="line"/>
      <point x="46.56" y="204.76" type="line"/>
      <point x="118.36" y="204.76" type="line"/>
      <point x="118.36" y="0.0" type="line"/>
      <point x="152.4" y="0.0" type="line"/>
      <point x="152.4" y="204.76" type="line"/>
      <point x="224.2" y="204.76" type="line"/>
      <point x="224.2" y="233.04" type="line"/>
      <point x="152.4" y="233.04" type="line"/>
      <point x="152.4" y="357.0" type="line"/>
      <point x="224.2" y="357.0" type="line"/>
      <point x="224.2" y="385.1" type="line"/>
      <point x="152.4" y="385.1" type="line"/>
      <point x="230.8" y="697.18" type="line"/>
      <point x="194.78" y="702.82" type="line"/>
      <point x="135.38" y="424.66" type="line"/>
      <point x="70.52" y="702.82" type="line"/>
      <point x="34.5" y="697.18" type="line"/>
      <point x="118.36" y="385.1" type="line"/>
      <point x="46.56" y="385.1" type="line"/>
    </contour>
  </outline>
</glyph>
<glyph name="brokenbar" format="2">
  <advance width="113.49"/>
  <unicode hex="00A6"/>
  <outline>
    <contour>
      <point x="72.55" y="391.0" type="line"/>
      <point x="72.55" y="790.09" type="line"/>
      <point x="40.94" y="790.09" type="line"/>
      <point x="40.94" y="391.0" type="line"/>
    </contour>
    <contour>
      <point x="40.94" y="190.09" type="line"/>
      <point x="40.94" y="-210.0" type="line"/>
      <point x="72.55" y="-210.0" type="line"/>
      <point x="72.55" y="190.09" type="line"/>
    </contour>
  </outline>
</glyph>
<glyph name="section" format="2">
  <advance width="307.21"/>
  <unicode hex="00A7"/>
  <outline>
    <contour>
      <point x="113.84" y="-220.09" type="curve" smooth="yes"/>
      <point x="221.52" y="-220.09"/>
      <point x="289.68" y="-101.73"/>
      <point x="289.68" y="53.99" type="curve" smooth="yes"/>
      <point x="289.68" y="140.47"/>
      <point x="274.32" y="219.72"/>
      <point x="216.03" y="416.55" type="curve" smooth="yes"/>
      <point x="169.3" y="575.88"/>
      <point x="163.86" y="596.76"/>
      <point x="163.86" y="636.04" type="curve" smooth="yes"/>
      <point x="163.86" y="685.97"/>
      <point x="186.14" y="714.89"/>
      <point x="222.33" y="714.89" type="curve" smooth="yes"/>
      <point x="235.24" y="714.89"/>
      <point x="246.15" y="712.89"/>
      <point x="259.97" y="705.89" type="curve"/>
      <point x="270.58" y="735.56" type="line"/>
      <point x="251.95" y="745.28"/>
      <point x="231.07" y="749.09"/>
      <point x="210.1" y="749.09" type="curve" smooth="yes"/>
      <point x="97.69" y="749.09"/>
      <point x="29.64" y="651.46"/>
      <point x="29.36" y="485.73" type="curve" smooth="yes"/>
      <point x="29.63" y="398.53"/>
      <point x="45.46" y="312.33"/>
      <point x="101.18" y="132.75" type="curve" smooth="yes"/>
      <point x="145.91" y="-14.39"/>
      <point x="159.63" y="-67.13"/>
      <point x="159.63" y="-108.04" type="curve" smooth="yes"/>
      <point x="159.63" y="-159.24"/>
      <point x="137.81" y="-185.89"/>
      <point x="99.62" y="-185.89" type="curve" smooth="yes"/>
      <point x="77.34" y="-185.89"/>
      <point x="56.61" y="-177.34"/>
      <point x="31.87" y="-154.42" type="curve"/>
      <point x="18.07" y="-183.18" type="line"/>
      <point x="48.71" y="-210.55"/>
      <point x="74.95" y="-220.09"/>
    </contour>
    <contour>
      <point x="114.4" y="-197.82" type="curve" smooth="yes"/>
      <point x="98.4" y="-197.82"/>
      <point x="88.59" y="-195.55"/>
      <point x="80.33" y="-191.83" type="curve"/>
      <point x="99.21" y="-206.18" type="line"/>
      <point x="152.1" y="-204.73"/>
      <point x="186.36" y="-166.93"/>
      <point x="186.36" y="-108.41" type="curve" smooth="yes"/>
      <point x="186.36" y="-64.97"/>
      <point x="173.27" y="-8.34"/>
      <point x="128.18" y="143.52" type="curve" smooth="yes"/>
      <point x="71.26" y="335.33"/>
      <point x="57.81" y="399.34"/>
      <point x="57.81" y="486.63" type="curve" smooth="yes"/>
      <point x="57.81" y="627.16"/>
      <point x="115.01" y="721.84"/>
      <point x="195.41" y="721.84" type="curve" smooth="yes"/>
      <point x="200.76" y="721.84"/>
      <point x="204.66" y="721.39"/>
      <point x="211.29" y="719.22" type="curve"/>
      <point x="198.39" y="732.01" type="line"/>
      <point x="160.3" y="719.92"/>
      <point x="134.86" y="683.65"/>
      <point x="134.86" y="637.03" type="curve" smooth="yes"/>
      <point x="134.86" y="594.04"/>
      <point x="143.31" y="553.79"/>
      <point x="187.85" y="408.49" type="curve" smooth="yes"/>
      <point x="248.13" y="206.96"/>
      <point x="262.68" y="135.22"/>
      <point x="262.68" y="52.73" type="curve" smooth="yes"/>
      <point x="262.68" y="-90.77"/>
      <point x="205.68" y="-197.82"/>
    </contour>
  </outline>
</glyph>
<glyph name="copyright" format="2">
  <advance width="325.96"/>
  <unicode hex="00A9"/>
  <outline>
    <contour>
      <point x="162.98" y="10.42" type="curve" smooth="yes"/>
      <point x="88.91" y="10.42"/>
      <point x="53.33" y="93.74"/>
      <point x="53.33" y="350.09" type="curve" smooth="yes"/>
      <point x="53.33" y="607.35"/>
      <point x="88.91" y="689.76"/>
      <point x="162.98" y="689.76" type="curve" smooth="yes"/>
      <point x="237.32" y="689.76"/>
      <point x="272.54" y="607.35"/>
      <point x="272.54" y="350.09" type="curve" smooth="yes"/>
      <point x="272.54" y="93.74"/>
      <point x="237.32" y="10.42"/>
    </contour>
    <contour>
      <point x="162.98" y="710.0" type="curve" smooth="yes"/>
      <point x="73.2" y="710.0"/>
      <point x="32.82" y="623.8"/>
      <point x="32.82" y="350.09" type="curve" smooth="yes"/>
      <point x="32.82" y="77.38"/>
      <point x="73.2" y="-10.0"/>
      <point x="162.98" y="-10.0" type="curve" smooth="yes"/>
      <point x="252.76" y="-10.0"/>
      <point x="293.14" y="77.38"/>
      <point x="293.14" y="350.09" type="curve" smooth="yes"/>
      <point x="293.14" y="623.8"/>
      <point x="252.76" y="710.0"/>
    </contour>
    <contour>
      <point x="93.14" y="337.8" type="curve" smooth="yes"/>
      <point x="93.14" y="220.39"/>
      <point x="118.66" y="161.68"/>
      <point x="173.71" y="161.68" type="curve" smooth="yes"/>
      <point x="183.6" y="161.68"/>
      <point x="200.59" y="163.59"/>
      <point x="212.75" y="166.85" type="curve"/>
      <point x="207.4" y="193.76" type="line"/>
      <point x="198.6" y="191.22"/>
      <point x="182.05" y="190.13"/>
      <point x="175.06" y="190.13" type="curve" smooth="yes"/>
      <point x="135.32" y="190.13"/>
      <point x="123.13" y="247.62"/>
      <point x="123.13" y="337.17" type="curve" smooth="yes"/>
      <point x="123.13" y="453.92"/>
      <point x="139.32" y="496.48"/>
      <point x="177.32999999999998" y="496.48" type="curve" smooth="yes"/>
      <point x="185.78" y="496.48"/>
      <point x="195.57999999999998" y="495.94"/>
      <point x="205.12" y="492.85" type="curve"/>
      <point x="210.74" y="519.4" type="line"/>
      <point x="199.39" y="523.48"/>
      <point x="185.69" y="524.93"/>
      <point x="175.17" y="524.93" type="curve" smooth="yes"/>
      <point x="122.84" y="524.93"/>
      <point x="93.14" y="476.94"/>
    </contour>
  </outline>
</glyph>
<glyph name="ordfeminine" format="2">
  <advance width="198.45"/>
  <unicode hex="00AA"/>
  <outline>
    <contour>
      <point x="23.09" y="296.51" type="line"/>
      <point x="178.0" y="296.51" type="line"/>
      <point x="178.0" y="320.63" type="line"/>
      <point x="23.09" y="320.63" type="line"/>
    </contour>
    <component base="a.superior" xOffset="11.64"/>
  </outline>
</glyph>
<glyph name="logicalnot" format="2">
  <advance width="374.5"/>
  <unicode hex="00AC"/>
  <outline>
    <contour>
      <point x="42.91" y="375.27" type="line"/>
      <point x="299.9" y="375.27" type="line"/>
      <point x="299.9" y="177.18" type="line"/>
      <point x="332.5" y="177.18" type="line"/>
      <point x="332.5" y="407.87" type="line"/>
      <point x="42.91" y="407.87" type="line"/>
    </contour>
  </outline>
</glyph>
<glyph name="registered" format="2">
  <advance width="312.89"/>
  <unicode hex="00AE"/>
  <outline>
    <contour>
      <point x="156.9" y="208.0" type="curve" smooth="yes"/>
      <point x="242.05" y="208.0"/>
      <point x="280.07" y="291.02"/>
      <point x="280.07" y="550.09" type="curve" smooth="yes"/>
      <point x="280.07" y="810.16"/>
      <point x="242.05" y="892.0"/>
      <point x="156.9" y="892.0" type="curve" smooth="yes"/>
      <point x="71.75" y="892.0"/>
      <point x="32.82" y="810.16"/>
      <point x="32.82" y="550.09" type="curve" smooth="yes"/>
      <point x="32.82" y="291.02"/>
      <point x="71.75" y="208.0"/>
    </contour>
    <contour>
      <point x="156.9" y="227.24" type="curve" smooth="yes"/>
      <point x="86.37" y="227.24"/>
      <point x="53.06" y="306.38"/>
      <point x="53.06" y="550.09" type="curve" smooth="yes"/>
      <point x="53.06" y="794.71"/>
      <point x="86.37" y="872.94"/>
      <point x="156.9" y="872.94" type="curve" smooth="yes"/>
      <point x="227.7" y="872.94"/>
      <point x="260.65" y="794.71"/>
      <point x="260.65" y="550.09" type="curve" smooth="yes"/>
      <point x="260.65" y="306.38"/>
      <point x="227.7" y="227.24"/>
    </contour>
    <contour>
      <point x="218.84" y="394.88" type="curve" smooth="yes"/>
      <point x="222.11" y="394.88"/>
      <point x="223.92" y="394.88"/>
      <point x="229.01" y="395.88" type="curve"/>
      <point x="226.28" y="423.51" type="line"/>
      <point x="224.28" y="422.6"/>
      <point x="223.1" y="422.6"/>
      <point x="221.1" y="422.6" type="curve" smooth="yes"/>
      <point x="207.48" y="422.6"/>
      <point x="203.57999999999998" y="451.51"/>
      <point x="184.11" y="536.85" type="curve"/>
      <point x="211.01" y="553.12"/>
      <point x="215.0" y="589.92"/>
      <point x="215.0" y="632.54" type="curve" smooth="yes"/>
      <point x="215.0" y="695.87"/>
      <point x="195.12" y="721.76"/>
      <point x="151.88" y="721.76" type="curve" smooth="yes"/>
      <point x="137.46" y="721.76"/>
      <point x="121.3" y="719.67"/>
      <point x="103.23" y="715.76" type="curve"/>
      <point x="103.23" y="397.24" type="line"/>
      <point x="130.24" y="397.24" type="line"/>
      <point x="130.24" y="529.7" type="line"/>
      <point x="136.61" y="528.79"/>
      <point x="143.07" y="527.88"/>
      <point x="148.53" y="527.88" type="curve" smooth="yes"/>
      <point x="152.26" y="527.88"/>
      <point x="155.9" y="527.88"/>
      <point x="159.63" y="528.79" type="curve"/>
      <point x="187.9" y="407.44"/>
      <point x="194.41" y="394.88"/>
    </contour>
    <contour>
      <point x="145.88" y="551.19" type="curve" smooth="yes"/>
      <point x="140.97" y="551.19"/>
      <point x="135.24" y="551.19"/>
      <point x="130.24" y="552.19" type="curve"/>
      <point x="130.24" y="693.02" type="line"/>
      <point x="138.97" y="695.02"/>
      <point x="146.79" y="695.93"/>
      <point x="152.43" y="695.93" type="curve" smooth="yes"/>
      <point x="187.36" y="695.93"/>
      <point x="187.63" y="666.19"/>
      <point x="187.63" y="628.92" type="curve" smooth="yes"/>
      <point x="187.63" y="586.66"/>
      <point x="187.18" y="551.19"/>
    </contour>
  </outline>
</glyph>
<glyph name="degree" format="2">
  <advance width="227.18"/>
  <unicode hex="00B0"/>
  <outline>
    <contour>
      <point x="112.68" y="506.68" type="curve" smooth="yes"/>
      <point x="168.73" y="506.68"/>
      <point x="198.08" y="555.11"/>
      <point x="198.08" y="615.62" type="curve" smooth="yes"/>
      <point x="198.08" y="675.5"/>
      <point x="169.27" y="726.38"/>
      <point x="112.68" y="726.38" type="curve" smooth="yes"/>
      <point x="56.09" y="726.38"/>
      <point x="29.1" y="675.5"/>
      <point x="29.1" y="615.62" type="curve" smooth="yes"/>
      <point x="29.1" y="555.11"/>
      <point x="56.63" y="506.68"/>
    </contour>
    <contour>
      <point x="112.68" y="536.22" type="curve" smooth="yes"/>
      <point x="73.93" y="536.22"/>
      <point x="57.56" y="571.33"/>
      <point x="57.56" y="615.53" type="curve" smooth="yes"/>
      <point x="57.56" y="659.55"/>
      <point x="73.84" y="696.48"/>
      <point x="112.68" y="696.48" type="curve" smooth="yes"/>
      <point x="151.52" y="696.48"/>
      <point x="169.62" y="659.55"/>
      <point x="169.62" y="615.53" type="curve" smooth="yes"/>
      <point x="169.62" y="571.33"/>
      <point x="151.43" y="536.22"/>
    </contour>
  </outline>
</glyph>
<glyph name="plusminus" format="2">
  <advance width="403.62"/>
  <unicode hex="00B1"/>
  <outline>
    <contour>
      <point x="39.27" y="65.52" type="line"/>
      <point x="364.35" y="65.52" type="line"/>
      <point x="364.35" y="98.12" type="line"/>
      <point x="218.11" y="98.12" type="line"/>
      <point x="218.11" y="292.87" type="line"/>
      <point x="364.35" y="292.87" type="line"/>
      <point x="364.35" y="325.47" type="line"/>
      <point x="218.11" y="325.47" type="line"/>
      <point x="218.11" y="500.83" type="line"/>
      <point x="185.51" y="500.83" type="line"/>
      <point x="185.51" y="325.47" type="line"/>
      <point x="39.27" y="325.47" type="line"/>
      <point x="39.27" y="292.87" type="line"/>
      <point x="185.51" y="292.87" type="line"/>
      <point x="185.51" y="98.12" type="line"/>
      <point x="39.27" y="98.12" type="line"/>
    </contour>
  </outline>
</glyph>
<glyph name="uni00B2" format="2">
  <advance width="224.05"/>
  <unicode hex="00B2"/>
  <outline>
    <contour>
      <point x="51.02" y="370.0" type="line"/>
      <point x="181.03" y="370.0" type="line"/>
      <point x="181.03" y="392.75" type="line"/>
      <point x="76.56" y="392.75" type="line"/>
      <point x="139.01" y="537.08"/>
      <point x="164.29" y="614.12"/>
      <point x="164.29" y="673.12" type="curve" smooth="yes"/>
      <point x="164.29" y="738.28"/>
      <point x="141.4" y="775.91"/>
      <point x="101.16" y="775.91" type="curve" smooth="yes"/>
      <point x="79.27" y="775.91"/>
      <point x="60.01" y="769.37"/>
      <point x="42.21" y="745.46" type="curve"/>
      <point x="53.09" y="725.18" type="line"/>
      <point x="68.18" y="746.92"/>
      <point x="81.09" y="750.01"/>
      <point x="97.91" y="750.01" type="curve" smooth="yes"/>
      <point x="122.28" y="750.01"/>
      <point x="138.01" y="717.63"/>
      <point x="138.01" y="667.69" type="curve" smooth="yes"/>
      <point x="138.01" y="614.58"/>
      <point x="108.57" y="525.1"/>
      <point x="48.29" y="390.21" type="curve"/>
    </contour>
  </outline>
</glyph>
<glyph name="uni00B3" format="2">
  <advance width="225.22"/>
  <unicode hex="00B3"/>
  <outline>
    <contour>
      <point x="43.66" y="384.9" type="line"/>
      <point x="59.91" y="368.45"/>
      <point x="78.54" y="360.54"/>
      <point x="103.89" y="360.54" type="curve" smooth="yes"/>
      <point x="152.04" y="360.54"/>
      <point x="180.93" y="405.63"/>
      <point x="180.93" y="480.81" type="curve" smooth="yes"/>
      <point x="180.93" y="531.91"/>
      <point x="167.21" y="567.82"/>
      <point x="136.76" y="578.72" type="curve"/>
      <point x="160.48" y="591.71"/>
      <point x="172.2" y="626.71"/>
      <point x="172.2" y="669.81" type="curve" smooth="yes"/>
      <point x="172.2" y="733.54"/>
      <point x="145.4" y="774.27"/>
      <point x="103.34" y="774.27" type="curve" smooth="yes"/>
      <point x="83.09" y="774.27"/>
      <point x="64.29" y="766.91"/>
      <point x="50.67" y="753.01" type="curve"/>
      <point x="61.19" y="735.08" type="line"/>
      <point x="71.19" y="744.72"/>
      <point x="82.0" y="748.72"/>
      <point x="99.0" y="748.72" type="curve" smooth="yes"/>
      <point x="129.37" y="748.72"/>
      <point x="146.92" y="717.88"/>
      <point x="146.92" y="666.3" type="curve" smooth="yes"/>
      <point x="146.92" y="623.18"/>
      <point x="136.1" y="587.7"/>
      <point x="104.18" y="587.7" type="curve" smooth="yes"/>
      <point x="80.55" y="587.7" type="line"/>
      <point x="80.55" y="565.4" type="line"/>
      <point x="104.54" y="565.4" type="line" smooth="yes"/>
      <point x="143.01" y="565.4"/>
      <point x="153.74" y="532.56"/>
      <point x="153.74" y="481.89" type="curve" smooth="yes"/>
      <point x="153.74" y="421.03"/>
      <point x="134.28" y="385.46"/>
      <point x="101.36" y="385.46" type="curve" smooth="yes"/>
      <point x="80.81" y="385.46"/>
      <point x="68.81" y="391.19"/>
      <point x="56.27" y="403.92" type="curve"/>
    </contour>
  </outline>
</glyph>
<glyph name="uni00B5" format="2">
  <advance width="283.94"/>
  <unicode hex="00B5"/>
  <outline>
    <contour>
      <point x="41.75" y="-210.0" type="line"/>
      <point x="74.89" y="-210.0" type="line"/>
      <point x="74.89" y="15.93" type="line"/>
      <point x="87.99" y="-4.18"/>
      <point x="106.73" y="-9.82"/>
      <point x="126.65" y="-9.82" type="curve" smooth="yes"/>
      <point x="152.84" y="-9.82"/>
      <point x="183.03" y="0.54"/>
      <point x="204.86" y="15.54" type="curve"/>
      <point x="209.39" y="0.36"/>
      <point x="223.94" y="-10.0"/>
      <point x="244.82" y="-10.0" type="curve" smooth="yes"/>
      <point x="258.06" y="-10.0"/>
      <point x="270.68" y="-7.1"/>
      <point x="285.58" y="0.43999999999999995" type="curve"/>
      <point x="278.22" y="29.41" type="line"/>
      <point x="268.85" y="24.77"/>
      <point x="260.12" y="22.86"/>
      <point x="251.57" y="22.86" type="curve" smooth="yes"/>
      <point x="239.11" y="22.86"/>
      <point x="233.38" y="30.5"/>
      <point x="233.38" y="47.86" type="curve" smooth="yes"/>
      <point x="233.38" y="531.8" type="line"/>
      <point x="199.43" y="531.8" type="line"/>
      <point x="199.43" y="45.79" type="line"/>
      <point x="182.6" y="31.689999999999998"/>
      <point x="152.03" y="21.5"/>
      <point x="133.29" y="21.5" type="curve" smooth="yes"/>
      <point x="94.71" y="21.5"/>
      <point x="75.78999999999999" y="46.25"/>
      <point x="75.78999999999999" y="92.1" type="curve" smooth="yes"/>
      <point x="75.78999999999999" y="531.8" type="line"/>
      <point x="41.75" y="531.8" type="line"/>
    </contour>
  </outline>
</glyph>
<glyph name="paragraph" format="2">
  <advance width="394.84"/>
  <unicode hex="00B6"/>
  <outline>
    <contour>
      <point x="322.47" y="-210.0" type="line"/>
      <point x="352.91" y="-210.0" type="line"/>
      <point x="352.91" y="740.0" type="line"/>
      <point x="322.47" y="740.0" type="line"/>
    </contour>
    <contour>
      <point x="161.84" y="211.38" type="line"/>
      <point x="83.87" y="230.03"/>
      <point x="49.23" y="323.99"/>
      <point x="49.23" y="458.24" type="curve" smooth="yes"/>
      <point x="49.23" y="595.51"/>
      <point x="95.71" y="704.49"/>
      <point x="201.69" y="709.04" type="curve"/>
      <point x="201.69" y="-210.0" type="line"/>
      <point x="232.13" y="-210.0" type="line"/>
      <point x="232.13" y="740.0" type="line"/>
      <point x="210.92" y="740.0" type="line" smooth="yes"/>
      <point x="73.72" y="740.0"/>
      <point x="16.99" y="610.81"/>
      <point x="16.99" y="458.69" type="curve" smooth="yes"/>
      <point x="16.99" y="312.66"/>
      <point x="59.52" y="206.01"/>
      <point x="159.04" y="182.47" type="curve"/>
    </contour>
  </outline>
</glyph>
<glyph name="periodcentered" format="2">
  <advance width="99.9"/>
  <unicode hex="00B7"/>
  <outline>
    <contour>
      <point x="28.84" y="290.78" type="curve" smooth="yes"/>
      <point x="28.84" y="269.2"/>
      <point x="32.36" y="264.78"/>
      <point x="50.04" y="264.78" type="curve" smooth="yes"/>
      <point x="68.53999999999999" y="264.78"/>
      <point x="71.06" y="269.2"/>
      <point x="71.06" y="290.78" type="curve" smooth="yes"/>
      <point x="71.06" y="312.36"/>
      <point x="68.53999999999999" y="316.78"/>
      <point x="50.04" y="316.78" type="curve" smooth="yes"/>
      <point x="31.36" y="316.78"/>
      <point x="28.84" y="312.36"/>
    </contour>
  </outline>
</glyph>
<glyph name="uni00B9" format="2">
  <advance width="210.06"/>
  <unicode hex="00B9"/>
  <outline>
    <contour>
      <point x="27.73" y="370.0" type="line"/>
      <point x="183.59" y="370.0" type="line"/>
      <point x="183.59" y="393.66" type="line"/>
      <point x="122.3" y="393.66" type="line"/>
      <point x="122.3" y="769.91" type="line"/>
      <point x="108.25" y="769.91" type="line"/>
      <point x="26.74" y="704.51" type="line"/>
      <point x="35.55" y="681.41" type="line"/>
      <point x="95.11" y="733.18" type="line"/>
      <point x="95.11" y="393.66" type="line"/>
      <point x="27.73" y="393.66" type="line"/>
    </contour>
  </outline>
</glyph>
<glyph name="ordmasculine" format="2">
  <advance width="219.02"/>
  <unicode hex="00BA"/>
  <outline>
    <contour>
      <point x="32.46" y="296.51" type="line"/>
      <point x="187.37" y="296.51" type="line"/>
      <point x="187.37" y="320.63" type="line"/>
      <point x="32.46" y="320.63" type="line"/>
    </contour>
    <component base="o.superior" xOffset="18.92"/>
  </outline>
</glyph>
<glyph name="questiondown" format="2">
  <advance width="243.61"/>
  <unicode hex="00BF"/>
  <outline>
    <contour>
      <point x="167.88" y="267.26" type="line"/>
      <point x="135.91" y="267.26" type="line"/>
      <point x="135.91" y="189.71" type="line"/>
      <point x="67.1" y="112.58"/>
      <point x="32.46" y="65.8"/>
      <point x="32.46" y="-44.58" type="curve" smooth="yes"/>
      <point x="32.46" y="-163.48"/>
      <point x="86.81" y="-219.1"/>
      <point x="152.38" y="-219.1" type="curve" smooth="yes"/>
      <point x="190.36" y="-219.1"/>
      <point x="226.07" y="-198.19"/>
      <point x="252.97" y="-166.55" type="curve"/>
      <point x="236.38" y="-139.78" type="line"/>
      <point x="207.56" y="-171.61"/>
      <point x="180.09" y="-184.35"/>
      <point x="154.99" y="-184.35" type="curve" smooth="yes"/>
      <point x="104.78999999999999" y="-184.35"/>
      <point x="67.95" y="-128.86"/>
      <point x="67.95" y="-42.980000000000004" type="curve" smooth="yes"/>
      <point x="67.95" y="43.26"/>
      <point x="90.87" y="96.82"/>
      <point x="168.24" y="174.5" type="curve"/>
    </contour>
    <contour>
      <point x="173.87" y="505.71" type="curve" smooth="yes"/>
      <point x="173.87" y="527.29"/>
      <point x="168.71" y="531.71"/>
      <point x="151.85" y="531.71" type="curve" smooth="yes"/>
      <point x="134.26" y="531.71"/>
      <point x="130.74" y="527.29"/>
      <point x="130.74" y="505.71" type="curve" smooth="yes"/>
      <point x="130.74" y="484.04"/>
      <point x="134.26" y="479.62"/>
      <point x="151.85" y="479.62" type="curve" smooth="yes"/>
      <point x="170.53" y="479.62"/>
      <point x="173.87" y="484.04"/>
    </contour>
  </outline>
</glyph>
<glyph name="AE" format="2">
  <advance width="454.36"/>
  <unicode hex="00C6"/>
  <anchor x="260.71" y="700.0" name="top"/>
  <outline>
    <contour>
      <point x="18.38" y="0.0" type="line"/>
      <point x="53.95" y="-0.91" type="line"/>
      <point x="142.93" y="305.75" type="line"/>
      <point x="245.4" y="305.75" type="line"/>
      <point x="245.4" y="0.0" type="line"/>
      <point x="443.27" y="0.0" type="line"/>
      <point x="443.27" y="34.22" type="line"/>
      <point x="278.81" y="34.22" type="line"/>
      <point x="278.81" y="319.51" type="line"/>
      <point x="417.46" y="319.51" type="line"/>
      <point x="417.46" y="352.83" type="line"/>
      <point x="278.81" y="352.83" type="line"/>
      <point x="278.81" y="665.33" type="line"/>
      <point x="433.18" y="665.33" type="line"/>
      <point x="433.18" y="700.0" type="line"/>
      <point x="221.5" y="700.0" type="line"/>
    </contour>
    <contour>
      <point x="150.27" y="338.79" type="line"/>
      <point x="245.22" y="671.91" type="line"/>
      <point x="245.22" y="338.79" type="line"/>
    </contour>
  </outline>
</glyph>
<glyph name="multiply" format="2">
  <advance width="356.3"/>
  <unicode hex="00D7"/>
  <outline>
    <contour>
      <point x="78.48" y="83.74" type="line"/>
      <point x="177.24" y="263.49" type="line"/>
      <point x="277.82" y="84.65" type="line"/>
      <point x="304.37" y="103.00999999999999" type="line"/>
      <point x="198.33" y="292.77" type="line"/>
      <point x="303.46" y="484.35" type="line"/>
      <point x="276.91" y="502.71" type="line"/>
      <point x="177.24" y="322.96" type="line"/>
      <point x="78.48" y="502.71" type="line"/>
      <point x="51.93" y="484.35" type="line"/>
      <point x="157.06" y="292.77" type="line"/>
      <point x="51.93" y="102.1" type="line"/>
    </contour>
  </outline>
</glyph>
<glyph name="Oslash" format="2">
  <advance width="310.16"/>
  <unicode hex="00D8"/>
  <anchor x="154.76" y="700.0" name="top"/>
  <outline>
    <contour>
      <point x="52.2" y="-10.0" type="line"/>
      <point x="72.56" y="54.0" type="line"/>
      <point x="78.28" y="62.02" type="line"/>
      <point x="248.46" y="605.32" type="line"/>
      <point x="254.0" y="613.98" type="line"/>
      <point x="285.24" y="710.9" type="line"/>
      <point x="258.32" y="710.9" type="line"/>
      <point x="236.7" y="642.48" type="line"/>
      <point x="230.98" y="634.46" type="line"/>
      <point x="61.88" y="95.58" type="line"/>
      <point x="57.34" y="90.2" type="line"/>
      <point x="25.28" y="-10.0" type="line"/>
    </contour>
    <contour>
      <point x="154.76" y="20.78" type="curve" smooth="yes"/>
      <point x="87.53999999999999" y="20.78"/>
      <point x="60.24" y="86.18"/>
      <point x="60.24" y="349.0" type="curve" smooth="yes"/>
      <point x="60.24" y="613.64"/>
      <point x="87.53999999999999" y="679.22"/>
      <point x="154.76" y="679.22" type="curve" smooth="yes"/>
      <point x="222.98" y="679.22"/>
      <point x="250.28" y="613.82"/>
      <point x="250.28" y="349.18" type="curve" smooth="yes"/>
      <point x="250.28" y="86.36"/>
      <point x="222.98" y="20.78"/>
    </contour>
    <contour>
      <point x="154.76" y="-10.0" type="curve" smooth="yes"/>
      <point x="245.62" y="-10.0"/>
      <point x="283.96" y="62.44"/>
      <point x="283.96" y="349.36" type="curve" smooth="yes"/>
      <point x="283.96" y="637.74"/>
      <point x="245.8" y="710.0"/>
      <point x="154.76" y="710.0" type="curve" smooth="yes"/>
      <point x="64.72" y="710.0"/>
      <point x="26.56" y="637.56"/>
      <point x="26.56" y="349.0" type="curve" smooth="yes"/>
      <point x="26.56" y="62.26"/>
      <point x="64.72" y="-10.0"/>
    </contour>
  </outline>
</glyph>
<glyph name="Thorn" format="2">
  <advance width="265.01"/>
  <unicode hex="00DE"/>
  <outline>
    <contour>
      <point x="41.11" y="0.0" type="line"/>
      <point x="75.15" y="0.0" type="line"/>
      <point x="75.15" y="178.81" type="line"/>
      <point x="86.77" y="177.54"/>
      <point x="100.78" y="177.54"/>
      <point x="117.32" y="177.54" type="curve" smooth="yes"/>
      <point x="204.74" y="177.54"/>
      <point x="249.55" y="242.51"/>
      <point x="249.55" y="401.57" type="curve" smooth="yes"/>
      <point x="249.55" y="555.36"/>
      <point x="217.39" y="606.23"/>
      <point x="116.45" y="606.23" type="curve" smooth="yes"/>
      <point x="103.35" y="606.23"/>
      <point x="90.16" y="605.32"/>
      <point x="75.24" y="603.5" type="curve"/>
      <point x="75.24" y="700.0" type="line"/>
      <point x="41.11" y="700.0" type="line"/>
    </contour>
    <contour>
      <point x="115.26" y="211.49" type="curve" smooth="yes"/>
      <point x="100.07" y="211.49"/>
      <point x="87.88" y="211.49"/>
      <point x="75.24" y="212.58" type="curve"/>
      <point x="75.24" y="570.82" type="line"/>
      <point x="90.78999999999999" y="573.82"/>
      <point x="105.34" y="574.73"/>
      <point x="118.44" y="574.73" type="curve" smooth="yes"/>
      <point x="197.59" y="574.73"/>
      <point x="215.51" y="525.71"/>
      <point x="215.51" y="399.92" type="curve" smooth="yes"/>
      <point x="215.51" y="265.85"/>
      <point x="182.57" y="211.49"/>
    </contour>
  </outline>
</glyph>
<glyph name="germandbls" format="2">
  <advance width="340.22"/>
  <unicode hex="00DF"/>
  <outline>
    <contour>
      <point x="68.84" y="0.0" type="line"/>
      <point x="102.7" y="0.0" type="line"/>
      <point x="102.7" y="544.2" type="line" smooth="yes"/>
      <point x="102.7" y="660.64"/>
      <point x="132.98" y="717.5"/>
      <point x="199.9" y="717.5" type="curve" smooth="yes"/>
      <point x="244.36" y="717.5"/>
      <point x="275.02" y="689.12"/>
      <point x="275.02" y="641.64" type="curve" smooth="yes"/>
      <point x="275.02" y="599.06"/>
      <point x="261.0" y="575.32"/>
      <point x="218.72" y="536.94" type="curve" smooth="yes"/>
      <point x="179.82" y="501.3"/>
      <point x="158.92" y="458.38"/>
      <point x="158.92" y="412.5" type="curve" smooth="yes"/>
      <point x="158.92" y="352.82"/>
      <point x="172.98" y="322.1"/>
      <point x="231.24" y="257.88" type="curve" smooth="yes"/>
      <point x="286.34" y="196.28"/>
      <point x="302.8" y="163.16"/>
      <point x="302.8" y="115.58" type="curve" smooth="yes"/>
      <point x="302.8" y="60.08"/>
      <point x="271.68" y="22.6"/>
      <point x="219.86" y="22.6" type="curve" smooth="yes"/>
      <point x="190.88" y="22.6"/>
      <point x="166.14" y="28.96"/>
      <point x="147.16" y="38.96" type="curve"/>
      <point x="135.72" y="9.9" type="line"/>
      <point x="156.52" y="-2.82"/>
      <point x="188.68" y="-10.0"/>
      <point x="221.66" y="-10.0" type="curve" smooth="yes"/>
      <point x="291.88" y="-10.0"/>
      <point x="335.4" y="38.98"/>
      <point x="335.4" y="116.66" type="curve" smooth="yes"/>
      <point x="335.4" y="175.9"/>
      <point x="313.6" y="219.26"/>
      <point x="254.98" y="283.12" type="curve" smooth="yes"/>
      <point x="202.06" y="342.36"/>
      <point x="192.06" y="368.0"/>
      <point x="192.06" y="413.76" type="curve" smooth="yes"/>
      <point x="192.06" y="451.42"/>
      <point x="209.16" y="486.18"/>
      <point x="244.62" y="518.56" type="curve" smooth="yes"/>
      <point x="289.32" y="558.1"/>
      <point x="309.78" y="593.28"/>
      <point x="309.78" y="642.36" type="curve" smooth="yes"/>
      <point x="309.78" y="709.94"/>
      <point x="266.54" y="750.0"/>
      <point x="199.18" y="750.0" type="curve" smooth="yes"/>
      <point x="111.88" y="750.0"/>
      <point x="68.84" y="684.3"/>
      <point x="68.84" y="556.2" type="curve" smooth="yes"/>
      <point x="68.84" y="488.96" type="line"/>
      <point x="10.46" y="482.78" type="line"/>
      <point x="10.46" y="457.26" type="line"/>
      <point x="68.84" y="457.26" type="line"/>
    </contour>
  </outline>
</glyph>
<glyph name="ae" format="2">
  <advance width="416.19"/>
  <unicode hex="00E6"/>
  <anchor x="208.55" y="531.8" name="top"/>
  <outline>
    <contour>
      <point x="98.6" y="-10.0" type="curve" smooth="yes"/>
      <point x="136.31" y="-10.0"/>
      <point x="172.31" y="13.19"/>
      <point x="207.39" y="60.56" type="curve"/>
      <point x="208.39" y="60.56" type="line"/>
      <point x="227.28" y="12.55"/>
      <point x="255.81" y="-10.0"/>
      <point x="299.52" y="-10.0" type="curve" smooth="yes"/>
      <point x="330.77" y="-10.0"/>
      <point x="359.11" y="-4.28"/>
      <point x="384.17" y="7.98" type="curve"/>
      <point x="377.46" y="38.67" type="line"/>
      <point x="353.11" y="28.58"/>
      <point x="326.13" y="23.22"/>
      <point x="303.49" y="23.22" type="curve" smooth="yes"/>
      <point x="241.11" y="23.22"/>
      <point x="216.29" y="76.99"/>
      <point x="216.29" y="259.15" type="curve" smooth="yes"/>
      <point x="216.29" y="264.88"/>
      <point x="216.29" y="270.52"/>
      <point x="216.29" y="276.25" type="curve"/>
      <point x="298.41" y="276.7"/>
      <point x="357.73" y="289.61"/>
      <point x="393.18" y="295.61" type="curve"/>
      <point x="393.27" y="300.23"/>
      <point x="394.27" y="306.75"/>
      <point x="394.27" y="322.66" type="curve" smooth="yes"/>
      <point x="394.27" y="469.98"/>
      <point x="361.56" y="541.8"/>
      <point x="291.53" y="541.8" type="curve" smooth="yes"/>
      <point x="245.25" y="541.8"/>
      <point x="216.89" y="504.41"/>
      <point x="204.0" y="442.28" type="curve"/>
      <point x="203.0" y="442.28" type="line"/>
      <point x="200.4" y="506.32"/>
      <point x="170.86" y="541.8"/>
      <point x="116.85" y="541.8" type="curve" smooth="yes"/>
      <point x="90.05" y="541.8"/>
      <point x="61.18" y="535.9"/>
      <point x="33.56" y="524.18" type="curve"/>
      <point x="43.26" y="493.68" type="line"/>
      <point x="68.32" y="503.49"/>
      <point x="92.13" y="507.13"/>
      <point x="115.41" y="507.13" type="curve" smooth="yes"/>
      <point x="159.52" y="507.13"/>
      <point x="182.98" y="476.93"/>
      <point x="182.98" y="414.25" type="curve" smooth="yes"/>
      <point x="182.98" y="299.5" type="line"/>
      <point x="56.27" y="259.29"/>
      <point x="8.55" y="208.56"/>
      <point x="8.55" y="111.22" type="curve" smooth="yes"/>
      <point x="8.55" y="35.07"/>
      <point x="42.17" y="-10.0"/>
    </contour>
    <contour>
      <point x="105.55" y="20.34" type="curve" smooth="yes"/>
      <point x="65.52" y="20.34"/>
      <point x="42.05" y="56.18"/>
      <point x="42.05" y="117.39" type="curve" smooth="yes"/>
      <point x="42.05" y="194.43"/>
      <point x="87.27" y="243.1"/>
      <point x="183.07" y="272.49" type="curve"/>
      <point x="183.07" y="263.22"/>
      <point x="183.07" y="254.59"/>
      <point x="183.07" y="245.32" type="curve" smooth="yes"/>
      <point x="183.07" y="178.18"/>
      <point x="189.44" y="125.33"/>
      <point x="195.81" y="88.22" type="curve"/>
      <point x="170.24" y="47.0"/>
      <point x="135.03" y="20.34"/>
    </contour>
    <contour>
      <point x="216.11" y="302.35" type="curve"/>
      <point x="215.84" y="450.69"/>
      <point x="240.86" y="512.37"/>
      <point x="289.9" y="512.37" type="curve" smooth="yes"/>
      <point x="337.39" y="512.37"/>
      <point x="360.41" y="448.69"/>
      <point x="360.59" y="318.0" type="curve"/>
      <point x="332.93" y="309.72"/>
      <point x="261.33" y="302.35"/>
    </contour>
  </outline>
</glyph>
<glyph name="eth" format="2">
  <advance width="264.04"/>
  <unicode hex="00F0"/>
  <outline>
    <contour>
      <point x="211.24" y="491.82" type="curve"/>
      <point x="213.96" y="521.54" type="line"/>
      <point x="200.06" y="534.0"/>
      <point x="179.7" y="540.0"/>
      <point x="156.88" y="540.0" type="curve" smooth="yes"/>
      <point x="62.46" y="540.0"/>
      <point x="27.38" y="456.92"/>
      <point x="27.38" y="255.1" type="curve" smooth="yes"/>
      <point x="27.38" y="61.08"/>
      <point x="56.44" y="-10.0"/>
      <point x="131.66" y="-10.0" type="curve" smooth="yes"/>
      <point x="212.68" y="-10.0"/>
      <point x="237.2" y="62.62"/>
      <point x="237.2" y="321.06" type="curve" smooth="yes"/>
      <point x="237.2" y="599.8"/>
      <point x="212.9" y="713.6"/>
      <point x="91.68" y="713.6" type="curve" smooth="yes"/>
      <point x="68.34" y="713.6"/>
      <point x="51.64" y="709.7"/>
      <point x="26.92" y="702.16" type="curve"/>
      <point x="34.18" y="676.34" type="line"/>
      <point x="53.0" y="682.34"/>
      <point x="65.9" y="685.7"/>
      <point x="86.08" y="685.7" type="curve" smooth="yes"/>
      <point x="178.98" y="685.7"/>
      <point x="203.8" y="603.48"/>
      <point x="203.8" y="321.94" type="curve" smooth="yes"/>
      <point x="203.8" y="85.4"/>
      <point x="188.24" y="18.08"/>
      <point x="133.2" y="18.08" type="curve" smooth="yes"/>
      <point x="79.34" y="18.08"/>
      <point x="61.96" y="80.48"/>
      <point x="61.96" y="255.1" type="curve" smooth="yes"/>
      <point x="61.96" y="442.96"/>
      <point x="90.62" y="511.56"/>
      <point x="159.76" y="511.56" type="curve" smooth="yes"/>
      <point x="176.68" y="511.56"/>
      <point x="195.6" y="508.56"/>
    </contour>
    <contour>
      <point x="78.72" y="564.92" type="line"/>
      <point x="176.12" y="649.86" type="line"/>
      <point x="179.12" y="652.12" type="line"/>
      <point x="255.78" y="719.06" type="line"/>
      <point x="222.06" y="719.06" type="line"/>
      <point x="168.16" y="672.34" type="line"/>
      <point x="165.24" y="669.98" type="line"/>
      <point x="44.18" y="564.92" type="line"/>
    </contour>
  </outline>
</glyph>
<glyph name="divide" format="2">
  <advance width="374.5"/>
  <unicode hex="00F7"/>
  <outline>
    <contour>
      <point x="166.5" y="98.0" type="curve" smooth="yes"/>
      <point x="166.5" y="78.22"/>
      <point x="169.02" y="74.52"/>
      <point x="187.34" y="74.52" type="curve" smooth="yes"/>
      <point x="205.48" y="74.52"/>
      <point x="208.18" y="78.22"/>
      <point x="208.18" y="98.0" type="curve" smooth="yes"/>
      <point x="208.18" y="117.78"/>
      <point x="204.66" y="121.48"/>
      <point x="187.34" y="121.48" type="curve" smooth="yes"/>
      <point x="169.02" y="121.48"/>
      <point x="166.5" y="117.78"/>
    </contour>
    <contour>
      <point x="166.5" y="487.38" type="curve" smooth="yes"/>
      <point x="166.5" y="467.6"/>
      <point x="169.84" y="464.08"/>
      <point x="187.34" y="464.08" type="curve" smooth="yes"/>
      <point x="205.48" y="464.08"/>
      <point x="208.18" y="467.6"/>
      <point x="208.18" y="487.38" type="curve" smooth="yes"/>
      <point x="208.18" y="507.34"/>
      <point x="205.48" y="510.86"/>
      <point x="187.34" y="510.86" type="curve" smooth="yes"/>
      <point x="169.02" y="510.86"/>
      <point x="166.5" y="507.34"/>
    </contour>
    <contour>
      <point x="39.36" y="276.48" type="line"/>
      <point x="335.32" y="276.48" type="line"/>
      <point x="335.32" y="309.08" type="line"/>
      <point x="39.36" y="309.08" type="line"/>
    </contour>
  </outline>
</glyph>
<glyph name="oslash" format="2">
  <advance width="267.12"/>
  <unicode hex="00F8"/>
  <anchor x="133.2" y="531.8" name="top"/>
  <outline>
    <contour>
      <point x="133.2" y="-10.0" type="curve" smooth="yes"/>
      <point x="55.38" y="-10.0"/>
      <point x="27.2" y="50.84"/>
      <point x="27.2" y="266.08" type="curve" smooth="yes"/>
      <point x="27.2" y="481.32"/>
      <point x="55.38" y="541.8"/>
      <point x="133.2" y="541.8" type="curve" smooth="yes"/>
      <point x="211.02" y="541.8"/>
      <point x="239.38" y="481.32"/>
      <point x="239.38" y="266.08" type="curve" smooth="yes"/>
      <point x="239.38" y="50.84"/>
      <point x="211.02" y="-10.0"/>
    </contour>
    <contour>
      <point x="133.38" y="20.240000000000002" type="curve" smooth="yes"/>
      <point x="185.32" y="20.240000000000002"/>
      <point x="205.7" y="68.46"/>
      <point x="205.7" y="266.08" type="curve" smooth="yes"/>
      <point x="205.7" y="463.7"/>
      <point x="185.32" y="511.74"/>
      <point x="133.38" y="511.74" type="curve" smooth="yes"/>
      <point x="81.26" y="511.74"/>
      <point x="61.06" y="463.7"/>
      <point x="61.06" y="266.08" type="curve" smooth="yes"/>
      <point x="61.06" y="68.46"/>
      <point x="81.26" y="20.240000000000002"/>
    </contour>
    <contour>
      <point x="25.2" y="-9.1" type="line"/>
      <point x="54.68" y="75.78" type="line"/>
      <point x="57.4" y="75.42" type="line"/>
      <point x="194.3" y="492.18" type="line"/>
      <point x="197.38" y="491.82" type="line"/>
      <point x="214.18" y="541.8" type="line"/>
      <point x="241.38" y="541.8" type="line"/>
      <point x="213.24" y="459.5" type="line"/>
      <point x="210.34" y="459.86" type="line"/>
      <point x="73.18" y="42.86" type="line"/>
      <point x="70.1" y="43.22" type="line"/>
      <point x="52.4" y="-9.1" type="line"/>
    </contour>
  </outline>
</glyph>
<glyph name="thorn" format="2">
  <advance width="270.31"/>
  <unicode hex="00FE"/>
  <outline>
    <contour>
      <point x="41.75" y="-210.0" type="line"/>
      <point x="75.52" y="-210.0" type="line"/>
      <point x="75.52" y="-2.7199999999999998" type="line"/>
      <point x="93.08" y="-8.18"/>
      <point x="106.91" y="-10.0"/>
      <point x="119.92" y="-10.0" type="curve" smooth="yes"/>
      <point x="209.86" y="-10.0"/>
      <point x="243.02" y="67.45"/>
      <point x="243.02" y="277.62" type="curve" smooth="yes"/>
      <point x="243.02" y="449.88"/>
      <point x="209.12" y="541.8"/>
      <point x="143.88" y="541.8" type="curve" smooth="yes"/>
      <point x="121.06" y="541.8"/>
      <point x="91.88" y="532.62"/>
      <point x="75.7" y="521.35" type="curve"/>
      <point x="75.7" y="740.0" type="line"/>
      <point x="41.75" y="740.0" type="line"/>
    </contour>
    <contour>
      <point x="115.73" y="18.61" type="curve" smooth="yes"/>
      <point x="104.63" y="18.61"/>
      <point x="96.17" y="20.52"/>
      <point x="75.78999999999999" y="26.16" type="curve"/>
      <point x="75.78999999999999" y="489.56" type="line"/>
      <point x="98.9" y="505.39"/>
      <point x="112.64" y="510.12"/>
      <point x="134.02" y="510.12" type="curve" smooth="yes"/>
      <point x="182.42" y="510.12"/>
      <point x="208.08" y="429.33"/>
      <point x="208.08" y="275.73" type="curve" smooth="yes"/>
      <point x="208.08" y="81.38"/>
      <point x="185.15" y="18.61"/>
    </contour>
  </outline>
</glyph>
<glyph name="Dcroat" format="2">
  <advance width="306.69"/>
  <unicode hex="0110"/>
  <outline>
    <contour>
      <point x="6.1" y="342.62" type="line"/>
      <point x="177.05" y="342.62" type="line"/>
      <point x="177.05" y="375.49" type="line"/>
      <point x="6.1" y="375.49" type="line"/>
    </contour>
    <component base="D" xOffset="6.37"/>
  </outline>
</glyph>
<glyph name="dcroat" format="2">
  <advance width="271.03"/>
  <unicode hex="0111"/>
  <outline>
    <contour>
      <point x="116.7" y="616.83" type="line"/>
      <point x="270.29" y="616.83" type="line"/>
      <point x="270.29" y="642.57" type="line"/>
      <point x="116.7" y="642.57" type="line"/>
    </contour>
    <component base="d"/>
  </outline>
</glyph>
<glyph name="Hbar" format="2">
  <advance width="319.25"/>
  <unicode hex="0126"/>
  <outline>
    <contour>
      <point x="11.56" y="502.09" type="line"/>
      <point x="41.11" y="502.09" type="line"/>
      <point x="41.11" y="0.0" type="line"/>
      <point x="75.06" y="0.0" type="line"/>
      <point x="75.06" y="285.33" type="line"/>
      <point x="244.19" y="285.33" type="line"/>
      <point x="244.19" y="0.0" type="line"/>
      <point x="278.14" y="0.0" type="line"/>
      <point x="278.14" y="502.09" type="line"/>
      <point x="307.69" y="502.09" type="line"/>
      <point x="307.69" y="530.79" type="line"/>
      <point x="278.14" y="530.79" type="line"/>
      <point x="278.14" y="700.0" type="line"/>
      <point x="244.19" y="700.0" type="line"/>
      <point x="244.19" y="530.79" type="line"/>
      <point x="75.06" y="530.79" type="line"/>
      <point x="75.06" y="700.0" type="line"/>
      <point x="41.11" y="700.0" type="line"/>
      <point x="41.11" y="530.79" type="line"/>
      <point x="11.56" y="530.79" type="line"/>
    </contour>
    <contour>
      <point x="75.06" y="319.27" type="line"/>
      <point x="75.06" y="502.09" type="line"/>
      <point x="244.19" y="502.09" type="line"/>
      <point x="244.19" y="319.27" type="line"/>
    </contour>
  </outline>
</glyph>
<glyph name="hbar" format="2">
  <advance width="274.95"/>
  <unicode hex="0127"/>
  <outline>
    <contour>
      <point x="2.01" y="616.83" type="line"/>
      <point x="153.71" y="616.83" type="line"/>
      <point x="153.71" y="642.57" type="line"/>
      <point x="2.01" y="642.57" type="line"/>
    </contour>
    <component base="h"/>
  </outline>
</glyph>
<glyph name="Idotaccent" format="2">
  <advance width="116.17"/>
  <unicode hex="0130"/>
  <outline>
    <contour>
      <point x="58.22" y="799.08" type="curve" smooth="yes"/>
      <point x="76.72" y="799.08"/>
      <point x="79.78" y="803.32"/>
      <point x="79.78" y="824.45" type="curve" smooth="yes"/>
      <point x="79.78" y="845.76"/>
      <point x="76.53999999999999" y="849.91"/>
      <point x="58.22" y="849.91" type="curve" smooth="yes"/>
      <point x="39.81" y="849.91"/>
      <point x="36.57" y="845.76"/>
      <point x="36.57" y="824.45" type="curve" smooth="yes"/>
      <point x="36.57" y="803.23"/>
      <point x="40.72" y="799.08"/>
    </contour>
    <component base="I"/>
  </outline>
</glyph>
<glyph name="dotlessi" format="2">
  <advance width="117.72"/>
  <unicode hex="0131"/>
  <anchor x="75.61" y="0.8999999999999999" name="ogonek"/>
  <anchor x="59.04" y="0.0" name="bottom"/>
  <anchor x="58.86" y="531.8" name="top"/>
  <outline>
    <contour>
      <point x="41.75" y="0.0" type="line"/>
      <point x="75.97" y="0.0" type="line"/>
      <point x="75.97" y="531.8" type="line"/>
      <point x="41.75" y="531.8" type="line"/>
    </contour>
  </outline>
</glyph>
<glyph name="Ldot" format="2">
  <advance width="220.33"/>
  <unicode hex="013F"/>
  <outline>
    <contour>
      <point x="151.2" y="360.51" type="curve" smooth="yes"/>
      <point x="151.2" y="341.45"/>
      <point x="153.73" y="338.29"/>
      <point x="169.25" y="338.29" type="curve" smooth="yes"/>
      <point x="185.77" y="338.29"/>
      <point x="187.39" y="341.45"/>
      <point x="187.39" y="360.51" type="curve" smooth="yes"/>
      <point x="187.39" y="379.66"/>
      <point x="185.77" y="382.82"/>
      <point x="169.25" y="382.82" type="curve" smooth="yes"/>
      <point x="152.82" y="382.82"/>
      <point x="151.2" y="379.66"/>
    </contour>
    <component base="L"/>
  </outline>
</glyph>
<glyph name="ldot" format="2">
  <advance width="153.52"/>
  <unicode hex="0140"/>
  <outline>
    <contour>
      <point x="134.03" y="336.31" type="curve" smooth="yes"/>
      <point x="150.1" y="336.31"/>
      <point x="152.26" y="339.29"/>
      <point x="152.26" y="358.71" type="curve" smooth="yes"/>
      <point x="152.26" y="378.22"/>
      <point x="150.1" y="381.2"/>
      <point x="134.03" y="381.2" type="curve" smooth="yes"/>
      <point x="118.05" y="381.2"/>
      <point x="115.89" y="378.22"/>
      <point x="115.89" y="358.71" type="curve" smooth="yes"/>
      <point x="115.89" y="339.29"/>
      <point x="118.96" y="336.31"/>
    </contour>
    <component base="l"/>
  </outline>
</glyph>
<glyph name="Lslash" format="2">
  <advance width="243.7"/>
  <unicode hex="0141"/>
  <outline>
    <contour>
      <point x="22.38" y="213.73" type="line"/>
      <point x="64.48" y="255.48" type="line"/>
      <point x="64.48" y="0.0" type="line"/>
      <point x="239.16" y="0.0" type="line"/>
      <point x="239.16" y="33.31" type="line"/>
      <point x="98.52" y="33.31" type="line"/>
      <point x="98.52" y="280.05" type="line"/>
      <point x="214.18" y="393.57" type="line"/>
      <point x="214.18" y="432.89" type="line"/>
      <point x="98.52" y="320.28" type="line"/>
      <point x="98.52" y="700.0" type="line"/>
      <point x="64.48" y="700.0" type="line"/>
      <point x="64.48" y="295.71" type="line"/>
      <point x="22.38" y="253.96" type="line"/>
    </contour>
  </outline>
</glyph>
<glyph name="lslash" format="2">
  <advance width="144.7"/>
  <unicode hex="0142"/>
  <outline>
    <contour>
      <point x="104.39" y="-10.0" type="curve" smooth="yes"/>
      <point x="115.73" y="-10.0"/>
      <point x="129.44" y="-6.92"/>
      <point x="141.8" y="-1.29" type="curve"/>
      <point x="137.26" y="31.57" type="line"/>
      <point x="123.16" y="26.93"/>
      <point x="115.34" y="25.93"/>
      <point x="109.52" y="25.93" type="curve" smooth="yes"/>
      <point x="88.51" y="25.93"/>
      <point x="76.87" y="37.48"/>
      <point x="76.87" y="124.81" type="curve" smooth="yes"/>
      <point x="76.87" y="280.37" type="line"/>
      <point x="143.62" y="345.67" type="line"/>
      <point x="143.62" y="382.92" type="line"/>
      <point x="76.87" y="317.62" type="line"/>
      <point x="76.87" y="740.0" type="line"/>
      <point x="42.92" y="740.0" type="line"/>
      <point x="42.92" y="284.83" type="line"/>
      <point x="0.27" y="243.45" type="line"/>
      <point x="0.27" y="207.11" type="line"/>
      <point x="42.92" y="247.58" type="line"/>
      <point x="42.92" y="120.58" type="line" smooth="yes"/>
      <point x="42.92" y="9.51"/>
      <point x="62.17" y="-10.0"/>
    </contour>
  </outline>
</glyph>
<glyph name="Eng" format="2">
  <advance width="316.41"/>
  <unicode hex="014A"/>
  <outline>
    <contour>
      <point x="41.11" y="0.0" type="line"/>
      <point x="73.17" y="0.0" type="line"/>
      <point x="73.17" y="597.05" type="line"/>
      <point x="241.71" y="5.74" type="line"/>
      <point x="241.71" y="-12.55" type="line" smooth="yes"/>
      <point x="241.71" y="-77.33"/>
      <point x="216.24" y="-101.8"/>
      <point x="162.02" y="-101.8" type="curve" smooth="yes"/>
      <point x="159.03" y="-101.8"/>
      <point x="155.22" y="-101.8"/>
      <point x="151.69" y="-100.99" type="curve"/>
      <point x="148.72" y="-133.13" type="line"/>
      <point x="153.15" y="-134.84"/>
      <point x="159.03" y="-136.28"/>
      <point x="166.25" y="-136.28" type="curve" smooth="yes"/>
      <point x="256.7" y="-136.28"/>
      <point x="275.3" y="-81.84"/>
      <point x="275.3" y="-10.54" type="curve" smooth="yes"/>
      <point x="275.3" y="700.0" type="line"/>
      <point x="243.24" y="700.0" type="line"/>
      <point x="243.24" y="103.71" type="line"/>
      <point x="75.23" y="700.0" type="line"/>
      <point x="41.11" y="700.0" type="line"/>
    </contour>
  </outline>
</glyph>
<glyph name="eng" format="2">
  <advance width="275.04"/>
  <unicode hex="014B"/>
  <outline>
    <contour>
      <point x="233.47" y="14.45" type="curve"/>
      <point x="233.47" y="444.65" type="line" smooth="yes"/>
      <point x="233.47" y="515.46"/>
      <point x="198.56" y="541.8"/>
      <point x="155.59" y="541.8" type="curve" smooth="yes"/>
      <point x="127.06" y="541.8"/>
      <point x="95.34" y="531.26"/>
      <point x="74.26" y="516.73" type="curve"/>
      <point x="74.26" y="531.8" type="line"/>
      <point x="41.75" y="531.8" type="line"/>
      <point x="41.75" y="0.0" type="line"/>
      <point x="75.78999999999999" y="0.0" type="line"/>
      <point x="75.78999999999999" y="485.56" type="line"/>
      <point x="92.53" y="499.48"/>
      <point x="123.01" y="509.85"/>
      <point x="141.93" y="509.85" type="curve" smooth="yes"/>
      <point x="180.78" y="509.85"/>
      <point x="199.43" y="484.83"/>
      <point x="199.43" y="439.25" type="curve" smooth="yes"/>
      <point x="199.43" y="13.91" type="line" smooth="yes"/>
      <point x="199.43" y="-77.07"/>
      <point x="181.87" y="-136.03"/>
      <point x="150.3" y="-165.15" type="curve" smooth="yes"/>
      <point x="145.48" y="-169.7"/>
      <point x="140.39" y="-173.25"/>
      <point x="134.75" y="-175.89" type="curve"/>
      <point x="142.22" y="-209.36" type="line"/>
      <point x="151.12" y="-205.26"/>
      <point x="159.29" y="-199.98"/>
      <point x="167.91" y="-194.52" type="curve" smooth="yes"/>
      <point x="210.5" y="-160.85"/>
      <point x="233.47" y="-93.69"/>
    </contour>
  </outline>
</glyph>
<glyph name="OE" format="2">
  <advance width="434.22"/>
  <unicode hex="0152"/>
  <outline>
    <contour>
      <point x="423.13" y="0.0" type="line"/>
      <point x="423.13" y="34.22" type="line"/>
      <point x="259.3" y="34.22" type="line"/>
      <point x="259.3" y="344.99" type="line"/>
      <point x="397.32" y="344.99" type="line"/>
      <point x="397.32" y="378.31" type="line"/>
      <point x="259.3" y="378.31" type="line"/>
      <point x="259.3" y="665.33" type="line"/>
      <point x="413.04" y="665.33" type="line"/>
      <point x="413.04" y="700.0" type="line"/>
      <point x="254.71" y="700.0" type="line"/>
      <point x="233.28" y="703.45"/>
      <point x="206.66" y="704.54"/>
      <point x="179.03" y="704.54" type="curve" smooth="yes"/>
      <point x="84.2" y="704.54"/>
      <point x="26.29" y="654.34"/>
      <point x="26.29" y="350.36" type="curve" smooth="yes"/>
      <point x="26.29" y="66.18"/>
      <point x="76.99" y="-6.36"/>
      <point x="174.67" y="-6.36" type="curve" smooth="yes"/>
      <point x="198.47" y="-6.36"/>
      <point x="227.25" y="-4.45"/>
      <point x="259.21" y="0.0" type="curve"/>
    </contour>
    <contour>
      <point x="225.26" y="29.229999999999997" type="line"/>
      <point x="211.07" y="27.229999999999997"/>
      <point x="194.88" y="26.14"/>
      <point x="182.51" y="26.14" type="curve" smooth="yes"/>
      <point x="101.27" y="26.14"/>
      <point x="61.78" y="75.87"/>
      <point x="61.78" y="350.0" type="curve" smooth="yes"/>
      <point x="61.78" y="629.13"/>
      <point x="102.82" y="672.77"/>
      <point x="188.15" y="672.77" type="curve" smooth="yes"/>
      <point x="199.79" y="672.77"/>
      <point x="210.71" y="671.68"/>
      <point x="225.26" y="669.68" type="curve"/>
    </contour>
  </outline>
</glyph>
<glyph name="oe" format="2">
  <advance width="439.91"/>
  <unicode hex="0153"/>
  <outline>
    <contour>
      <point x="27.29" y="265.99" type="curve" smooth="yes"/>
      <point x="27.29" y="50.75"/>
      <point x="55.56" y="-10.0"/>
      <point x="133.38" y="-10.0" type="curve" smooth="yes"/>
      <point x="189.21" y="-10.0"/>
      <point x="207.83" y="25.11"/>
      <point x="222.09" y="105.72" type="curve"/>
      <point x="236.16" y="26.02"/>
      <point x="265.88" y="-10.0"/>
      <point x="326.06" y="-10.0" type="curve" smooth="yes"/>
      <point x="348.75" y="-10.0"/>
      <point x="381.64" y="-3.2800000000000002"/>
      <point x="407.71" y="7.98" type="curve"/>
      <point x="401.0" y="38.85" type="line"/>
      <point x="371.75" y="27.490000000000002"/>
      <point x="346.77" y="23.4"/>
      <point x="326.67" y="23.4" type="curve" smooth="yes"/>
      <point x="274.65" y="23.4"/>
      <point x="239.29" y="66.44"/>
      <point x="239.29" y="231.85" type="curve" smooth="yes"/>
      <point x="239.29" y="247.59"/>
      <point x="239.29" y="264.15"/>
      <point x="239.29" y="279.89" type="curve"/>
      <point x="321.95" y="280.34"/>
      <point x="382.08" y="289.7"/>
      <point x="416.9" y="295.61" type="curve"/>
      <point x="416.99" y="300.05"/>
      <point x="417.99" y="306.57"/>
      <point x="417.99" y="322.66" type="curve" smooth="yes"/>
      <point x="417.99" y="478.92"/>
      <point x="379.81" y="541.8"/>
      <point x="313.44" y="541.8" type="curve" smooth="yes"/>
      <point x="261.52" y="541.8"/>
      <point x="240.35" y="506.51"/>
      <point x="224.27" y="424.81" type="curve"/>
      <point x="208.47" y="505.87"/>
      <point x="188.76" y="541.8"/>
      <point x="133.38" y="541.8" type="curve" smooth="yes"/>
      <point x="55.56" y="541.8"/>
      <point x="27.29" y="481.23"/>
    </contour>
    <contour>
      <point x="61.87" y="265.99" type="curve" smooth="yes"/>
      <point x="61.87" y="462.53"/>
      <point x="81.98" y="510.48"/>
      <point x="133.38" y="510.48" type="curve" smooth="yes"/>
      <point x="184.69" y="510.48"/>
      <point x="204.89" y="462.53"/>
      <point x="204.89" y="265.99" type="curve" smooth="yes"/>
      <point x="204.89" y="69.45"/>
      <point x="184.69" y="21.41"/>
      <point x="133.38" y="21.41" type="curve" smooth="yes"/>
      <point x="81.98" y="21.41"/>
      <point x="61.87" y="69.45"/>
    </contour>
    <contour>
      <point x="239.29" y="305.99" type="curve"/>
      <point x="245.66" y="477.34"/>
      <point x="270.59" y="512.37"/>
      <point x="313.35" y="512.37" type="curve" smooth="yes"/>
      <point x="355.02" y="512.37"/>
      <point x="384.13" y="463.61"/>
      <point x="384.13" y="318.0" type="curve"/>
      <point x="363.12" y="312.45"/>
      <point x="295.52" y="305.99"/>
    </contour>
  </outline>
</glyph>
<glyph name="uni0162" format="2">
  <advance width="248.58"/>
  <unicode hex="0162"/>
  <outline>
    <contour>
      <point x="78.45" y="-185.82" type="curve"/>
      <point x="72.17" y="-210.0" type="line"/>
      <point x="86.16" y="-218.0"/>
      <point x="100.79" y="-220.0"/>
      <point x="111.87" y="-220.0" type="curve" smooth="yes"/>
      <point x="150.64" y="-220.0"/>
      <point x="164.9" y="-182.92"/>
      <point x="164.9" y="-142.4" type="curve" smooth="yes"/>
      <point x="164.9" y="-101.12"/>
      <point x="147.08" y="-43.3"/>
      <point x="136.99" y="0.54" type="curve"/>
      <point x="109.79" y="0.54" type="line"/>
      <point x="126.34" y="-53.77"/>
      <point x="139.07" y="-103.24"/>
      <point x="139.07" y="-138.26" type="curve" smooth="yes"/>
      <point x="139.07" y="-173.18"/>
      <point x="126.44" y="-193.46"/>
      <point x="105.53" y="-193.46" type="curve" smooth="yes"/>
      <point x="96.35" y="-193.46"/>
      <point x="87.35" y="-190.64"/>
    </contour>
    <component base="T"/>
  </outline>
</glyph>
<glyph name="Tbar" format="2">
  <advance width="248.58"/>
  <unicode hex="0166"/>
  <outline>
    <contour>
      <point x="29.25" y="358.57" type="line"/>
      <point x="107.36" y="358.57" type="line"/>
      <point x="107.36" y="0.0" type="line"/>
      <point x="141.31" y="0.0" type="line"/>
      <point x="141.31" y="358.57" type="line"/>
      <point x="219.15" y="358.57" type="line"/>
      <point x="219.15" y="391.53" type="line"/>
      <point x="141.31" y="391.53" type="line"/>
      <point x="141.31" y="666.33" type="line"/>
      <point x="243.13" y="666.33" type="line"/>
      <point x="243.13" y="700.0" type="line"/>
      <point x="5.45" y="700.0" type="line"/>
      <point x="5.45" y="666.33" type="line"/>
      <point x="107.36" y="666.33" type="line"/>
      <point x="107.36" y="391.53" type="line"/>
      <point x="29.25" y="391.53" type="line"/>
    </contour>
  </outline>
</glyph>
<glyph name="tbar" format="2">
  <advance width="199.0"/>
  <unicode hex="0167"/>
  <outline>
    <contour>
      <point x="93.24" y="307.34" type="line"/>
      <point x="185.2" y="307.34" type="line"/>
      <point x="185.2" y="336.14" type="line"/>
      <point x="93.24" y="336.14" type="line"/>
      <point x="93.24" y="501.1" type="line"/>
      <point x="195.56" y="501.1" type="line"/>
      <point x="195.56" y="531.8" type="line"/>
      <point x="93.24" y="531.8" type="line"/>
      <point x="93.24" y="664.1" type="line"/>
      <point x="66.0" y="664.1" type="line"/>
      <point x="59.38" y="531.8" type="line"/>
      <point x="7.82" y="525.8" type="line"/>
      <point x="7.82" y="501.1" type="line"/>
      <point x="59.38" y="501.1" type="line"/>
      <point x="59.38" y="336.14" type="line"/>
      <point x="17.64" y="336.14" type="line"/>
      <point x="17.64" y="307.34" type="line"/>
      <point x="59.38" y="307.34" type="line"/>
      <point x="59.38" y="115.02" type="line" smooth="yes"/>
      <point x="59.38" y="43.9"/>
      <point x="74.26" y="-10.0"/>
      <point x="150.16" y="-10.0" type="curve" smooth="yes"/>
      <point x="164.96" y="-10.0"/>
      <point x="182.66" y="-8.0"/>
      <point x="202.0" y="-1.3800000000000001" type="curve"/>
      <point x="195.84" y="28.32" type="line"/>
      <point x="180.84" y="23.5"/>
      <point x="168.38" y="22.5"/>
      <point x="156.46" y="22.5" type="curve" smooth="yes"/>
      <point x="110.7" y="22.5"/>
      <point x="93.24" y="49.519999999999996"/>
      <point x="93.24" y="117.0" type="curve" smooth="yes"/>
    </contour>
  </outline>
</glyph>
<glyph name="uogonek" format="2">
  <advance width="283.76"/>
  <unicode hex="0173"/>
  <outline>
    <contour>
      <point x="262.17" y="-219.56" type="curve" smooth="yes"/>
      <point x="274.15" y="-219.56"/>
      <point x="283.23" y="-216.47"/>
      <point x="292.13" y="-211.2" type="curve"/>
      <point x="285.95" y="-186.13" type="line"/>
      <point x="280.22" y="-189.86"/>
      <point x="275.22" y="-190.86"/>
      <point x="269.13" y="-190.86" type="curve" smooth="yes"/>
      <point x="255.22" y="-190.86"/>
      <point x="243.4" y="-181.86"/>
      <point x="243.4" y="-148.75" type="curve" smooth="yes"/>
      <point x="243.4" y="-102.45"/>
      <point x="256.13" y="-55.96"/>
      <point x="285.4" y="0.43999999999999995" type="curve"/>
      <point x="278.04" y="30.4" type="line"/>
      <point x="268.67" y="25.759999999999998"/>
      <point x="259.94" y="23.85"/>
      <point x="251.39" y="23.85" type="curve" smooth="yes"/>
      <point x="238.93" y="23.85"/>
      <point x="233.2" y="31.490000000000002"/>
      <point x="233.2" y="48.85" type="curve" smooth="yes"/>
      <point x="233.2" y="531.8" type="line"/>
      <point x="199.25" y="531.8" type="line"/>
      <point x="199.25" y="46.24" type="line"/>
      <point x="182.42" y="32.14"/>
      <point x="151.85" y="21.95"/>
      <point x="133.11" y="21.95" type="curve" smooth="yes"/>
      <point x="94.53" y="21.95"/>
      <point x="75.61" y="46.7"/>
      <point x="75.61" y="92.55" type="curve" smooth="yes"/>
      <point x="75.61" y="531.8" type="line"/>
      <point x="41.57" y="531.8" type="line"/>
      <point x="41.57" y="89.85" type="line" smooth="yes"/>
      <point x="41.57" y="15.26"/>
      <point x="78.01" y="-10.0"/>
      <point x="120.26" y="-10.0" type="curve" smooth="yes"/>
      <point x="148.61" y="-10.0"/>
      <point x="180.06" y="0.54"/>
      <point x="203.69" y="16.62" type="curve"/>
      <point x="208.31" y="0.8099999999999999"/>
      <point x="224.48" y="-10.0"/>
      <point x="244.64" y="-10.0" type="curve" smooth="yes"/>
      <point x="251.36" y="-10.0"/>
      <point x="258.9" y="-9.0"/>
      <point x="267.17" y="-7.0" type="curve"/>
      <point x="263.29" y="6.09" type="line"/>
      <point x="229.22" y="-59.96"/>
      <point x="214.15" y="-112.88"/>
      <point x="214.15" y="-155.6" type="curve" smooth="yes"/>
      <point x="214.15" y="-201.67"/>
      <point x="233.58" y="-219.56"/>
    </contour>
  </outline>
</glyph>
<glyph name="longs" format="2">
  <advance width="167.74"/>
  <unicode hex="017F"/>
  <outline>
    <contour>
      <point x="102.7" y="489.87" type="line"/>
      <point x="102.7" y="684.75"/>
      <point x="137.45" y="717.68"/>
      <point x="188.21" y="717.68" type="curve" smooth="yes"/>
      <point x="200.49" y="717.68"/>
      <point x="214.48" y="716.41"/>
      <point x="228.94" y="711.5" type="curve"/>
      <point x="235.01" y="741.02" type="line"/>
      <point x="216.48" y="747.01"/>
      <point x="199.59" y="750.0"/>
      <point x="182.9" y="750.0" type="curve" smooth="yes"/>
      <point x="85.26" y="750.0"/>
      <point x="68.75" y="643.24"/>
      <point x="68.75" y="491.22" type="curve" smooth="yes"/>
      <point x="68.75" y="488.05" type="line"/>
      <point x="10.46" y="481.96" type="line"/>
      <point x="10.46" y="457.26" type="line"/>
      <point x="68.75" y="457.26" type="line"/>
      <point x="68.75" y="0.0" type="line"/>
      <point x="102.7" y="0.0" type="line"/>
    </contour>
  </outline>
</glyph>
<glyph name="uni018F" format="2">
  <advance width="276.7"/>
  <unicode hex="018F"/>
  <outline>
    <contour>
      <point x="39.62" y="659.88" type="line"/>
      <point x="68.7" y="670.42"/>
      <point x="96.34" y="677.42"/>
      <point x="112.42" y="677.42" type="curve" smooth="yes"/>
      <point x="186.1" y="677.42"/>
      <point x="214.66" y="589.62"/>
      <point x="215.74" y="361.62" type="curve" smooth="yes"/>
      <point x="215.74" y="351.8"/>
      <point x="215.74" y="342.16"/>
      <point x="215.74" y="332.34" type="curve"/>
      <point x="123.62" y="331.44"/>
      <point x="62.8" y="318.8"/>
      <point x="21.46" y="310.62" type="curve"/>
      <point x="21.28" y="301.64"/>
      <point x="20.28" y="291.5"/>
      <point x="20.28" y="276.32" type="curve" smooth="yes"/>
      <point x="20.28" y="85.72"/>
      <point x="58.26" y="-10.0"/>
      <point x="133.3" y="-10.0" type="curve" smooth="yes"/>
      <point x="216.8" y="-10.0"/>
      <point x="250.32" y="98.9"/>
      <point x="250.32" y="369.92" type="curve" smooth="yes"/>
      <point x="250.32" y="605.38"/>
      <point x="210.8" y="710.0"/>
      <point x="123.38" y="710.0" type="curve" smooth="yes"/>
      <point x="91.32" y="710.0"/>
      <point x="58.16" y="702.28"/>
      <point x="31.0" y="688.3" type="curve"/>
    </contour>
    <contour>
      <point x="216.28" y="300.64" type="curve"/>
      <point x="210.82" y="99.53999999999999"/>
      <point x="188.44" y="22.6"/>
      <point x="134.4" y="22.6" type="curve" smooth="yes"/>
      <point x="78.72" y="22.6"/>
      <point x="53.06" y="103.84"/>
      <point x="53.06" y="282.9" type="curve"/>
      <point x="101.28" y="295.0"/>
      <point x="146.04" y="299.64"/>
    </contour>
  </outline>
</glyph>
<glyph name="florin" format="2">
  <advance width="265.3"/>
  <unicode hex="0192"/>
  <outline>
    <contour>
      <point x="50.97" y="385.71" type="line"/>
      <point x="46.08" y="356.46" type="line"/>
      <point x="103.28" y="356.46" type="line"/>
      <point x="14.63" y="-210.0" type="line"/>
      <point x="45.68" y="-210.0" type="line"/>
      <point x="134.33" y="356.46" type="line"/>
      <point x="198.99" y="356.46" type="line"/>
      <point x="203.88" y="386.34" type="line"/>
      <point x="139.22" y="386.34" type="line"/>
      <point x="149.31" y="447.24" type="line" smooth="yes"/>
      <point x="178.06" y="621.56"/>
      <point x="202.53" y="677.24"/>
      <point x="246.19" y="677.24" type="curve" smooth="yes"/>
      <point x="254.19" y="677.24"/>
      <point x="262.1" y="675.33"/>
      <point x="274.37" y="671.15" type="curve"/>
      <point x="286.69" y="701.02" type="line"/>
      <point x="274.17" y="707.46"/>
      <point x="261.46" y="710.0"/>
      <point x="246.85" y="710.0" type="curve" smooth="yes"/>
      <point x="181.69" y="710.0"/>
      <point x="150.63" y="648.65"/>
      <point x="118.62" y="449.4" type="curve" smooth="yes"/>
      <point x="108.17" y="386.34" type="line"/>
    </contour>
  </outline>
</glyph>
<glyph name="uni0237" format="2">
  <advance width="116.53999999999999"/>
  <unicode hex="0237"/>
  <anchor x="57.769999999999996" y="531.8" name="top"/>
  <outline>
    <contour>
      <point x="74.78999999999999" y="13.19" type="curve" smooth="yes"/>
      <point x="74.78999999999999" y="531.8" type="line"/>
      <point x="40.84" y="531.8" type="line"/>
      <point x="40.84" y="14.63" type="line"/>
      <point x="40.84" y="-78.33"/>
      <point x="22.92" y="-137.65"/>
      <point x="-10.0" y="-166.77" type="curve" smooth="yes"/>
      <point x="-15.63" y="-171.32"/>
      <point x="-21.08" y="-174.69"/>
      <point x="-27.89" y="-176.97" type="curve"/>
      <point x="-22.13" y="-208.37" type="line"/>
      <point x="-11.61" y="-204.9"/>
      <point x="-2.36" y="-199.98"/>
      <point x="6.71" y="-194.52" type="curve" smooth="yes"/>
      <point x="52.54" y="-160.85"/>
      <point x="74.78999999999999" y="-95.04"/>
    </contour>
  </outline>
</glyph>
<glyph name="uni0259" format="2">
  <advance width="255.12"/>
  <unicode hex="0259"/>
  <outline>
    <contour>
      <point x="15.91" y="236.19" type="curve"/>
      <point x="14.91" y="227.11"/>
      <point x="14.82" y="219.68"/>
      <point x="14.82" y="209.14" type="curve" smooth="yes"/>
      <point x="14.82" y="52.88"/>
      <point x="53.0" y="-10.0"/>
      <point x="119.37" y="-10.0" type="curve" smooth="yes"/>
      <point x="189.85" y="-10.0"/>
      <point x="227.82999999999998" y="50.32"/>
      <point x="227.82999999999998" y="280.27" type="curve" smooth="yes"/>
      <point x="227.82999999999998" y="474.28"/>
      <point x="188.12" y="541.8"/>
      <point x="112.18" y="541.8" type="curve" smooth="yes"/>
      <point x="85.14" y="541.8"/>
      <point x="55.35" y="537.81"/>
      <point x="25.1" y="523.82" type="curve"/>
      <point x="31.81" y="492.95" type="line"/>
      <point x="61.06" y="504.31"/>
      <point x="87.86" y="508.4"/>
      <point x="106.14" y="508.4" type="curve" smooth="yes"/>
      <point x="161.8" y="508.4"/>
      <point x="193.07" y="459.9"/>
      <point x="193.07" y="272.65" type="curve" smooth="yes"/>
      <point x="193.07" y="266.01"/>
      <point x="193.07" y="258.55"/>
      <point x="193.07" y="251.91" type="curve"/>
      <point x="110.41" y="251.46"/>
      <point x="50.73" y="242.1"/>
    </contour>
    <contour>
      <point x="193.25" y="225.63" type="curve"/>
      <point x="186.88" y="54.64"/>
      <point x="162.04" y="19.61"/>
      <point x="119.46" y="19.61" type="curve" smooth="yes"/>
      <point x="77.88" y="19.61"/>
      <point x="48.95" y="68.37"/>
      <point x="48.95" y="213.62" type="curve"/>
      <point x="69.6" y="219.17"/>
      <point x="137.2" y="225.63"/>
    </contour>
  </outline>
</glyph>
<glyph name="gravecomb" format="2">
  <unicode hex="0300"/>
  <anchor x="-177.26" y="717.11" name="top"/>
  <anchor x="-133.92" y="531.8" name="_top"/>
  <outline>
    <contour>
      <point x="-148.41" y="595.91" type="line"/>
      <point x="-118.43" y="595.91" type="line"/>
      <point x="-194.82" y="789.91" type="line"/>
      <point x="-232.22" y="789.91" type="line"/>
    </contour>
  </outline>
</glyph>
<glyph name="acutecomb" format="2">
  <unicode hex="0301"/>
  <anchor x="-93.11" y="717.11" name="top"/>
  <anchor x="-133.92" y="531.8" name="_top"/>
  <outline>
    <contour>
      <point x="-149.69" y="595.91" type="line"/>
      <point x="-120.52" y="595.91" type="line"/>
      <point x="-36.62" y="789.91" type="line"/>
      <point x="-72.39" y="789.91" type="line"/>
    </contour>
  </outline>
</glyph>
<glyph name="uni0302" format="2">
  <unicode hex="0302"/>
  <anchor x="-133.92" y="750.06" name="top"/>
  <anchor x="-133.92" y="531.8" name="_top"/>
  <anchor x="-37.3" y="670.11" name="top_viet"/>
  <outline>
    <contour>
      <point x="-217.67" y="595.91" type="line"/>
      <point x="-188.6" y="595.91" type="line"/>
      <point x="-133.92" y="755.41" type="line"/>
      <point x="-80.15" y="595.91" type="line"/>
      <point x="-50.17" y="595.91" type="line"/>
      <point x="-116.18" y="789.91" type="line"/>
      <point x="-150.75" y="789.91" type="line"/>
    </contour>
  </outline>
</glyph>
<glyph name="tildecomb" format="2">
  <unicode hex="0303"/>
  <anchor x="-133.92" y="628.22" name="top"/>
  <anchor x="-133.92" y="531.8" name="_top"/>
  <outline>
    <contour>
      <point x="-220.58" y="603.28" type="curve"/>
      <point x="-194.56" y="603.28" type="line"/>
      <point x="-198.2" y="612.56"/>
      <point x="-200.84" y="628.12"/>
      <point x="-200.84" y="643.86" type="curve" smooth="yes"/>
      <point x="-200.84" y="667.78"/>
      <point x="-194.84" y="690.16"/>
      <point x="-180.2" y="690.16" type="curve" smooth="yes"/>
      <point x="-151.72" y="690.16"/>
      <point x="-131.96" y="604.0"/>
      <point x="-85.48" y="604.0" type="curve" smooth="yes"/>
      <point x="-53.14" y="604.0"/>
      <point x="-41.62" y="636.0"/>
      <point x="-41.62" y="681.04" type="curve" smooth="yes"/>
      <point x="-41.62" y="695.22"/>
      <point x="-43.44" y="710.4"/>
      <point x="-46.44" y="725.58" type="curve"/>
      <point x="-70.64" y="725.58" type="line"/>
      <point x="-67.82" y="713.66"/>
      <point x="-66.0" y="699.92"/>
      <point x="-66.0" y="687.0" type="curve" smooth="yes"/>
      <point x="-66.0" y="667.54"/>
      <point x="-66.72" y="634.24"/>
      <point x="-87.46" y="634.24" type="curve" smooth="yes"/>
      <point x="-121.76" y="634.24"/>
      <point x="-134.92" y="718.58"/>
      <point x="-182.0" y="718.58" type="curve" smooth="yes"/>
      <point x="-212.88" y="718.58"/>
      <point x="-225.4" y="687.86"/>
      <point x="-225.4" y="647.82" type="curve" smooth="yes"/>
      <point x="-225.4" y="633.82"/>
      <point x="-223.58" y="617.64"/>
    </contour>
  </outline>
</glyph>
<glyph name="uni0304" format="2">
  <unicode hex="0304"/>
  <anchor x="-133.92" y="710.31" name="top"/>
  <anchor x="-133.92" y="531.8" name="_top"/>
  <outline>
    <contour>
      <point x="-211.6" y="677.35" type="line"/>
      <point x="-56.24" y="677.35" type="line"/>
      <point x="-56.24" y="708.51" type="line"/>
      <point x="-211.6" y="708.51" type="line"/>
    </contour>
  </outline>
</glyph>
<glyph name="uni0306" format="2">
  <unicode hex="0306"/>
  <anchor x="-133.92" y="701.94" name="top"/>
  <anchor x="-133.92" y="531.8" name="_top"/>
  <outline>
    <contour>
      <point x="-133.83" y="603.64" type="curve" smooth="yes"/>
      <point x="-76.43" y="603.64"/>
      <point x="-44.44" y="635.0"/>
      <point x="-44.44" y="714.97" type="curve" smooth="yes"/>
      <point x="-44.44" y="719.42"/>
      <point x="-44.44" y="723.05"/>
      <point x="-44.53" y="727.59" type="curve"/>
      <point x="-69.73" y="729.41" type="line"/>
      <point x="-69.73" y="725.59"/>
      <point x="-69.73" y="720.95"/>
      <point x="-69.73" y="718.04" type="curve" smooth="yes"/>
      <point x="-69.73" y="655.36"/>
      <point x="-93.75" y="631.27"/>
      <point x="-133.83" y="631.27" type="curve" smooth="yes"/>
      <point x="-174.0" y="631.27"/>
      <point x="-198.02" y="655.36"/>
      <point x="-198.02" y="718.04" type="curve" smooth="yes"/>
      <point x="-198.02" y="720.95"/>
      <point x="-198.02" y="725.59"/>
      <point x="-198.02" y="729.41" type="curve"/>
      <point x="-223.31" y="727.59" type="line"/>
      <point x="-223.4" y="723.05"/>
      <point x="-223.4" y="719.42"/>
      <point x="-223.4" y="714.97" type="curve" smooth="yes"/>
      <point x="-223.4" y="633.38"/>
      <point x="-189.25" y="603.64"/>
    </contour>
  </outline>
</glyph>
<glyph name="uni0307" format="2">
  <unicode hex="0307"/>
  <anchor x="-133.92" y="642.53" name="top"/>
  <anchor x="-133.92" y="531.8" name="_top"/>
  <outline>
    <contour>
      <point x="-133.92" y="668.17" type="curve" smooth="yes"/>
      <point x="-119.22" y="668.17"/>
      <point x="-114.7" y="676.98"/>
      <point x="-114.7" y="692.38" type="curve" smooth="yes"/>
      <point x="-114.7" y="707.78"/>
      <point x="-119.22" y="716.59"/>
      <point x="-133.92" y="716.59" type="curve" smooth="yes"/>
      <point x="-146.8" y="716.59"/>
      <point x="-153.14" y="707.78"/>
      <point x="-153.14" y="692.38" type="curve" smooth="yes"/>
      <point x="-153.14" y="676.98"/>
      <point x="-146.8" y="668.17"/>
    </contour>
  </outline>
</glyph>
<glyph name="uni0308" format="2">
  <unicode hex="0308"/>
  <anchor x="-133.92" y="642.53" name="top"/>
  <anchor x="-133.92" y="531.8" name="_top"/>
  <outline>
    <contour>
      <point x="-78.95" y="668.71" type="curve" smooth="yes"/>
      <point x="-65.16" y="668.71"/>
      <point x="-60.73" y="677.43"/>
      <point x="-60.73" y="692.83" type="curve" smooth="yes"/>
      <point x="-60.73" y="708.32"/>
      <point x="-65.16" y="717.13"/>
      <point x="-78.95" y="717.13" type="curve" smooth="yes"/>
      <point x="-92.74" y="717.13"/>
      <point x="-97.26" y="708.32"/>
      <point x="-97.26" y="692.83" type="curve" smooth="yes"/>
      <point x="-97.26" y="677.43"/>
      <point x="-92.74" y="668.71"/>
    </contour>
    <contour>
      <point x="-188.89" y="668.71" type="curve" smooth="yes"/>
      <point x="-175.1" y="668.71"/>
      <point x="-170.58" y="677.43"/>
      <point x="-170.58" y="692.83" type="curve" smooth="yes"/>
      <point x="-170.58" y="708.32"/>
      <point x="-175.1" y="717.13"/>
      <point x="-188.89" y="717.13" type="curve" smooth="yes"/>
      <point x="-202.68" y="717.13"/>
      <point x="-207.11" y="708.32"/>
      <point x="-207.11" y="692.83" type="curve" smooth="yes"/>
      <point x="-207.11" y="677.43"/>
      <point x="-202.68" y="668.71"/>
    </contour>
  </outline>
</glyph>
<glyph name="hookabovecomb" format="2">
  <unicode hex="0309"/>
  <anchor x="-128.08" y="794.0" name="top"/>
  <anchor x="-133.56" y="531.8" name="_top"/>
  <outline>
    <contour>
      <point x="-131.34" y="604.74" type="line"/>
      <point x="-93.6" y="643.6"/>
      <point x="-75.34" y="688.7"/>
      <point x="-75.34" y="731.24" type="curve" smooth="yes"/>
      <point x="-75.34" y="772.76"/>
      <point x="-97.86" y="794.0"/>
      <point x="-130.54" y="794.0" type="curve" smooth="yes"/>
      <point x="-151.62" y="794.0"/>
      <point x="-169.52" y="787.54"/>
      <point x="-183.24" y="768.52" type="curve"/>
      <point x="-170.52" y="747.08" type="line"/>
      <point x="-159.98" y="761.92"/>
      <point x="-147.6" y="766.56"/>
      <point x="-134.24" y="766.56" type="curve" smooth="yes"/>
      <point x="-114.24" y="766.56"/>
      <point x="-103.88" y="750.82"/>
      <point x="-103.88" y="728.08" type="curve" smooth="yes"/>
      <point x="-103.88" y="693.86"/>
      <point x="-114.06" y="664.36"/>
      <point x="-143.52" y="624.02" type="curve"/>
    </contour>
  </outline>
</glyph>
<glyph name="uni030A" format="2">
  <unicode hex="030A"/>
  <anchor x="-133.92" y="743.59" name="top"/>
  <anchor x="-133.92" y="531.8" name="_top"/>
  <outline>
    <contour>
      <point x="-133.92" y="614.21" type="curve" smooth="yes"/>
      <point x="-95.22" y="614.21"/>
      <point x="-73.33" y="643.38"/>
      <point x="-73.33" y="694.82" type="curve" smooth="yes"/>
      <point x="-73.33" y="746.26"/>
      <point x="-95.22" y="775.43"/>
      <point x="-133.92" y="775.43" type="curve" smooth="yes"/>
      <point x="-172.62" y="775.43"/>
      <point x="-194.51" y="746.26"/>
      <point x="-194.51" y="694.82" type="curve" smooth="yes"/>
      <point x="-194.51" y="643.38"/>
      <point x="-172.62" y="614.21"/>
    </contour>
    <contour>
      <point x="-133.92" y="637.42" type="curve" smooth="yes"/>
      <point x="-156.84" y="637.42"/>
      <point x="-169.21" y="657.07"/>
      <point x="-169.21" y="694.82" type="curve" smooth="yes"/>
      <point x="-169.21" y="733.48"/>
      <point x="-156.84" y="752.22"/>
      <point x="-133.92" y="752.22" type="curve" smooth="yes"/>
      <point x="-111.0" y="752.22"/>
      <point x="-98.63" y="733.48"/>
      <point x="-98.63" y="694.82" type="curve" smooth="yes"/>
      <point x="-98.63" y="657.07"/>
      <point x="-111.0" y="637.42"/>
    </contour>
  </outline>
</glyph>
<glyph name="uni030B" format="2">
  <unicode hex="030B"/>
  <anchor x="-91.09" y="789.91" name="top"/>
  <anchor x="-133.92" y="531.8" name="_top"/>
  <outline>
    <contour>
      <point x="-103.19" y="595.91" type="line"/>
      <point x="-76.09" y="595.91" type="line"/>
      <point x="3.93" y="789.91" type="line"/>
      <point x="-29.049999999999997" y="789.91" type="line"/>
    </contour>
    <contour>
      <point x="-186.11" y="595.91" type="line"/>
      <point x="-159.01" y="595.91" type="line"/>
      <point x="-78.99" y="789.91" type="line"/>
      <point x="-111.97" y="789.91" type="line"/>
    </contour>
  </outline>
</glyph>
<glyph name="uni030F" format="2">
  <unicode hex="030F"/>
  <anchor x="-169.47" y="789.91" name="top"/>
  <anchor x="-133.92" y="531.8" name="_top"/>
  <outline>
    <contour>
      <point x="-184.47" y="595.91" type="line"/>
      <point x="-157.37" y="595.91" type="line"/>
      <point x="-231.51" y="789.91" type="line"/>
      <point x="-264.49" y="789.91" type="line"/>
    </contour>
    <contour>
      <point x="-101.55" y="595.91" type="line"/>
      <point x="-74.45" y="595.91" type="line"/>
      <point x="-148.59" y="789.91" type="line"/>
      <point x="-181.57" y="789.91" type="line"/>
    </contour>
  </outline>
</glyph>
<glyph name="uni0312" format="2">
  <unicode hex="0312"/>
  <anchor x="-133.92" y="531.8" name="_top"/>
  <outline>
    <contour>
      <point x="-118.52" y="594.73" type="line"/>
      <point x="-124.98" y="610.19"/>
      <point x="-128.71" y="639.39"/>
      <point x="-128.71" y="670.41" type="curve" smooth="yes"/>
      <point x="-128.71" y="705.68"/>
      <point x="-124.44" y="741.77"/>
      <point x="-106.17" y="785.41" type="curve"/>
      <point x="-137.45" y="785.41" type="line"/>
      <point x="-152.52" y="748.59"/>
      <point x="-159.87" y="714.42"/>
      <point x="-159.87" y="668.61" type="curve" smooth="yes"/>
      <point x="-159.87" y="633.67"/>
      <point x="-155.32" y="606.92"/>
      <point x="-150.77" y="594.73" type="curve"/>
    </contour>
  </outline>
</glyph>
<glyph name="uni031B" format="2">
  <unicode hex="031B"/>
  <anchor x="-83.68" y="531.8" name="_topright"/>
  <anchor x="14.46" y="682.3" name="topright"/>
  <outline>
    <contour>
      <point x="-99.08" y="505.44" type="line"/>
      <point x="-92.72" y="505.44" type="line" smooth="yes"/>
      <point x="-32.8" y="505.44"/>
      <point x="7.0" y="580.54"/>
      <point x="-30.2" y="681.48" type="curve"/>
      <point x="-58.82" y="674.2" type="line"/>
      <point x="-25.52" y="588.2"/>
      <point x="-56.36" y="531.8"/>
      <point x="-95.53999999999999" y="531.8" type="curve" smooth="yes"/>
      <point x="-99.08" y="531.8" type="line"/>
    </contour>
  </outline>
</glyph>
<glyph name="uni0326" format="2">
  <unicode hex="0326"/>
  <anchor x="-133.92" y="0.0" name="_bottom"/>
  <outline>
    <contour>
      <point x="-173.68" y="-218.74" type="curve"/>
      <point x="-144.31" y="-218.74" type="line"/>
      <point x="-125.51" y="-181.65"/>
      <point x="-117.25" y="-146.4"/>
      <point x="-117.25" y="-100.14" type="curve" smooth="yes"/>
      <point x="-117.25" y="-88.86"/>
      <point x="-118.16" y="-78.49"/>
      <point x="-119.07" y="-69.94" type="curve"/>
      <point x="-148.5" y="-69.94" type="line"/>
      <point x="-147.5" y="-79.94"/>
      <point x="-146.5" y="-90.94"/>
      <point x="-146.5" y="-101.94" type="curve" smooth="yes"/>
      <point x="-146.5" y="-137.57"/>
      <point x="-153.5" y="-174.65"/>
    </contour>
  </outline>
</glyph>
<glyph name="uni0327" format="2">
  <unicode hex="0327"/>
  <anchor x="-133.92" y="0.0" name="_bottom"/>
  <anchor x="-143.82" y="-220.0" name="bottom"/>
  <outline>
    <contour>
      <point x="-179.76" y="-185.82" type="curve"/>
      <point x="-186.04" y="-210.0" type="line"/>
      <point x="-172.14" y="-218.0"/>
      <point x="-157.42" y="-220.0"/>
      <point x="-146.34" y="-220.0" type="curve" smooth="yes"/>
      <point x="-107.66" y="-220.0"/>
      <point x="-93.4" y="-182.92"/>
      <point x="-93.4" y="-142.4" type="curve" smooth="yes"/>
      <point x="-93.4" y="-101.12"/>
      <point x="-111.22" y="-43.3"/>
      <point x="-130.32" y="0.54" type="curve"/>
      <point x="-153.88" y="0.54" type="line"/>
      <point x="-131.96" y="-53.86"/>
      <point x="-119.14" y="-103.24"/>
      <point x="-119.14" y="-138.26" type="curve" smooth="yes"/>
      <point x="-119.14" y="-173.18"/>
      <point x="-131.86" y="-193.46"/>
      <point x="-152.68" y="-193.46" type="curve" smooth="yes"/>
      <point x="-161.86" y="-193.46"/>
      <point x="-170.86" y="-190.64"/>
    </contour>
  </outline>
</glyph>
<glyph name="uni0328" format="2">
  <unicode hex="0328"/>
  <anchor x="-101.32" y="0.0" name="_ogonek"/>
  <outline>
    <contour>
      <point x="-124.64" y="-220.0" type="curve" smooth="yes"/>
      <point x="-112.66" y="-220.0"/>
      <point x="-103.58" y="-217.0"/>
      <point x="-94.68" y="-211.64" type="curve"/>
      <point x="-100.86" y="-186.66" type="line"/>
      <point x="-106.5" y="-190.3"/>
      <point x="-111.5" y="-191.3"/>
      <point x="-117.68" y="-191.3" type="curve" smooth="yes"/>
      <point x="-131.5" y="-191.3"/>
      <point x="-143.32" y="-182.3"/>
      <point x="-143.32" y="-149.28" type="curve" smooth="yes"/>
      <point x="-143.32" y="-102.98"/>
      <point x="-130.68" y="-56.4"/>
      <point x="-101.32" y="0.0" type="curve"/>
      <point x="-123.52" y="7.36" type="line"/>
      <point x="-157.5" y="-59.14"/>
      <point x="-172.66" y="-112.42"/>
      <point x="-172.66" y="-156.04" type="curve" smooth="yes"/>
      <point x="-172.66" y="-202.2"/>
      <point x="-153.14" y="-220.0"/>
    </contour>
  </outline>
</glyph>
<glyph name="uni0335" format="2">
  <unicode hex="0335"/>
  <anchor x="-58.04" y="350.0" name="_center"/>
  <outline>
    <contour>
      <point x="-159.15" y="333.52" type="line"/>
      <point x="42.98" y="333.52" type="line"/>
      <point x="42.98" y="366.48" type="line"/>
      <point x="-159.15" y="366.48" type="line"/>
    </contour>
  </outline>
</glyph>
